<?xml version="1.0" encoding="UTF-8" standalone="no"?>
<svg width="72px" height="34px" viewBox="0 0 72 34" version="1.1" xmlns="http://www.w3.org/2000/svg" xmlns:xlink="http://www.w3.org/1999/xlink" xmlns:sketch="http://www.bohemiancoding.com/sketch/ns">
    <!-- Generator: Sketch 3.3.3 (12072) - http://www.bohemiancoding.com/sketch -->
    <title>Apple Pay</title>
    <desc>Created with Sketch.</desc>
    <defs></defs>
    <g id="website" stroke="none" stroke-width="1" fill="none" fill-rule="evenodd" sketch:type="MSPage">
        <g id="首页-2015-09-22-copy-2" sketch:type="MSArtboardGroup" transform="translate(-820.000000, -1397.000000)" fill="#FFFFFF">
            <g id="Apple-Pay" sketch:type="MSLayerGroup" transform="translate(820.000000, 1397.000000)">
                <path d="M22.1362485,8.89112329 C20.1540178,10.3033688 19.1629173,12.0032685 19.1629173,13.9908732 C19.1629173,16.3707685 20.387727,18.1970709 22.8373834,19.4698354 C22.1795251,21.3876996 21.2273762,23.0570883 19.9809079,24.4780514 C18.7344397,25.8990144 17.5961889,26.6094853 16.5661214,26.6094853 C16.0813838,26.6094853 15.4192075,26.4482128 14.5795726,26.1256629 L14.1770693,25.9687475 C13.3547465,25.6461976 12.6276509,25.4849251 11.9957608,25.4849251 C11.3984948,25.4849251 10.7449744,25.6113279 10.0351799,25.8641372 L9.52880476,26.0472052 L8.89258978,26.3087308 C8.39054008,26.5092348 7.88416996,26.6094853 7.37346423,26.6094853 C6.17027615,26.6094853 4.84159557,25.6113391 3.38738264,23.6150167 C1.29262354,20.7556555 0.245259695,17.6391728 0.245259695,14.2654752 C0.245259695,11.8681448 0.898780108,9.93723316 2.20584054,8.47268226 C3.51290097,7.00813137 5.24408088,6.2758669 7.39943219,6.2758669 C8.20444292,6.2758669 8.95750617,6.42406328 9.65864455,6.72046049 L10.1390518,6.91660471 L10.645427,7.12582523 C11.0955405,7.31761165 11.4590883,7.41350343 11.7360812,7.41350343 C12.0909784,7.41350343 12.4848218,7.3306878 12.9176233,7.16505407 L13.5798062,6.90352843 L14.0731975,6.72046049 C14.8608961,6.43278084 15.730814,6.28894318 16.6829773,6.28894318 C18.9422009,6.28894318 20.7599398,7.15632788 22.1362485,8.89112329 L22.1362485,8.89112329 Z M16.7868491,0.234624644 C16.8128172,0.539739415 16.825801,0.775110136 16.825801,0.940743868 C16.825801,2.44888259 16.2804794,3.77175322 15.1898197,4.90939544 C14.09916,6.04703765 12.8310707,6.61585023 11.3855138,6.61585023 C11.3422336,6.2758652 11.3205939,6.03177704 11.3205939,5.88357844 C11.3205939,4.6020964 11.826964,3.3990905 12.8397194,2.27452463 C13.8524749,1.14995876 15.0253493,0.491792481 16.3583778,0.300006053 C16.4535941,0.282570924 16.5964164,0.260777338 16.7868491,0.234624644 L16.7868491,0.234624644 Z M29.4737389,2.34482272 C30.1592041,2.2257989 30.9155681,2.11867907 31.7428537,2.02346001 C32.5701393,1.92824096 33.4801398,1.88063214 34.4728825,1.88063214 C35.8910863,1.88063214 37.1142688,2.05321409 38.1424666,2.39838317 C39.1706644,2.74355224 40.0156648,3.23749368 40.6774933,3.88022231 C41.2447748,4.45153664 41.6879569,5.12996223 42.0070528,5.91551944 C42.3261486,6.70107665 42.4856942,7.6056441 42.4856942,8.62924895 C42.4856942,9.86709667 42.2670577,10.9501972 41.8297782,11.878583 C41.3924986,12.8069688 40.7956801,13.5865631 40.0393048,14.2173893 C39.2829294,14.8482156 38.3847471,15.3183526 37.3447309,15.6278145 C36.3047148,15.9372765 35.1701687,16.0920051 33.9410587,16.0920051 C32.8774058,16.0920051 31.9437689,16.0086897 31.1401201,15.8420563 L31.1401201,26.1256629 L29.4737389,26.1256629 L29.4737389,2.34482272 Z M31.1401201,14.3423637 C31.5419445,14.4613875 31.9910357,14.5447029 32.487407,14.5923125 C32.9837784,14.639922 33.5155968,14.6637264 34.0828784,14.6637264 C36.1865474,14.6637264 37.8292756,14.1638339 39.0111121,13.1640338 C40.1929487,12.1642337 40.7838581,10.7002627 40.7838581,8.77207682 C40.7838581,7.84369103 40.6302216,7.0343412 40.3229441,6.34400305 C40.0156666,5.65366489 39.5783937,5.08831023 39.0111121,4.6479221 C38.4438306,4.20753397 37.7701938,3.87427228 36.9901817,3.64812702 C36.2101696,3.42198176 35.3474419,3.30891083 34.4019726,3.30891083 C33.6455973,3.30891083 32.9955969,3.33866634 32.4519521,3.39817825 C31.9083073,3.45769016 31.4710343,3.52315228 31.1401201,3.59456657 L31.1401201,14.3423637 Z M55.719243,22.0550686 C55.719243,22.7454068 55.7310612,23.4357346 55.7546979,24.1260727 C55.7783346,24.8164109 55.8492437,25.4829343 55.9674274,26.1256629 L54.407411,26.1256629 L54.1592265,23.6975891 L54.0883167,23.6975891 C53.8755861,24.0308558 53.6037678,24.3641175 53.2728536,24.6973842 C52.9419393,25.0306509 52.5578482,25.3341571 52.1205687,25.6079119 C51.6832892,25.8816666 51.1869253,26.1018574 50.6314621,26.2684908 C50.0759989,26.4351241 49.4673622,26.5184395 48.8055338,26.5184395 C47.9782482,26.5184395 47.2514296,26.3815642 46.6250563,26.1078094 C45.9986829,25.8340546 45.4845917,25.4769885 45.0827673,25.0366004 C44.6809429,24.5962123 44.3795791,24.0903686 44.1786668,23.5190543 C43.9777546,22.9477399 43.8773,22.3764342 43.8773,21.8051198 C43.8773,19.8055197 44.7282096,18.2522821 46.4300542,17.1453606 C48.1318988,16.0384391 50.6728093,15.5087911 54.0528618,15.5564006 L54.0528618,15.09221 C54.0528618,14.6399195 54.0114981,14.1221737 53.9287696,13.5389569 C53.846041,12.9557402 53.6628591,12.4022878 53.3792183,11.878583 C53.0955775,11.3548782 52.6701228,10.9144966 52.1028412,10.5574252 C51.5355597,10.2003537 50.7673775,10.0218207 49.7982715,10.0218207 C49.0655328,10.0218207 48.3387143,10.1348916 47.617794,10.3610369 C46.8968737,10.5871821 46.2409642,10.9025905 45.650046,11.3072715 L45.1182222,10.0575276 C45.8745976,9.53382283 46.654598,9.15890343 47.4582468,8.93275817 C48.2618957,8.70661291 49.1009871,8.59354198 49.9755461,8.59354198 C51.1573826,8.59354198 52.120565,8.79587944 52.865122,9.20056042 C53.609679,9.60524141 54.1946793,10.1289384 54.6201405,10.771667 C55.0456016,11.4143956 55.3351472,12.1344789 55.488786,12.9319385 C55.6424247,13.7293981 55.719243,14.5208946 55.719243,15.3064518 L55.719243,22.0550686 Z M54.0528618,16.9489723 C53.154666,16.9251675 52.21512,16.9608742 51.2341957,17.0560932 C50.2532714,17.1513123 49.34918,17.3596008 48.5218944,17.6809651 C47.6946088,18.0023294 47.0091539,18.4724665 46.4655091,19.0913903 C45.9218643,19.7103142 45.650046,20.5315662 45.650046,21.5551711 C45.650046,22.1740949 45.7445915,22.703743 45.9336853,23.1441311 C46.1227792,23.5845193 46.3709611,23.9475365 46.6782386,24.2331936 C46.9855161,24.5188508 47.3400618,24.7330904 47.7418862,24.875919 C48.1437106,25.0187476 48.5573472,25.0901608 48.9828084,25.0901608 C49.6682736,25.0901608 50.2828193,24.9949432 50.8264641,24.8045051 C51.370109,24.614067 51.8428365,24.3581696 52.2446609,24.0368053 C52.6464853,23.715441 52.9833037,23.3524238 53.2551261,22.9477428 C53.5269485,22.5430618 53.7337668,22.1264847 53.8755872,21.6979989 C53.9937708,21.2695132 54.0528618,20.9243493 54.0528618,20.6624969 L54.0528618,16.9489723 Z M58.9899595,8.98631862 L63.3154596,20.1268924 C63.551827,20.7458162 63.7763725,21.3825841 63.9891031,22.0372151 C64.2018337,22.6918461 64.3909247,23.2929074 64.5563818,23.840417 L64.6272916,23.840417 C64.7927488,23.3167122 64.9818398,22.7275531 65.1945704,22.0729221 C65.4073009,21.4182911 65.6436647,20.7458166 65.9036687,20.0554785 L69.9455295,8.98631862 L71.7182754,8.98631862 L66.7900417,21.5551711 C66.2936704,22.8882379 65.8268519,24.0963115 65.3895724,25.1794283 C64.9522929,26.262545 64.5091108,27.2385257 64.0600129,28.1073996 C63.6109151,28.9762734 63.1559148,29.7439656 62.6949986,30.4104989 C62.2340823,31.0770323 61.7199911,31.6602403 61.1527096,32.1601403 C60.4908811,32.7552594 59.8822444,33.1896899 59.3267813,33.4634446 C58.7713181,33.7371994 58.3990452,33.9097814 58.2099513,33.9811957 L57.6426726,32.5886239 C58.0681338,32.3981858 58.5408613,32.1482396 59.0608694,31.8387776 C59.5808774,31.5293157 60.0890595,31.1246408 60.5854309,30.6247408 C61.010892,30.196255 61.4777105,29.6309003 61.9859002,28.9286598 C62.4940899,28.2264193 62.9490901,27.3754117 63.3509146,26.3756117 C63.4927349,25.9947354 63.5636441,25.7447892 63.5636441,25.6257653 C63.5636441,25.459132 63.4927349,25.2091857 63.3509146,24.875919 L57.2172136,8.98631862 L58.9899595,8.98631862 Z" id="-Pay" sketch:type="MSShapeGroup"></path>
            </g>
        </g>
    </g>
</svg>