<?xml version="1.0" encoding="UTF-8" standalone="no"?>
<svg width="107px" height="30px" viewBox="0 0 107 30" version="1.1" xmlns="http://www.w3.org/2000/svg" xmlns:xlink="http://www.w3.org/1999/xlink" xmlns:sketch="http://www.bohemiancoding.com/sketch/ns">
    <!-- Generator: Sketch 3.3.3 (12072) - http://www.bohemiancoding.com/sketch -->
    <title>BaiduPay</title>
    <desc>Created with Sketch.</desc>
    <defs>
        <linearGradient x1="49.9805181%" y1="-0.0214905933%" x2="49.9805181%" y2="100.008575%" id="linearGradient-1">
            <stop stop-color="#FFFFFF" offset="0%"></stop>
            <stop stop-color="#FFFFFF" offset="36.9060906%"></stop>
            <stop stop-color="#FFFFFF" offset="100%"></stop>
        </linearGradient>
    </defs>
    <g id="website" stroke="none" stroke-width="1" fill="none" fill-rule="evenodd" sketch:type="MSPage">
        <g id="首页-2015-09-22-copy-2" sketch:type="MSArtboardGroup" transform="translate(-234.000000, -1397.000000)">
            <g id="BaiduPay" sketch:type="MSLayerGroup" transform="translate(234.000000, 1397.000000)">
                <path d="M37.6949099,6.15678185 L32.1453454,6.15678185 L32.1453454,6.92130893 C32.1453454,7.55841483 32.6589436,8.07623281 33.2914805,8.07623281 L37.6949099,8.07623281 L39.6979432,8.07623281 L38.9789056,10.4375913 L35.2323413,10.4375913 L34.699821,10.4375913 C33.7402032,10.4375913 32.9589932,11.221096 32.9589932,12.1835326 L32.9589932,15.9139909 L32.9589932,17.8334419 L32.9589932,21.4093682 C32.9589932,22.3555382 33.7050622,23.1173542 34.6403517,23.1498873 L34.6430549,23.1553095 L46.4044555,23.1553095 L46.412565,23.1471762 C46.4395965,23.1498873 46.4639248,23.1553095 46.4936595,23.1553095 C47.4532773,23.1553095 48.2317842,22.3745159 48.2317842,21.4093682 L48.2317842,21.2358585 L48.2317842,17.8307308 L48.2317842,15.9112798 L48.2317842,12.3543312 L48.2317842,12.1808215 C48.2317842,11.2183849 47.4505741,10.4348802 46.4936595,10.4348802 C46.4531122,10.4348802 46.4179713,10.4430135 46.3774241,10.4457245 L46.3666115,10.4348802 L45.9611391,10.4348802 L41.346864,10.4348802 L42.0631985,8.07352172 L43.5012737,8.07352172 L47.9074063,8.07352172 C48.5426463,8.07352172 49.0562446,7.55841483 49.0562446,6.91859784 L49.0562446,6.15407076 L43.5012737,6.15407076 L37.6949099,6.15407076 L37.6949099,6.15678185 Z M45.958436,18.9070331 L45.9638423,21.2358585 L35.2350445,21.2358585 L35.2350445,17.7602425 L44.8068946,17.7602425 C45.4367283,17.7602425 45.9476234,18.2699272 45.9557328,18.9016109 L45.958436,18.9070331 L45.958436,18.9070331 Z M44.7771599,12.3543312 L44.7798631,12.3570422 C45.4123999,12.3570422 45.923295,12.8748602 45.9259982,13.506544 L45.9287013,13.509255 L45.9314045,15.8380804 L35.1917941,15.8380804 L35.1917941,12.348909 L44.7771599,12.348909 L44.7771599,12.3543312 Z M90.9847864,9.07120245 L91.5173067,9.07120245 L91.5173067,9.06849136 L101.843335,9.06849136 C102.475872,9.06849136 102.98947,9.58630935 102.98947,10.2207042 L102.992174,10.2207042 L102.992174,12.6417066 L102.992174,16.1959442 L102.992174,18.9097442 L104.024776,18.9097442 C104.708673,18.9097442 105.262819,18.353971 105.262819,17.6653544 L105.262819,16.1959442 L105.262819,12.6417066 L105.262819,9.06849136 L105.262819,8.89769276 L105.262819,8.89498167 C105.262819,7.92983401 104.484312,7.15175149 103.524694,7.15175149 L102.994877,7.15175149 L91.5200099,7.15175149 L91.5200099,6.16220402 L89.2493648,6.16220402 L89.2493648,7.32526118 C89.2493648,8.29040884 90.0278717,9.07120245 90.9847864,9.07120245 L90.9847864,9.07120245 Z M101.18647,21.2412807 L94.4123791,21.2412807 L91.522713,21.2412807 L91.522713,18.9097442 L98.5509,18.9097442 L99.059092,18.9097442 C99.0699046,18.9097442 99.078014,18.9124553 99.0888266,18.9124553 C100.051148,18.9124553 100.829654,18.1289506 100.829654,17.166514 C100.829654,17.1583808 100.826951,17.1502475 100.826951,17.1421142 L100.826951,16.9902932 L100.826951,13.1513913 L100.826951,12.9778816 C100.826951,12.0127339 100.048444,11.2319403 99.0888266,11.2319403 L98.5536032,11.2319403 L91.5254162,11.2319403 L90.9928958,11.2319403 C90.033278,11.2319403 89.2547711,12.0127339 89.2547711,12.9778816 L89.2547711,21.4066571 C89.2547711,22.3690937 90.0278717,23.1471762 90.9874895,23.1525984 L90.9928958,23.1580206 L91.5254162,23.1580206 L94.4150823,23.1580206 L101.189173,23.1580206 L105.019535,23.1580206 C105.654775,23.1580206 106.168373,22.6429137 106.168373,22.0030967 L106.168373,21.2385696 L101.18647,21.2385696 L101.18647,21.2412807 Z M91.5200099,13.1541024 L97.3993586,13.1541024 L97.4020618,13.1541024 L97.407468,13.1541024 L97.4453121,13.1541024 L97.4507184,13.1595246 C98.0616301,13.1839244 98.5481969,13.6881869 98.5481969,14.3090263 C98.5481969,14.3225817 98.5427906,14.3361372 98.5427906,14.3524037 L98.5427906,16.9957154 L91.5146036,16.9957154 L91.5146036,13.1541024 L91.5200099,13.1541024 Z M66.9808246,9.48057688 L64.7074764,9.48057688 L64.7074764,9.93061765 L57.8144468,9.93061765 L57.8144468,9.48057688 L55.5438018,9.48057688 L55.5438018,9.93061765 L54.4409171,9.93061765 L54.4409171,11.6928255 L55.5438018,11.6928255 L55.5438018,12.7420169 L55.5438018,12.9155266 L55.5492081,12.9209487 C55.5519112,13.8833853 56.327715,14.6614678 57.2873328,14.6614678 L57.2981454,14.6614678 L57.8144468,14.6614678 L64.7074764,14.6614678 L65.2426999,14.6614678 L65.2508093,14.6614678 C66.2104272,14.6614678 66.988934,13.8806742 66.988934,12.9155266 C66.988934,12.8911268 66.9835277,12.8721491 66.9835277,12.8477493 L66.9835277,12.744728 L66.9835277,11.6955365 L68.0864125,11.6955365 L68.0864125,9.93332873 L66.9835277,9.93332873 L66.9835277,9.48057688 L66.9808246,9.48057688 Z M64.7074764,12.8748602 L57.8144468,12.8748602 L57.8144468,11.6928255 L64.7074764,11.6928255 L64.7074764,12.8748602 L64.7074764,12.8748602 Z M61.4691041,6.16491511 L59.198459,6.16491511 L59.198459,6.91588675 L53.440752,6.91588675 L52.9541852,6.91588675 C52.9379663,6.91588675 52.9217474,6.90775348 52.9055285,6.90775348 C52.8866065,6.90775348 52.8676844,6.91317566 52.8460592,6.91588675 L52.8163246,6.91588675 L52.8136215,6.91859784 C51.9107697,6.96468635 51.1917322,7.70481363 51.170107,8.6184506 L51.1674038,8.62116169 L51.1674038,8.83262663 L51.1674038,23.1634427 L52.2000067,23.1634427 C52.8839033,23.1634427 53.440752,22.6076695 53.440752,21.9190529 L53.440752,10.003817 L53.4461583,9.99839487 L53.4461583,9.98755051 C53.4461583,9.34773352 53.9597566,8.83262663 54.5949966,8.83262663 L68.0837093,8.83262663 L68.0837093,6.91317566 L61.4691041,6.91317566 L61.4691041,6.16491511 L61.4691041,6.16491511 Z M67.824207,17.2614021 C67.9728802,17.0906035 68.0485684,16.7950948 68.0485684,16.6297184 C68.0485684,16.098345 67.6187677,15.6672818 67.0916537,15.6672818 L67.0916537,15.6591486 L66.4672263,15.6591486 L54.4382139,15.6591486 L54.4382139,17.4023788 L65.1210582,17.4023788 C64.6209756,17.9635742 63.6235137,18.7769008 62.8125691,19.2757412 C61.1717577,18.5545916 59.6796195,18.2102833 58.4686089,18.1994389 C56.9170014,18.1967278 55.76546,18.47597 55.0815633,19.1564533 C55.0788602,19.1591644 55.0761571,19.1645866 55.0707508,19.1727198 C54.6842005,19.5495612 54.4409171,20.0728014 54.4409171,20.6583966 C54.4409171,21.2385696 54.6814973,21.7618098 55.0599382,22.13594 C55.0599382,22.1386511 55.0626413,22.1413622 55.0653445,22.1440733 C55.7195065,22.7947347 56.800766,23.1525984 58.5091561,23.1525984 C59.8201833,23.1525984 61.7015749,22.4856705 63.0180084,21.555767 C63.9451884,21.981408 64.6398977,22.3419828 65.9941753,22.9980663 C66.6861814,23.3315303 67.3133119,23.1390429 67.6647212,22.6076695 L68.0837093,21.9705636 C68.0837093,21.9705636 65.2832471,20.5553752 64.645304,20.213778 C66.0185036,19.056143 67.6890496,17.4186453 67.824207,17.2614021 L67.824207,17.2614021 Z M57.9712295,21.9353195 C56.8088755,21.9353195 55.7195065,21.585589 55.7195065,20.6583966 C55.7195065,19.7312042 56.9764707,19.4709396 57.9712295,19.4709396 C58.9605819,19.4709396 60.8906302,20.3493324 61.1339136,20.6583966 C60.8608956,20.975594 58.8443465,21.9353195 57.9712295,21.9353195 L57.9712295,21.9353195 Z M72.4682168,6.39535767 L70.1975717,6.39535767 L70.1975717,7.76445759 L70.1975717,7.93525619 C70.1975717,8.90311494 70.9760786,9.68390855 71.9356964,9.68390855 L75.9066221,9.68390855 L75.9066221,7.76445759 L72.4682168,7.76445759 L72.4682168,6.39535767 L72.4682168,6.39535767 Z M70.7354983,12.348909 L71.111236,12.348909 L71.1139392,12.3516201 C71.746476,12.3543312 72.2600743,12.8694381 72.2600743,13.506544 L72.2600743,13.5200994 L72.2600743,14.3469815 L70.4949181,14.3469815 L70.4949181,16.2664325 L71.111236,16.2664325 L71.1166423,16.2745658 C71.7491792,16.2772768 72.2600743,16.7923837 72.2600743,17.4294896 C72.2600743,17.440334 72.2573711,17.4511784 72.2573711,17.4620227 L72.2573711,17.4620227 L72.2573711,20.9891494 L72.2573711,21.1328371 L72.2573711,21.1572369 L72.2573711,21.1735035 L72.2573711,21.1789256 C72.27359,22.1305179 73.0385812,22.897756 73.9873864,22.9004671 L73.9927927,22.9058893 L75.9039189,22.9058893 L75.9039189,20.9864383 L75.4470868,20.9864383 C74.8118468,20.9864383 74.2982485,20.4713314 74.2982485,19.8369366 L74.2982485,19.8369366 L74.2982485,16.2664325 L75.9093252,16.2664325 L75.9093252,14.3469815 L74.2982485,14.3469815 L74.2982485,12.348909 L75.9093252,12.348909 L75.9093252,10.429458 L70.7354983,10.429458 L70.7354983,12.348909 L70.7354983,12.348909 Z M86.3813239,20.549953 C85.6839115,20.0592459 85.0811093,19.5224503 84.5594016,18.9531216 L87.1246898,17.6897542 L87.1246898,15.1521749 L83.1807956,17.0960257 C82.5023053,15.9546573 82.0698015,14.7861779 81.7940803,13.7234311 L87.1246898,13.7234311 L87.1246898,11.8039801 L81.4318583,11.8039801 C81.2885915,10.6327897 81.3291387,9.80590755 81.3372481,9.65137549 L82.0995361,9.65137549 L87.1246898,9.65137549 L87.1246898,9.53750975 L87.1246898,6.50109014 L84.8594511,6.50109014 L84.8594511,7.73463561 L81.5318749,7.73463561 L81.3399513,7.73463561 L81.3399513,6.13509313 L79.1693228,6.13509313 L79.1693228,7.73463561 L79.1612133,7.73463561 L76.5499715,7.73463561 L76.5499715,9.65137549 L79.1693228,9.65137549 L79.1693228,10.1827489 C79.1612133,10.7466554 79.1801354,11.2861621 79.2179794,11.8039801 L76.5526747,11.8039801 L76.5526747,13.7234311 L79.4720754,13.7234311 C79.8126722,15.4720834 80.4100681,16.9198049 81.1291057,18.1072619 L77.3744319,19.9562245 L77.8312641,20.8888391 C78.1313136,21.5042563 78.8719764,21.7590987 79.4855912,21.4581678 L82.5104147,19.9670689 C84.6891527,22.3826491 87.1327993,23.1444651 87.1327993,23.1444651 L87.1327993,22.0518963 C87.0706268,20.8481728 86.3813239,20.549953 86.3813239,20.549953 L86.3813239,20.549953 Z" id="XMLID_149_" fill="#FFFFFF" sketch:type="MSShapeGroup"></path>
                <path d="M9.39834778,16.6514071 C9.32806591,16.7191843 9.28751867,16.8167835 9.28751867,16.922516 C9.28751867,17.0282485 9.33076905,17.1231366 9.39834778,17.1936249 L12.7232209,20.5580863 C12.7935027,20.6285746 12.8854098,20.6692409 12.9935357,20.6692409 C13.0989586,20.6692409 13.1935688,20.6258635 13.2611475,20.5580863 L16.5887237,17.1936249 C16.6563024,17.1258477 16.6968497,17.0282485 16.6968497,16.922516 C16.6968497,16.8167835 16.6563024,16.7218954 16.5887237,16.6514071 L13.2611475,13.2869458 C13.1935688,13.2191685 13.0989586,13.1757911 12.9935357,13.1757911 C12.8881129,13.1757911 12.7935027,13.2191685 12.7232209,13.2869458 L9.39834778,16.6514071 L9.39834778,16.6514071 Z" id="XMLID_7_" fill="url(#linearGradient-1)" sketch:type="MSShapeGroup"></path>
                <path d="M16.6941465,8.30938646 C15.6912783,8.30938646 14.7289573,8.48560724 13.834215,8.80551574 L13.8315119,8.80822683 C13.7477143,8.83533772 13.6909482,8.91395929 13.6909482,9.00342523 C13.6909482,9.10644661 13.7666363,9.19320146 13.8666528,9.2067569 L13.8666528,9.2067569 C17.702421,9.64053113 20.6866974,12.929082 20.6866974,16.9198049 C20.6866974,21.2087476 17.248292,24.6843636 13.0043483,24.6843636 C8.76040465,24.6843636 5.32199931,21.2087476 5.32199931,16.9198049 C5.32199931,14.5204912 6.40866515,12.2838428 7.84133404,10.7737663 C9.89032087,8.48289615 12.7286272,6.68002201 15.6723563,5.39767694 C15.9021239,5.30007774 16.1724388,5.18621201 16.3021899,5.13199023 C16.3130025,5.12927914 16.3238151,5.12385696 16.3319246,5.12114587 C18.3755051,4.30239701 20.5461336,3.7412016 22.8086692,3.48635924 C22.9978896,3.46738162 23.1438597,3.30471628 23.1438597,3.10680679 L23.1438597,3.10680679 C23.0816873,1.44762036 21.7436286,0.132742227 20.0865983,0.132742227 C19.700048,0.132742227 19.354045,0.20051945 18.9756042,0.325229541 C15.8075137,1.43406492 13.1665373,1.98712706 10.0065563,1.98712706 C7.86836553,1.98712706 5.80045666,1.71601817 3.81904855,1.20904453 L3.81364225,1.20904453 C2.96485351,0.99215742 2.1728309,0.631582591 1.4646059,0.154430938 C1.43216811,0.132742227 1.39432403,0.119186782 1.3537768,0.119186782 C1.24024454,0.119186782 1.15104063,0.211363806 1.15104063,0.325229541 C1.15104063,0.341496075 1.15374378,0.35505152 1.15644693,0.371318053 C1.73762393,3.11765115 3.75687612,5.32718863 6.37893051,6.15135967 C6.46272812,6.17847056 6.5221974,6.25438105 6.5221974,6.34655807 C6.5221974,6.41975747 6.48435331,6.48211252 6.43029034,6.52006776 C3.04054168,8.71333871 0.794224984,12.5522406 0.794224984,16.9198049 C0.794224984,23.7354825 6.25999196,29.2633929 13.0070515,29.2633929 C19.7514079,29.2633929 25.2171748,23.7381936 25.2171748,16.9198049 C25.2171748,12.167266 21.4003287,8.30938646 16.6941465,8.30938646 L16.6941465,8.30938646 Z" id="XMLID_6_" fill="url(#linearGradient-1)" sketch:type="MSShapeGroup"></path>
                <path d="M16.6968497,8.30938646 C15.6939814,8.30938646 14.7316605,8.48560724 13.8369182,8.80551574 L13.834215,8.80822683 C13.7504174,8.83533772 13.6936513,8.91395929 13.6936513,9.00342523 C13.6936513,9.10644661 13.7693395,9.19320146 13.869356,9.2067569 L13.869356,9.2067569 C17.7051242,9.64053113 20.6894005,12.929082 20.6894005,16.9198049 C20.6894005,21.2087476 17.2509952,24.6843636 13.0070515,24.6843636 C8.7631078,24.6843636 5.32470246,21.2087476 5.32470246,16.9198049 C5.32470246,14.7753336 6.19511639,12.7609945 7.40342392,11.2780288 C4.65972784,13.753253 2.92971258,17.3508681 2.92971258,21.3551464 C2.92971258,22.3907824 3.04594798,23.3965964 3.26490303,24.3644551 C5.49500084,27.3412308 9.02801638,29.2633929 13.0070515,29.2633929 C19.7514079,29.2633929 25.2171748,23.7381936 25.2171748,16.9198049 C25.219878,12.167266 21.4030318,8.30938646 16.6968497,8.30938646 L16.6968497,8.30938646 Z" id="XMLID_5_" fill="url(#linearGradient-1)" sketch:type="MSShapeGroup"></path>
                <path d="M25.219878,16.8520277 C25.1820339,12.1293108 21.3814066,8.31209755 16.6995528,8.31209755 C15.6966846,8.31209755 14.7343636,8.48831833 13.8396213,8.80822683 L13.8369182,8.81093791 C13.7531206,8.8380488 13.6963544,8.91667038 13.6963544,9.00613632 C13.6963544,9.1091577 13.7720426,9.19591254 13.8720591,9.20946799 L13.8720591,9.20946799 C17.7078273,9.64324222 20.6921037,12.9317931 20.6921037,16.922516 C20.6921037,21.2114587 17.2536983,24.6870747 13.0097546,24.6870747 C8.91448413,24.6870747 5.56798585,21.4500345 5.3382182,17.3698457 C5.3382182,17.3698457 5.3382182,17.3698457 5.33010876,17.3752679 C5.63286143,22.6808689 9.96600903,26.8857679 15.2668839,26.8857679 C20.7407604,26.8857679 25.1820339,22.3989157 25.219878,16.8520277 L25.219878,16.8520277 Z" id="XMLID_4_" fill="url(#linearGradient-1)" sketch:type="MSShapeGroup"></path>
            </g>
        </g>
    </g>
</svg>