<?xml version="1.0" encoding="UTF-8" standalone="no"?>
<svg width="131px" height="48px" viewBox="0 0 131 48" version="1.1" xmlns="http://www.w3.org/2000/svg" xmlns:xlink="http://www.w3.org/1999/xlink" xmlns:sketch="http://www.bohemiancoding.com/sketch/ns">
    <!-- Generator: Sketch 3.3.3 (12072) - http://www.bohemiancoding.com/sketch -->
    <title>蓝色光标</title>
    <desc>Created with Sketch.</desc>
    <defs></defs>
    <g id="website" stroke="none" stroke-width="1" fill="none" fill-rule="evenodd" sketch:type="MSPage">
        <g id="首页-2015-09-22" sketch:type="MSArtboardGroup" transform="translate(-265.000000, -3627.000000)" fill="#0D6EAD">
            <g id="Group" sketch:type="MSLayerGroup" transform="translate(0.000000, 3233.000000)">
                <g id="Rectangle-191-Copy-4-+-Imported-Layers" transform="translate(216.000000, 370.000000)" sketch:type="MSShapeGroup">
                    <path d="M111.498512,33.5410331 L110.278095,30.3397782 L108.560425,31.6255582 L108.560425,24 L113.627749,30.0334753 L111.260271,30.0334753 L112.42962,33.1607502 C112.526128,33.4302795 112.392834,33.7168977 112.126031,33.8105623 C111.856414,33.9014149 111.598049,33.7454513 111.498512,33.5410331 Z M56.8918087,38.0929627 L59.1571523,38.0929627 C60.3920664,38.0929627 61.2917988,37.8716718 61.8539693,37.4260616 C62.4245788,36.9748272 62.6742881,36.285213 62.6061265,35.3630595 C62.5609019,34.7329321 62.2969111,34.2617967 61.8115576,33.9496533 C61.3344268,33.6318856 60.6417757,33.4700815 59.7362009,33.4700815 L57.857106,33.4700815 L56.8918087,38.0929627 Z M55.1431946,46.2461147 L57.808852,46.2461147 C59.0634572,46.2461147 60.000408,45.9962702 60.6192716,45.4998258 C61.2407317,45.0031652 61.5161909,44.2795894 61.4480294,43.3288823 C61.3941493,42.6107144 61.1243162,42.0887448 60.6389627,41.7707608 C60.1620482,41.4417448 59.407078,41.2771286 58.3764321,41.2771286 L56.1933152,41.2771286 L55.1431946,46.2461147 L55.1431946,46.2461147 Z M49,49.682721 L53.2069739,30.0334753 L61.2721077,30.0334753 C63.3926891,30.0334753 65.0106062,30.4165702 66.1234787,31.1799481 C67.2391642,31.9348896 67.8495887,33.0841745 67.9657879,34.6308312 C68.0681384,36.041209 67.6877321,37.1537202 66.8217559,37.9594959 C65.955996,38.7598637 64.5906013,39.2736133 62.7255715,39.5061526 L62.6801305,39.6396193 C63.9604856,39.8693465 64.9426611,40.3320456 65.6353122,41.0244719 C66.3249339,41.7082456 66.7111827,42.6137428 66.7934093,43.7431267 C66.9325454,45.6417289 66.3534969,47.1087814 65.0504212,48.1388764 C63.758814,49.1689714 61.8284357,49.682721 59.2623158,49.682721 L49,49.682721 Z M68.7350396,49.682721 L72.9424463,30.0334753 L78.2081962,30.0334753 L73.9981929,49.682721 L68.7350396,49.682721 Z M95.4480905,35.9901585 L93.3019756,46.1383895 C93.2820681,46.2374621 93.2480955,46.3964541 93.2026544,46.6179613 C92.9442897,47.8098603 92.7739941,48.831519 92.6945804,49.682721 L87.4457086,49.682721 L87.8685266,47.659521 C87.1306508,48.4938503 86.3810902,49.0982362 85.6174645,49.4698664 C84.8622778,49.8330603 83.999331,50.0147654 83.0314371,50.0147654 C81.8218401,50.0147654 80.8398811,49.6969978 80.0818814,49.055622 C79.3351338,48.4170583 78.9207549,47.5515795 78.8413413,46.4589693 C78.8186207,46.1667269 78.8127783,45.8742682 78.8300892,45.5792136 C78.8497803,45.2869712 78.8924083,45.0059773 78.9519144,44.7420722 L80.8567592,35.9901585 L86.1199125,35.9901585 L84.3513908,44.2198863 C84.2918847,44.4866035 84.2492567,44.7591611 84.2263198,45.0343146 C84.2010026,45.3010318 84.1953766,45.5480642 84.2122547,45.7808198 C84.2349752,46.0814985 84.3825504,46.3397794 84.6551966,46.5526339 C84.9304394,46.7654885 85.2569656,46.8732137 85.640185,46.8732137 C86.4209052,46.8732137 87.0566468,46.5753471 87.5450297,45.9793975 C88.0360093,45.3750117 88.4136026,44.4156519 88.6804063,43.1017508 L90.2104708,35.9901585 L95.4480905,35.9901585 Z M101.985973,43.9021186 C101.951784,44.194361 101.931876,44.4669187 101.923437,44.7137349 C101.914998,44.9549268 101.917811,45.1621571 101.931876,45.3408338 C101.977317,45.9880502 102.176176,46.4873066 102.51958,46.8336279 C102.866014,47.1712966 103.334273,47.3387249 103.930416,47.3387249 C104.523746,47.3387249 105.003474,47.1598319 105.369599,46.8052906 C105.73594,46.450533 105.968555,45.9367834 106.068092,45.261446 L110.854331,45.261446 C110.550525,46.8137269 109.80962,47.9971897 108.634212,48.8031817 C107.45902,49.6117694 105.894767,50.0147654 103.938855,50.0147654 C101.886435,50.0147654 100.262676,49.5267574 99.0619508,48.5503087 C97.8696647,47.5742926 97.2109861,46.1978763 97.0805055,44.4212761 C96.8844599,41.7567003 97.4920714,39.631183 98.9029072,38.0391001 C100.322398,36.4498292 102.320938,35.6550856 104.898527,35.6550856 C106.834531,35.6550856 108.367408,36.1404979 109.494346,37.1080776 C110.632752,38.0674374 111.265897,39.4209243 111.393565,41.1719992 C111.419098,41.5522821 111.416285,41.9609023 111.37647,42.3950477 C111.336871,42.8322216 111.263084,43.3345065 111.152294,43.9021186 L101.985973,43.9021186 Z M102.417446,41.2771286 L106.897066,41.2771286 C106.916974,41.064274 106.928226,40.8598558 106.931039,40.6640901 C106.933852,40.4681082 106.931039,40.3093325 106.9226,40.1845184 C106.877159,39.5829447 106.686956,39.1146213 106.354803,38.785389 C106.028277,38.4505324 105.588365,38.280292 105.037663,38.280292 C104.415986,38.280292 103.887788,38.5299202 103.453502,39.0265809 C103.027654,39.5232415 102.68425,40.2751546 102.417446,41.2771286 Z M125.769159,30.7685158 L121.292569,30.7685158 L119.560833,38.9415688 L120.940509,38.9415688 C122.237742,38.9415688 123.381774,37.7637303 124.369792,35.4054574 L124.525806,35.0593524 L125.394595,35.0593524 L123.620231,43.4279548 L122.737377,43.4279548 C122.734564,43.3544075 122.731751,43.2436539 122.726125,43.0961266 C122.657747,40.8144295 121.98219,39.6737972 120.701835,39.6707688 L119.404818,39.6707688 L117.437438,48.9478968 L119.813355,48.9478968 L119.657341,49.6799089 L112.367301,49.6799089 L112.520502,48.9478968 L114.414095,48.9478968 L118.269009,30.7685158 L116.375633,30.7685158 L116.526021,30.0334753 L130.487237,30.0334753 L129.198442,36.1376858 L128.301523,36.1376858 C128.270147,35.760215 128.233361,35.2436533 128.187704,34.5910291 C128.011782,32.0426148 127.43836,30.7685158 126.473062,30.7685158 L125.769159,30.7685158 Z M134.543822,35.4876573 C133.431166,35.4876573 132.51131,36.0269322 131.78447,37.1054819 C131.060659,38.1807868 130.433356,39.9714475 129.902562,42.4746519 C129.371551,44.9689873 129.24107,46.7626764 129.505061,47.8580987 C129.771865,48.9448684 130.461703,49.4869553 131.577389,49.4869553 C132.6987,49.4869553 133.624182,48.9478968 134.350806,47.8721592 C135.077646,46.7853895 135.707762,44.9891046 136.241586,42.4746519 C136.769351,39.9714475 136.902861,38.1807868 136.633244,37.1054819 C136.363411,36.0269322 135.667947,35.4876573 134.543822,35.4876573 Z M134.671706,34.8947362 C136.428976,34.8947362 137.746117,35.6126878 138.620532,37.0485908 C139.494731,38.4844939 139.699215,40.2922436 139.236366,42.4746519 C138.776546,44.6455954 137.797184,46.4589693 136.301092,47.9147734 C134.816468,49.3593291 133.201148,50.0800928 131.449721,50.0800928 C129.701107,50.0800928 128.395002,49.3621412 127.529242,47.9290502 C126.666295,46.4816824 126.467436,44.6654965 126.933099,42.4746519 C127.395732,40.2922436 128.358216,38.4844939 129.822932,37.0485908 C131.296303,35.6126878 132.911624,34.8947362 134.671706,34.8947362 Z M152.890963,35.7913645 L151.80384,40.9139347 L151.017494,40.9139347 C151.008839,40.7292011 151.000183,40.462484 150.994557,40.1135669 C150.926612,37.0485908 150.333282,35.516211 149.22041,35.516211 C148.039376,35.516211 147.020415,36.1234089 146.154655,37.3380211 C145.288679,38.5526334 144.607279,40.340482 144.107861,42.6959427 C143.642199,44.8867873 143.574037,46.5242966 143.906189,47.6110663 C144.241155,48.6865875 144.973621,49.2258624 146.106401,49.2258624 C147.19071,49.2258624 148.150165,48.8057774 148.981952,47.968636 C149.81374,47.1230582 150.443855,45.9311592 150.872732,44.3929388 L151.451781,44.3929388 C151.077,46.1156764 150.330469,47.4949048 149.206345,48.5362482 C148.096285,49.5665595 146.801865,50.0800928 145.331307,50.0800928 C143.645012,50.0800928 142.410097,49.3904786 141.626564,48.0112502 C140.843247,46.6292097 140.681174,44.8413611 141.14965,42.6392681 C141.643659,40.3121446 142.651368,38.4390677 144.175806,37.0202535 C145.711713,35.6042515 147.483048,34.8947362 149.490026,34.8947362 C150.114732,34.8947362 150.719315,34.974124 151.303989,35.1303039 C151.897319,35.2862675 152.425301,35.5077747 152.890963,35.7913645 Z M155.039891,35.2949201 L159.278241,35.2949201 L156.970269,46.1751632 C156.768814,47.1314945 156.780066,47.8580987 157.007271,48.3547594 C157.23426,48.8427674 157.665733,49.0867714 158.301691,49.0867714 C159.184546,49.0867714 159.962453,48.6554381 160.635197,47.7899593 C161.313783,46.9244805 161.821857,45.7098683 162.154009,44.1461227 L163.879903,35.9985948 L161.850203,35.9985948 L161.997778,35.2949201 L166.721482,35.2949201 L163.826022,48.9478968 L165.347431,48.9478968 L165.191417,49.6799089 L161.117737,49.6799089 L161.654158,47.1399308 C161.217058,48.0423996 160.604037,48.7605675 159.817691,49.2940018 C159.034158,49.8189998 158.196528,50.0800928 157.302422,50.0800928 C155.894399,50.0800928 154.977572,49.6941857 154.551724,48.9221552 C154.137129,48.1388764 154.174131,46.6121207 154.653859,44.3390762 L156.42238,35.9985948 L154.889503,35.9985948 L155.039891,35.2949201 Z M180,35.7913645 L179.11152,39.9887528 L178.031105,39.9887528 C177.997132,39.6396193 177.954721,39.1741081 177.912093,38.5952475 C177.735955,36.5235928 176.977955,35.4876573 175.64372,35.4876573 C174.641853,35.4876573 173.784316,35.7091645 173.074571,36.1517463 C172.365041,36.5832959 171.936381,37.1537202 171.785776,37.8632355 C171.584321,38.8022616 172.492709,39.7276598 174.511156,40.6385649 C175.107299,40.905282 175.578588,41.1209487 175.919179,41.288377 C177.196721,41.9042276 178.0482,42.5341387 178.474047,43.1783266 C178.911363,43.8140782 179.03189,44.5858923 178.840172,45.4970137 C178.562116,46.8052906 177.767331,47.8948724 176.458629,48.7690038 C175.149927,49.6431352 173.61402,50.0800928 171.845499,50.0800928 C170.823508,50.0800928 169.898026,49.9468423 169.071865,49.6799089 C168.254359,49.4045391 167.641338,49.0272846 167.226743,48.5477129 L168.16088,44.1461227 L169.347324,44.1461227 C169.358793,46.7029733 169.520433,48.232541 169.83852,48.7292017 C170.167643,49.2174261 170.863323,49.4614301 171.922099,49.4614301 C172.952745,49.4614301 173.869572,49.1689714 174.675826,48.5903271 C175.47905,48.0112502 175.970246,47.3019512 176.146168,46.4645935 C176.288333,45.8007208 176.174731,45.2499813 175.808389,44.8073995 C175.442265,44.3646014 174.499688,43.8140782 172.983905,43.1499892 C171.127314,42.3498378 169.969001,41.6686599 169.509181,41.1068882 C169.049361,40.5362476 168.907412,39.8325729 169.086146,38.9954314 C169.338885,37.8091566 170.099698,36.8273 171.365771,36.0552695 C172.637471,35.2806433 174.164722,34.8947362 175.950555,34.8947362 C176.623299,34.8947362 177.304481,34.974124 177.999945,35.1303039 C178.692597,35.2862675 179.361229,35.5077747 180,35.7913645 Z M77.7496045,61.567247 L77.9477577,60.6990568 L82.1298208,60.6990568 L81.9314686,61.5817169 L83.0546934,61.5817169 L83.2522128,60.6990568 L86.8653923,60.6990568 L87.0698125,59.7729872 L83.4594461,59.7729872 L83.6893457,58.7456287 L82.5687971,58.7456287 L82.3379281,59.7729872 L78.1744843,59.7729872 L78.4089522,58.7456287 L77.2884036,58.7456287 L77.0529662,59.7729872 L73.5194161,59.7729872 L73.3044375,60.6990568 L76.8407409,60.6990568 L76.6417798,61.567247 L77.7496045,61.567247 Z M81.5147285,62.9563515 C81.7005996,62.6090753 81.9083036,62.2328596 82.0972908,61.8711136 L81.0656315,61.6685359 C80.3225328,63.1878689 79.2796983,64.6637923 78.1614953,65.6477413 C78.4098547,65.7779698 78.7888131,66.0818364 78.9535701,66.2410046 C79.6193176,65.6188016 80.3115003,64.8084907 80.9211279,63.8824211 L85.5768753,63.8824211 L85.7817504,62.9563515 L81.5147285,62.9563515 Z M82.4912777,64.0994686 L81.5027475,64.5190939 C82.0437859,65.2715255 82.5268392,66.3567633 82.66219,67.0657854 L83.7144609,66.5738109 C83.5477878,65.8647888 83.0480595,64.8519002 82.4912777,64.0994686 Z M76.9482605,66.9066171 L78.0727087,61.9724025 L76.9491152,61.9724025 L75.8200108,66.9066171 L76.9482605,66.9066171 Z M75.081158,62.464377 L74.0032943,62.464377 L73.0598427,66.5448712 L74.1413987,66.5448712 L75.081158,62.464377 Z M76.2824149,68.2667819 L75.7442208,70.6253654 L73.6047315,70.6253654 L74.147133,68.2667819 L76.2824149,68.2667819 Z M78.8914406,70.6253654 L76.7519513,70.6253654 L77.2881637,68.2667819 L79.4234456,68.2667819 L78.8914406,70.6253654 Z M82.0696675,70.6253654 L79.8836676,70.6253654 L80.4137212,68.2667819 L82.5954223,68.2667819 L82.0696675,70.6253654 Z M83.9022038,67.3985916 L73.2799235,67.3985916 L72.5349869,70.6253654 L70.8295968,70.6253654 L70.6111255,71.5659049 L84.6062903,71.5659049 L84.8137951,70.6253654 L83.1859228,70.6253654 L83.9022038,67.3985916 Z M101.947987,62.7248341 L97.8820123,62.7248341 C98.5830801,62.1749802 99.2927296,61.5817169 99.9155917,60.9595139 L103.929406,60.9595139 C103.357794,61.567247 102.61979,62.2328596 101.947987,62.7248341 Z M102.036344,66.2410046 L102.557569,63.7232529 L106.241593,63.7232529 L105.728146,66.2410046 L102.036344,66.2410046 Z M101.447738,63.7232529 L100.924169,66.2410046 L97.371389,66.2410046 L97.9024432,63.7232529 L101.447738,63.7232529 Z M96.6511087,69.6558863 L97.1546945,67.2683631 L105.518636,67.2683631 L105.388799,67.9050359 L106.517991,67.9050359 L107.569505,62.7248341 L103.334115,62.7248341 C104.201013,62.0302818 105.078426,61.2055011 105.773916,60.4385997 L105.12478,59.9321554 L104.882393,59.9900347 L100.841118,59.9900347 C101.107392,59.6716983 101.35518,59.3678317 101.605892,59.0494953 L100.668316,58.6877493 C99.2012992,60.6267076 96.9514611,62.3920278 94.8597773,63.4627958 C94.9922232,63.708783 95.2203364,64.2296972 95.2604651,64.4756844 C95.7877939,64.1718178 96.317958,63.8534814 96.8447253,63.4772656 L95.5388212,69.6414165 C95.1862884,71.3054478 95.8608154,71.7106032 98.2970746,71.7106032 L104.255823,71.7106032 C106.583459,71.7106032 107.180453,71.0594606 107.896445,68.8166357 C107.567571,68.7587564 107.135396,68.5995881 106.876506,68.4259501 C106.306473,70.3214988 105.991754,70.7266543 104.456773,70.7266543 L98.4253843,70.7266543 C96.75086,70.7266543 96.4710386,70.5096067 96.6511087,69.6558863 Z M126.853697,62.8261229 L127.751412,63.2168085 C128.635813,62.4354373 129.799401,61.2199709 130.716664,60.1636728 L129.628953,59.7295777 C128.926902,60.6990568 127.743879,62.015812 126.853697,62.8261229 Z M120.481146,59.6861681 L119.482429,60.1636728 C120.128281,61.1186821 120.847365,62.4209675 121.107888,63.2312784 L122.201623,62.6669547 C121.891691,61.8711136 121.148323,60.6122378 120.481146,59.6861681 Z M125.414022,70.1189211 L126.352203,65.0978874 L130.657757,65.0978874 L130.848666,64.0560591 L124.835402,64.0560591 L125.838001,58.7311589 L124.656067,58.7311589 L123.648167,64.0560591 L117.604066,64.0560591 L117.401589,65.0978874 L121.61455,65.0978874 C120.851281,67.9629153 119.839003,70.0176322 116.038537,71.0739304 C116.260024,71.290978 116.504362,71.7106032 116.587903,72 C120.70827,70.7411241 121.898025,68.3970104 122.802822,65.0978874 L125.210228,65.0978874 L124.264526,70.1333909 C124.038971,71.3343875 124.317842,71.6671937 125.72989,71.6671937 L128.11951,71.6671937 C129.221218,71.6671937 129.639448,71.2475684 130.041255,69.8150545 C129.713671,69.7427053 129.262657,69.5835371 129.046753,69.4098991 C128.793126,70.4517274 128.665495,70.6398353 128.215887,70.6398353 L126.045364,70.6398353 C125.425215,70.6398353 125.330207,70.5674861 125.414022,70.1189211 Z M146.928116,59.8453364 L146.755555,60.858225 L153.413922,60.858225 L153.580813,59.8453364 L146.928116,59.8453364 Z M143.479982,63.173399 L143.544985,62.7971832 L145.531889,62.7971832 L145.705209,61.7842946 L143.719994,61.7842946 L144.24502,58.7456287 L143.109122,58.7456287 L142.581189,61.7842946 L140.257411,61.7842946 L140.079456,62.7971832 L142.158774,62.7971832 C141.353053,64.5914431 139.990408,66.6461601 138.825909,67.7313979 C138.981168,67.991855 139.214337,68.4259501 139.300293,68.7298167 C140.233615,67.8182169 141.238197,66.3133538 142.063312,64.7650812 L140.816385,71.9421206 L141.964907,71.9421206 L143.264972,64.4178051 C143.651737,65.1268271 144.130318,66.023957 144.297958,66.4869918 L145.123789,65.6332714 C144.894892,65.2570556 143.852396,63.6943132 143.479982,63.173399 Z M143.650516,69.9886926 C143.894091,70.1044513 144.291518,70.4083179 144.4683,70.5530162 C145.492607,69.4533086 146.551617,67.7748074 147.312555,66.1107761 L146.299186,65.8937285 C145.636379,67.4275313 144.675908,68.9758039 143.650516,69.9886926 Z M153.83242,63.2746879 L145.681309,63.2746879 L145.508186,64.2875765 L148.792991,64.2875765 L147.736917,70.5674861 C147.705284,70.755594 147.63596,70.7990035 147.400937,70.8134733 C147.19692,70.8279431 146.483636,70.8279431 145.682231,70.7990035 C145.767751,71.1173399 145.859835,71.5803747 145.852408,71.8987111 C146.938809,71.8987111 147.655161,71.8842413 148.123686,71.6816636 C148.602737,71.5080255 148.780085,71.1896891 148.881705,70.5819559 L149.934191,64.2875765 L153.666223,64.2875765 L153.83242,63.2746879 Z M151.597114,70.5674861 L152.72378,70.22021 C152.648095,69.0770928 152.190065,67.2538932 151.677925,65.8647888 L150.674792,66.1397157 C151.165729,67.5577598 151.566447,69.4388387 151.597114,70.5674861 Z" id="蓝色光标"></path>
                </g>
            </g>
        </g>
    </g>
</svg>