<?xml version="1.0" encoding="UTF-8" standalone="no"?>
<svg width="115px" height="35px" viewBox="0 0 115 35" version="1.1" xmlns="http://www.w3.org/2000/svg" xmlns:xlink="http://www.w3.org/1999/xlink" xmlns:sketch="http://www.bohemiancoding.com/sketch/ns">
    <!-- Generator: Sketch 3.3.3 (12072) - http://www.bohemiancoding.com/sketch -->
    <title>功夫熊</title>
    <desc>Created with Sketch.</desc>
    <defs></defs>
    <g id="website" stroke="none" stroke-width="1" fill="none" fill-rule="evenodd" sketch:type="MSPage">
        <g id="首页-2015-09-22" sketch:type="MSArtboardGroup" transform="translate(-1052.000000, -3633.000000)" fill="#EFC185">
            <g id="Group" sketch:type="MSLayerGroup" transform="translate(0.000000, 3233.000000)">
                <g id="Rectangle-191-Copy-7-+-Imported-Layers" transform="translate(996.000000, 370.000000)" sketch:type="MSShapeGroup">
                    <g id="功夫熊" transform="translate(53.000000, 25.000000)">
                        <g id="Fill-1-+-Fill-2" transform="translate(19.666667, 23.000000) rotate(8.000000) translate(-19.666667, -23.000000) translate(2.306667, 5.620690)">
                            <path d="M0.00442477458,10.867775 C0.00442477458,10.867775 0.791514087,11.3418512 3.07365664,9.0501343 C3.07365664,9.0501343 6.30035843,6.44245372 6.53643317,6.20541561 C6.53643317,6.20541561 9.92060488,5.73133938 11.7308582,9.36635935 C11.7308582,9.36635935 12.2816125,12.2900036 9.84200006,12.9221924 C9.84200006,12.9221924 9.84200006,18.1375535 10.5502243,18.9278548 C10.5502243,18.9278548 12.2816125,17.6634773 12.753762,16.873176 C12.753762,16.873176 13.8555309,17.1894011 13.3047766,20.1922323 C13.3047766,20.1922323 10.2355447,26.5138584 10.3927544,27.5411978 C10.3927544,27.5411978 9.92060488,29.8326534 8.66136609,30.1488784 C8.66136609,30.1488784 5.98567888,30.3069909 5.19858956,29.5166897 C5.19858956,29.5166897 3.86074596,28.015274 3.07365664,28.015274 C3.07365664,28.015274 2.60150717,27.4620109 2.83758191,27.1460472 C2.83758191,27.1460472 6.06116033,25.4075935 6.73164381,23.1158766 C6.73164381,23.1158766 6.53643317,16.6361379 5.82820896,16.3201742 C5.82820896,16.3201742 1.26366356,15.2139093 0.791514087,12.6851543 C0.791514087,12.6851543 0.634044169,11.5788893 0.00442477458,10.867775" id="Fill-1"></path>
                            <path d="M17.108521,6.18503085 C17.108521,6.18503085 14.5903037,4.12460254 15.3771328,1.17430127 C15.3771328,1.17430127 16.3740085,0.542112523 17.7907172,0.594903811 C17.7907172,0.594903811 23.3521382,1.27988385 24.611377,3.96649002 C24.611377,3.96649002 25.2409964,5.34821053 24.2441207,6.18503085 C24.2441207,6.18503085 23.9541679,7.07464247 24.8073685,6.81120871 C24.8073685,6.81120871 25.3982061,5.5996225 30.0679049,7.7596225 C30.0679049,7.7596225 33.9505145,9.81403993 33.0059552,12.1321525 C33.0059552,12.1321525 32.9010621,12.3427949 32.5863825,12.7640799 C32.5863825,12.7640799 31.7204281,12.9749837 32.1928378,15.3981561 C32.1928378,15.3981561 33.3732115,25.9211325 31.5632184,28.1733866 C31.5632184,28.1733866 31.7204281,28.8709111 29.123606,30.1616842 C29.123606,30.1616842 27.1558827,31.4527187 26.5262633,32.1243702 C26.5262633,32.1243702 25.2277221,32.6776334 23.4963338,31.4527187 C23.4963338,31.4527187 20.9781165,30.1883412 20.0335573,28.5685372 C20.0335573,28.5685372 19.5221054,27.1065844 19.2467283,26.9484719 C19.2467283,26.9484719 18.7350161,26.6325082 18.6171089,27.501735 C18.6168486,27.501735 17.0036278,31.8084065 14.5640154,32.9146715 C14.5640154,32.9146715 11.6912956,34.6531252 11.1012388,33.5071361 C11.1012388,33.5071361 10.9044665,32.4008711 11.7308582,32.0059819 C11.7308582,32.0059819 13.7376237,29.7537278 14.0523032,27.3041597 C14.0523032,27.3041597 16.8461579,16.873176 16.7282507,15.0952595 C16.7282507,15.0952595 15.9411614,14.3052196 15.3904071,14.1865699 C15.3904071,14.1865699 13.4557395,13.1592305 13.4588629,12.3294664 C13.4588629,12.3294664 12.9898367,11.0256261 13.6194561,10.7096624 C13.6194561,10.7096624 16.8068555,9.40582214 17.3183074,8.77363339 C17.3183074,8.77363339 17.3565687,6.41605808 17.108521,6.18503085 Z M22.7488072,11.894853 C22.7488072,11.894853 25.1098149,10.2355862 25.6605692,10.1563993 C25.6605692,10.1563993 26.2901886,9.91936116 26.2901886,12.6062287 L26.2901886,24.143216 C26.2901886,24.143216 26.1329789,26.0397822 25.4244944,26.1187078 C25.4244944,26.1187078 22.0403227,27.1460472 20.3089345,26.671971 C20.3089345,26.671971 19.6007102,26.4743956 19.3253331,26.0397822 C19.3253331,26.0397822 23.1423519,16.873176 22.7488072,11.894853 Z" id="Fill-2"></path>
                        </g>
                        <path d="M58.2136641,12.6866707 C58.2136641,12.6866707 58.8695719,10.6583876 58.2136641,8.64317163 C58.2136641,8.64317163 56.4955502,6.628217 57.4005467,5.87763987 C57.4005467,5.87763987 57.951301,4.70551645 59.3680097,5.28491391 C59.3680097,5.28491391 62.0962736,5.86431137 62.4898183,6.15414077 C62.4898183,6.15414077 64.2212066,6.91517163 64.1163134,8.90529867 C64.1163134,8.90529867 63.8539503,11.5801444 63.8013735,11.9488994 C63.8013735,11.9488994 64.7459328,12.1861988 65.5067337,11.5012188 C65.5067337,11.5012188 66.5296375,10.6845219 67.5528015,11.6593313 C67.5528015,11.6593313 69.9663859,13.5556362 70.2810655,13.7137488 C70.2810655,13.7137488 71.3828344,14.7674838 71.0941829,15.4785981 C71.0941829,15.4785981 70.3073539,16.8482969 69.6251577,16.9272224 C69.6251577,16.9272224 63.9325551,17.5332769 63.5652988,17.5068812 L63.4604056,19.9300537 C63.4604056,19.9300537 69.4679481,19.8775237 69.3627946,19.2189393 C69.3627946,19.2189393 70.162898,18.9291099 71.5796067,20.5622424 C71.5796067,20.5622424 74.1504007,22.3006961 74.1110983,23.1832515 C74.1110983,23.1832515 74.3208847,24.2895165 72.7732547,24.9875636 L64.8245376,24.9875636 C64.8245376,24.9875636 66.3461395,26.9102642 67.2118336,28.5697923 C67.2118336,28.5697923 70.5434286,33.627041 74.347173,35.0231353 C74.347173,35.0231353 75.9473797,35.4710773 76.0785613,37.0250228 C76.0785613,37.0250228 74.9767924,38.3816544 73.2847066,38.6317596 C73.2847066,38.6317596 69.2841898,38.6056253 68.0512394,38.3683259 C68.0512394,38.3683259 65.454157,35.9976834 65.1917939,34.5490591 L63.8802386,32.2573422 C63.8802386,32.2573422 61.8076222,29.4654148 60.8370349,28.2010373 C60.8370349,28.2010373 57.4268351,35.6027941 55.4330837,36.9724929 C55.4330837,36.9724929 53.4656207,38.4736471 51.2357946,38.8951934 C51.2357946,38.8951934 49.8716626,38.5792297 49.3992529,38.236609 C49.3992529,38.236609 48.6384519,37.5254947 50.868278,35.8398322 C50.868278,35.8398322 53.8851934,29.9130954 54.8820691,29.2019811 C54.8820691,29.2019811 56.0887312,26.7785473 56.1936244,26.5943005 C56.1936244,26.5943005 54.6722827,27.8058867 52.652243,27.0947724 C52.652243,27.0947724 50.9734315,26.6996217 49.7141927,25.3827143 C49.7141927,25.3827143 48.0614093,23.6178649 47.7727578,23.1963186 C47.7727578,23.1963186 47.0382452,21.77409 48.4812423,21.8530155 C48.4812423,21.8530155 52.1538052,21.9583368 54.9609342,21.1680355 L57.1118952,20.7467506 L57.6103331,17.8228449 L55.1707206,17.9545618 C55.1707206,17.9545618 53.3867556,17.1117306 53.2292857,17.1117306 C53.2292857,17.1117306 52.3112751,16.2688994 52.1800935,15.610315 C52.1800935,15.610315 51.104613,14.135295 50.7633848,13.76654 C50.7633848,13.76654 50.3701005,12.9762388 51.4192926,13.0026344 C51.4192926,13.0026344 53.7277235,13.1343513 58.2136641,12.6866707" id="Fill-4"></path>
                        <g id="Group" transform="translate(101.951129, 22.853645) rotate(-14.000000) translate(-101.951129, -22.853645) translate(85.951129, 3.853645)">
                            <path d="M5.62239184,10.1128421 C5.62239184,10.1128421 5.42561951,8.21627586 5.62239184,7.82112523 C5.62239184,7.82112523 5.18954477,7.18893648 10.2655421,5.05533212 C10.2655421,5.05533212 11.6036459,4.8972196 12.6661124,2.52657713 C12.6661124,2.52657713 12.980792,1.02516152 14.5154079,0.827586207 C14.5154079,0.827586207 16.561736,-0.160029038 18.292864,3.63310345 C18.292864,3.63310345 19.7884378,6.59621053 15.1057249,7.54462432 C15.1057249,7.54462432 17.1124903,7.62354991 17.7814121,7.42597459 C17.7814121,7.42597459 18.0963519,6.1221343 18.8045761,6.28024682 C18.8045761,6.28024682 21.7163381,6.67539746 21.7952032,9.40146642 C21.7952032,9.40146642 22.3066551,12.2859093 20.3784945,12.5624102 C20.3784945,12.5624102 18.883181,12.601873 17.6635049,11.9696842 C17.6635049,11.9696842 14.2793332,11.6931833 13.3350342,12.0486098 C13.3347739,12.0486098 10.9344639,12.2461851 10.7376915,13.115412 C10.7376915,13.115412 10.5016168,13.6292123 10.6197843,14.024363 C10.6197843,14.024363 11.1707989,15.0119782 10.9740265,15.960392 C10.9740265,15.960392 13.0200944,16.5133938 13.1382619,16.5133938 C13.2561691,16.5133938 13.4529414,15.7230926 13.2954715,15.5257786 C13.2954715,15.5255172 10.9344639,14.9725154 10.9740265,14.3008639 C10.9740265,14.3008639 10.6197843,13.5105626 11.2101013,13.5105626 C11.2101013,13.5105626 12.2725677,13.0759492 13.0593968,13.1945989 C13.0593968,13.1945989 13.1908386,13.2340617 13.6957835,12.6807985 C13.6957835,12.6807985 15.3024972,11.9696842 17.8602772,13.945176 C17.8602772,13.945176 19.906345,15.0119782 19.3948931,16.5133938 C19.3948931,16.5133938 17.7814121,17.6196588 17.8207145,18.093735 C17.8207145,18.093735 16.8764156,20.3854519 16.6403408,25.6402759 C16.6403408,25.6402759 15.9060885,27.1022287 13.6957835,27.8530672 C13.6957835,27.8530672 11.2494037,27.8925299 10.423012,27.8530672 C10.423012,27.8530672 9.12447078,27.0627659 9.39984792,25.9565009 C9.39984792,25.9565009 8.6523213,25.2056624 8.80953094,24.5340109 C8.80953094,24.5340109 9.71478776,25.0080871 10.8165566,25.0080871 C10.8165566,25.0080871 11.9183255,23.743971 11.4854784,23.3093575 C11.4854784,23.3093575 10.3444072,23.4277459 9.87225768,23.4277459 C9.87225768,23.4277459 8.06200432,22.7560944 8.06200432,22.3609437 C8.06200432,22.3609437 7.19631018,23.2301706 8.25877664,24.1388603 C8.25877664,24.1388603 8.61301889,25.4824247 7.39308251,25.7983884 C7.39308251,25.7983884 5.54352674,25.8378512 4.75669771,24.7315862 C4.75669771,24.7315862 4.40245546,22.9536697 3.85170117,22.8744828 C3.85170117,22.8744828 3.57606374,22.2820181 4.40245546,21.4917169 C4.40245546,21.4917169 4.6385302,18.7259238 8.6523213,12.918098 C8.6523213,12.918098 5.77960148,12.8783739 5.62239184,10.1128421 Z M9.99016491,18.6469982 C9.99016491,18.6469982 10.3837096,19.4372995 8.69162371,20.701677 C8.69162371,20.701677 8.25903693,21.0965662 9.36080579,21.0965662 C9.36080579,21.0965662 11.4854784,20.8200653 12.1937026,20.3854519 C12.1937026,20.3854519 12.3118702,19.3581125 12.5086425,19.3975753 C12.5086425,19.3975753 11.4068736,19.2791869 9.99016491,18.6469982 Z" id="Fill-5"></path>
                            <path d="M22.5034274,7.26786207 L21.8566295,6.67539746 C21.8566295,6.67539746 21.7559008,5.17398185 22.5034274,4.30475499 C22.5034274,4.30475499 22.7001997,2.56630127 25.1005098,3.3563412 C25.1005098,3.3563412 26.9500656,3.75149183 27.6975922,5.88509619 C27.6975922,5.88509619 27.2254427,7.14947368 28.5632863,7.26786207 C28.5632863,7.26786207 31.1210663,6.67539746 31.947458,9.12496552 L31.947458,11.4561452 C31.947458,11.4561452 31.4753086,12.009147 31.2785362,12.0883339 C31.2785362,12.0883339 29.3240873,14.1822142 27.8550621,13.5764211 C27.8550621,13.5764211 26.569535,12.8917024 25.8089943,13.945176 C25.8089943,13.945176 25.3170635,14.3008639 27.7566759,14.1032886 C27.7566759,14.1032886 29.1143009,15.6836298 29.5864504,16.0787804 C29.5864504,16.0787804 30.0192974,17.8370962 28.4649002,18.390098 C28.4649002,18.390098 27.2254427,18.6075354 22.0903617,18.390098 C22.0903617,18.390098 20.1020762,17.7999855 20.6541319,14.9923775 C20.6541319,14.9923775 21.086979,13.3527114 21.1655838,13.1551361 C21.1655838,13.1551361 22.1887478,9.04603993 22.5034274,7.26786207" id="Fill-7"></path>
                            <path d="M19.5128004,19.5292922 C19.5128004,19.5292922 19.2374232,18.1334592 20.3391921,17.5407332 C20.3391921,17.5407332 21.7952032,17.3826207 23.1330468,20.108951 C23.1330468,20.108951 23.0937444,21.1757532 23.9201361,20.8331325 C23.9201361,20.8331325 24.9693282,20.1878766 25.4810404,20.0956225 C25.4810404,20.0956225 26.2811438,19.7796588 27.3436102,20.846461 C27.3436102,20.846461 28.8519378,22.2028312 28.8649518,22.3478766 C28.8649518,22.3478766 28.9045145,23.3618875 28.8649518,23.6253212 C28.8649518,23.6253212 27.5271082,25.0344828 25.9138875,25.3373793 L22.1494454,25.5877459 C22.1494454,25.5877459 21.7033241,25.8511797 22.1754735,25.9828966 C22.1754735,25.9828966 24.9430399,26.1143521 25.5729196,25.9828966 C25.5729196,25.9828966 26.4779161,25.7458584 26.8974888,25.877314 C26.8974888,25.877314 28.7600587,27.334824 28.7996213,27.8705771 C28.7996213,27.8705771 28.9131038,29.4070127 28.8826509,29.4861996 C28.8826509,29.4861996 28.0781228,30.5002105 27.5008199,30.658323 C27.5008199,30.658323 24.3922856,30.7897786 23.1723492,30.658323 L20.6145692,30.4343521 C20.6145692,30.4343521 19.3293024,30.2103811 19.0143625,29.5915209 C19.0143625,29.5915209 18.0570495,28.498323 18.0174868,27.7080218 C18.0174868,27.7080218 17.9914587,26.338323 17.9651704,25.139804 C17.9651704,25.139804 18.7652737,22.1633684 18.9880741,21.7946134 C18.9880741,21.7946134 19.5401298,19.7908966 19.5128004,19.5292922" id="Fill-8"></path>
                            <path d="M2.82853712,24.9490236 C3.37929141,25.1661996 4.48106028,26.193539 5.74029907,27.596167 C5.8092735,27.7738802 5.89776899,29.1569074 5.6419129,29.4927332 C5.6419129,29.4927332 4.78663001,31.3101125 3.80745342,31.744726 C3.80745342,31.744726 3.09402359,31.9423013 2.63176479,32.2585263 C2.44488313,32.3669837 1.41182841,32.3045227 0.677315831,30.5132777 C0.677315831,30.5132777 0.13957558,29.8152305 0.46752946,28.550853 C0.46752946,28.550853 1.83166143,25.9431724 2.4480065,25.139804 C2.4480065,25.139804 2.62187412,24.9291615 2.82853712,24.9490236" id="Fill-9"></path>
                            <path d="M7.47168733,28.6195862 C7.47168733,28.6195862 7.25539394,27.9868748 7.80614823,27.8705771 C7.80614823,27.8705771 8.75721449,27.5833612 9.55731784,28.2450817 C9.55731784,28.2450817 11.5117668,29.8416261 11.9183255,30.8953612 C11.9183255,30.8953612 12.3511726,31.4747586 12.2725677,32.4887695 C12.2725677,32.4887695 12.0625211,33.239608 10.7639799,33.5425045 C10.7639799,33.5425045 9.70151344,33.5689002 8.71791208,32.7391361 C8.71791208,32.7391361 7.81291554,31.3166461 7.64217129,30.8425699 C7.64217129,30.8425699 7.56356647,29.0962759 7.47168733,28.6195862" id="Fill-10"></path>
                            <path d="M14.1218632,31.3430417 C14.1218632,31.3430417 14.2137424,30.2631724 14.1218632,29.973343 C14.1218632,29.973343 13.8595001,29.3280871 14.1218632,29.091049 C14.1218632,29.091049 14.790785,28.6167114 16.9945831,29.8944174 C16.9943228,29.8944174 19.4734979,31.764588 19.8144659,33.2526751 C19.8144659,33.2526751 19.4867723,33.8059383 19.3816188,34.5170526 C19.3816188,34.5170526 19.0013485,35.228167 18.0570495,35.544392 C18.0570495,35.544392 16.6010384,35.5707877 16.3649637,35.4257423 C16.3649637,35.4257423 15.3941161,35.0703158 15.1580413,33.8454011 C15.1580413,33.8454011 14.2530448,32.4757024 14.1218632,31.3430417" id="Fill-11"></path>
                            <path d="M21.4802634,31.0401452 C21.4802634,31.0401452 21.9734956,30.3627441 22.7631877,30.6225191 C22.7631877,30.6225191 25.9138875,32.1992015 27.5666709,35.175637 C27.5666709,35.175637 27.8550621,36.6770526 26.7007165,37.8097132 C26.7007165,37.8097132 24.2085273,38.4944319 22.477139,35.9395426 C22.477139,35.9395426 22.634609,33.9640508 22.0575663,33.5425045 C22.0575663,33.5425045 21.4279469,32.1200145 21.4802634,31.0401452" id="Fill-12"></path>
                        </g>
                    </g>
                </g>
            </g>
        </g>
    </g>
</svg>