<?xml version="1.0" encoding="UTF-8" standalone="no"?>
<svg width="145px" height="24px" viewBox="0 0 145 24" version="1.1" xmlns="http://www.w3.org/2000/svg" xmlns:xlink="http://www.w3.org/1999/xlink" xmlns:sketch="http://www.bohemiancoding.com/sketch/ns">
    <!-- Generator: Sketch 3.3.3 (12072) - http://www.bohemiancoding.com/sketch -->
    <title>小牛</title>
    <desc>Created with Sketch.</desc>
    <defs></defs>
    <g id="website" stroke="none" stroke-width="1" fill="none" fill-rule="evenodd" sketch:type="MSPage">
        <g id="首页-2015-09-22" sketch:type="MSArtboardGroup" transform="translate(-518.000000, -3511.000000)">
            <g id="Group" sketch:type="MSLayerGroup" transform="translate(0.000000, 3233.000000)">
                <g id="Rectangle-191-Copy-+-Imported-Layers" transform="translate(476.000000, 242.000000)" sketch:type="MSShapeGroup">
                    <g id="小牛" transform="translate(42.000000, 36.000000)">
                        <path d="M28.223622,6.54514286 L25.0016535,0.958857143 C24.6568504,0.368 24.0163386,0 23.3312992,0 C22.9944882,0 22.6611024,0.0891428571 22.3676772,0.259428571 C21.4451575,0.792 21.1277559,1.97714286 21.6609449,2.90057143 C21.6632283,2.904 21.6643701,2.90742857 21.6666535,2.91085714 L22.3688189,4.128 C22.4418898,4.26171429 22.4784252,4.40685714 22.4784252,4.55428571 C22.4784252,5.04228571 22.0822441,5.43885714 21.5947244,5.43885714 L21.5741732,5.43885714 L6.90862205,5.43885714 L6.88807087,5.43885714 C6.40055118,5.43885714 6.00437008,5.04228571 6.00437008,4.55428571 C6.00437008,4.40685714 6.04204724,4.26057143 6.11169291,4.13142857 L6.815,2.912 C6.81728346,2.90857143 6.81956693,2.904 6.82070866,2.90057143 C7.07874016,2.45371429 7.14724409,1.93257143 7.01366142,1.43314286 C6.88007874,0.934857143 6.5603937,0.517714286 6.11397638,0.259428571 C5.82055118,0.0891428571 5.48716535,0 5.15035433,0 C4.46531496,0 3.82480315,0.368 3.48,0.958857143 L0.258031496,6.54514286 C-0.274015748,7.46857143 0.0433858268,8.65371429 0.965905512,9.18628571 C1.25933071,9.35657143 1.59271654,9.44571429 1.92952756,9.44571429 L1.94322835,9.44571429 L2.65224409,9.44571429 C2.71389764,9.44571429 3.25964567,9.464 3.61700787,10.0834286 L9.79606299,20.7702857 C9.79948819,20.7748571 9.80177165,20.7794286 9.80405512,20.784 C10.7048819,22.3874286 12.4037795,23.3828571 14.2385433,23.3828571 C16.0755906,23.3828571 17.7744882,22.3862857 18.675315,20.784 C18.6775984,20.7794286 18.6798819,20.776 18.6833071,20.7714286 L24.8635039,10.0834286 C25.2208661,9.464 25.7677559,9.44571429 25.8282677,9.44571429 L26.5361417,9.44571429 L26.5509843,9.44571429 C26.8877953,9.44571429 27.2211811,9.35657143 27.5146063,9.18628571 C27.9610236,8.928 28.2807087,8.51085714 28.4142913,8.01257143 C28.5501575,7.51314286 28.4816535,6.992 28.223622,6.54514286 L28.223622,6.54514286 Z M19.6024016,11.192 L15.2192913,18.792 C15.016063,19.1451429 14.6529921,19.3622857 14.2453937,19.3748571 L14.2408268,19.3748571 L14.2374016,19.3748571 C13.8286614,19.3634286 13.4644488,19.1451429 13.2623622,18.792 L8.87925197,11.192 C8.67145669,10.832 8.67031496,10.3851429 8.8769685,10.0262857 C9.08362205,9.66857143 9.46952756,9.44571429 9.88511811,9.44571429 L14.2408268,9.44571429 L18.5953937,9.44571429 C19.012126,9.44571429 19.3980315,9.66857143 19.604685,10.0274286 C19.8113386,10.3862857 19.8113386,10.832 19.6024016,11.192 L19.6024016,11.192 Z" id="Shape" fill="#DA0A28"></path>
                        <path d="M139.284488,3.97714286 C137.788819,3.97714286 136.379921,4.56228571 135.319252,5.624 L135.179961,5.76342857 L135.040669,5.624 C133.98,4.56228571 132.571102,3.97714286 131.075433,3.97714286 C127.981339,3.97714286 125.464961,6.49714286 125.464961,9.59314286 L125.464961,17.8 C125.464961,18.6308571 126.140866,19.3074286 126.970906,19.3074286 C127.800945,19.3074286 128.47685,18.6308571 128.47685,17.8 L128.47685,9.59428571 C128.47685,8.16 129.642559,6.99314286 131.075433,6.99314286 C132.508307,6.99314286 133.674016,8.16 133.674016,9.59428571 L133.674016,17.8011429 C133.674016,18.632 134.349921,19.3085714 135.179961,19.3085714 C136.01,19.3085714 136.685906,18.632 136.685906,17.8011429 L136.685906,9.59428571 C136.685906,8.16 137.851614,6.99314286 139.284488,6.99314286 C140.717362,6.99314286 141.883071,8.16 141.883071,9.59428571 L141.883071,17.8011429 C141.883071,18.632 142.558976,19.3085714 143.389016,19.3085714 C144.219055,19.3085714 144.894961,18.632 144.894961,17.8011429 L144.894961,9.59428571 C144.894961,6.49714286 142.377441,3.97714286 139.284488,3.97714286 L139.284488,3.97714286 Z" id="Shape" fill="#DA0A28"></path>
                        <path d="M102.494449,7.68342857 C102.731929,7.82971429 103.003661,7.90628571 103.281102,7.90628571 C103.809724,7.90628571 104.290394,7.63771429 104.565551,7.18742857 C104.999409,6.47885714 104.777913,5.54857143 104.070039,5.11428571 C102.860945,4.37142857 101.468031,3.97828571 100.042008,3.97828571 C95.7924803,3.97828571 92.3341732,7.43885714 92.3341732,11.6937143 C92.3341732,15.9485714 95.7913386,19.4091429 100.042008,19.4091429 C101.46689,19.4091429 102.859803,19.016 104.068898,18.2731429 C104.776772,17.8377143 104.999409,16.9085714 104.564409,16.2 C104.28811,15.7497143 103.807441,15.4811429 103.279961,15.4811429 C103.00252,15.4811429 102.730787,15.5577143 102.493307,15.704 C101.758031,16.1554286 100.909724,16.3942857 100.042008,16.3942857 C97.4525591,16.3942857 95.346063,14.2857143 95.346063,11.6937143 C95.346063,9.10171429 97.4525591,6.99314286 100.042008,6.99314286 C100.912008,6.992 101.759173,7.23085714 102.494449,7.68342857 L102.494449,7.68342857 Z" id="Shape" fill="#DA0A28"></path>
                        <path d="M115.125433,3.97714286 C110.875906,3.97714286 107.417598,7.43771429 107.417598,11.6925714 C107.417598,15.9474286 110.874764,19.408 115.125433,19.408 C119.374961,19.408 122.833268,15.9474286 122.833268,11.6925714 C122.833268,7.43771429 119.376102,3.97714286 115.125433,3.97714286 L115.125433,3.97714286 Z M115.125433,16.3931429 C112.535984,16.3931429 110.429488,14.2845714 110.429488,11.6925714 C110.429488,9.10057143 112.535984,6.992 115.125433,6.992 C117.714882,6.992 119.821378,9.10057143 119.821378,11.6925714 C119.821378,14.2845714 117.714882,16.3931429 115.125433,16.3931429 L115.125433,16.3931429 Z" id="Shape" fill="#DA0A28"></path>
                        <ellipse id="Oval" fill="#D90A28" cx="88.1063386" cy="17.4765714" rx="1.59956693" ry="1.60114286"></ellipse>
                        <g id="Group" transform="translate(42.244094, 3.428571)" fill="#D90A28">
                            <path d="M7.63248031,0.546285714 C3.87846457,0.546285714 0.825472441,3.60342857 0.825472441,7.36 L0.825472441,14.4514286 C0.825472441,15.2937143 1.50937008,15.9782857 2.35082677,15.9782857 C3.19228346,15.9782857 3.8761811,15.2937143 3.8761811,14.4514286 L3.8761811,7.36114286 C3.8761811,5.288 5.56137795,3.60114286 7.63248031,3.60114286 C9.70358268,3.60114286 11.3887795,5.288 11.3887795,7.36114286 L11.3887795,14.4525714 C11.3887795,15.2948571 12.0726772,15.9794286 12.9141339,15.9794286 C13.7555906,15.9794286 14.4394882,15.2948571 14.4394882,14.4525714 L14.4394882,7.36114286 C14.4406299,3.60342857 11.3864961,0.546285714 7.63248031,0.546285714 L7.63248031,0.546285714 Z" id="Shape"></path>
                            <path d="M40.1067717,0.546285714 C39.265315,0.546285714 38.5814173,1.23085714 38.5814173,2.07314286 L38.5814173,9.16457143 C38.5814173,11.2377143 36.8962205,12.9245714 34.8251181,12.9245714 C32.7540157,12.9245714 31.0688189,11.2377143 31.0688189,9.16457143 L31.0688189,2.07428571 C31.0688189,1.232 30.3849213,0.547428571 29.5434646,0.547428571 C28.7020079,0.547428571 28.0181102,1.232 28.0181102,2.07428571 L28.0181102,9.16571429 C28.0181102,12.9234286 31.0722441,15.9794286 34.8251181,15.9794286 C38.5791339,15.9794286 41.632126,12.9222857 41.632126,9.16571429 L41.632126,2.07428571 C41.632126,1.232 40.9482283,0.546285714 40.1067717,0.546285714 L40.1067717,0.546285714 Z" id="Shape"></path>
                            <path d="M21.2293701,0.546285714 C20.3879134,0.546285714 19.7040157,1.23085714 19.7040157,2.07314286 L19.7040157,14.352 C19.7040157,15.1942857 20.3879134,15.8788571 21.2293701,15.8788571 C22.0708268,15.8788571 22.7547244,15.1942857 22.7547244,14.352 L22.7547244,2.07428571 C22.7547244,1.232 22.069685,0.546285714 21.2293701,0.546285714 L21.2293701,0.546285714 Z" id="Shape"></path>
                        </g>
                    </g>
                </g>
            </g>
        </g>
    </g>
</svg>