<?xml version="1.0" encoding="UTF-8" standalone="no"?>
<svg width="154px" height="24px" viewBox="0 0 154 24" version="1.1" xmlns="http://www.w3.org/2000/svg" xmlns:xlink="http://www.w3.org/1999/xlink" xmlns:sketch="http://www.bohemiancoding.com/sketch/ns">
    <!-- Generator: Sketch 3.3.3 (12072) - http://www.bohemiancoding.com/sketch -->
    <title>teambition</title>
    <desc>Created with Sketch.</desc>
    <defs></defs>
    <g id="website" stroke="none" stroke-width="1" fill="none" fill-rule="evenodd" sketch:type="MSPage">
        <g id="首页-2015-09-22" sketch:type="MSArtboardGroup" transform="translate(-513.000000, -3639.000000)" fill="#3D3D3D">
            <g id="Group" sketch:type="MSLayerGroup" transform="translate(0.000000, 3233.000000)">
                <g id="Rectangle-191-Copy-5-+-Imported-Layers" transform="translate(476.000000, 370.000000)" sketch:type="MSShapeGroup">
                    <path d="M37,39.5793846 L41.4816923,38.8575385 L41.4816923,43.5195385 L46.8655385,43.5195385 L46.8655385,47.2492308 L41.4816923,47.2492308 L41.4816923,52.8135385 C41.4816923,53.7564615 41.6470769,54.5083077 41.9778462,55.0695385 C42.3087692,55.6312308 42.9752308,55.9118462 43.978,55.9118462 C44.4592308,55.9118462 44.9555385,55.8664615 45.4669231,55.7764615 C45.9781538,55.686 46.4444615,55.5610769 46.8655385,55.4004615 L47.4970769,58.8895385 C46.9558462,59.1103077 46.3543077,59.3006154 45.6924615,59.4610769 C45.0307692,59.6212308 44.2187692,59.7015385 43.2561538,59.7015385 C42.0329231,59.7015385 41.0201538,59.536 40.2183077,59.2052308 C39.416,58.8744615 38.7746154,58.4133846 38.2933846,57.8216923 C37.812,57.2304615 37.4761538,56.5132308 37.2856923,55.6712308 C37.0949231,54.8289231 37,53.8966154 37,52.8738462 L37,39.5793846 Z M49.1512308,51.5504615 C49.1512308,50.1472308 49.3666154,48.9186154 49.798,47.8658462 C50.2289231,46.8132308 50.7953846,45.936 51.4973846,45.234 C52.1990769,44.5323077 53.006,44.0009231 53.9187692,43.64 C54.8309231,43.2789231 55.7684615,43.0986154 56.7310769,43.0986154 C58.9766154,43.0986154 60.7510769,43.7855385 62.0547692,45.1589231 C63.358,46.5324615 64.01,48.5529231 64.01,51.2195385 C64.01,51.4803077 63.9995385,51.7661538 63.9796923,52.0767692 C63.9595385,52.3878462 63.9393846,52.6632308 63.9195385,52.9038462 L53.7532308,52.9038462 C53.8533846,53.8264615 54.2844615,54.5583077 55.0466154,55.0996923 C55.8084615,55.6409231 56.8310769,55.9118462 58.1146154,55.9118462 C58.9366154,55.9118462 59.7435385,55.8364615 60.5358462,55.686 C61.3276923,55.5356923 61.9744615,55.3506154 62.4758462,55.1296923 L63.0773846,58.7690769 C62.8367692,58.8895385 62.5156923,59.0096923 62.1149231,59.13 C61.7136923,59.2503077 61.2675385,59.3556923 60.7764615,59.4458462 C60.2849231,59.536 59.7586154,59.6112308 59.1973846,59.6715385 C58.6358462,59.7316923 58.0741538,59.7618462 57.5130769,59.7618462 C56.0890769,59.7618462 54.8510769,59.5510769 53.7984615,59.13 C52.7456923,58.7089231 51.8733846,58.1329231 51.1816923,57.4006154 C50.4898462,56.6687692 49.9784615,55.8016923 49.6476923,54.7989231 C49.3169231,53.7964615 49.1512308,52.7135385 49.1512308,51.5504615 Z M59.6786154,49.836 C59.6583077,49.4552308 59.5930769,49.0838462 59.4832308,48.7232308 C59.3727692,48.3621538 59.2021538,48.0415385 58.9716923,47.7606154 C58.7409231,47.4801538 58.4501538,47.2492308 58.0993846,47.0689231 C57.7484615,46.8883077 57.3123077,46.7981538 56.7912308,46.7981538 C56.2896923,46.7981538 55.8587692,46.8836923 55.4976923,47.0538462 C55.1369231,47.2243077 54.8361538,47.4498462 54.5955385,47.7304615 C54.3549231,48.0115385 54.1692308,48.3372308 54.0390769,48.708 C53.9083077,49.0793846 53.8133846,49.4552308 53.7532308,49.836 L59.6786154,49.836 Z M73.1535385,43.0986154 C74.4769231,43.0986154 75.5795385,43.2489231 76.4621538,43.5496923 C77.3441538,43.8504615 78.0510769,44.2818462 78.5824615,44.8430769 C79.1135385,45.4046154 79.4896923,46.0866154 79.7104615,46.8883077 C79.9309231,47.6906154 80.0413846,48.5832308 80.0413846,49.5652308 L80.0413846,58.8895385 C79.3993846,59.03 78.5073846,59.1953846 77.3644615,59.3856923 C76.2213846,59.5761538 74.8378462,59.6715385 73.2136923,59.6715385 C72.1909231,59.6715385 71.2633846,59.5812308 70.4315385,59.4007692 C69.5992308,59.2203077 68.8824615,58.9246154 68.2807692,58.5133846 C67.6792308,58.1027692 67.2178462,57.566 66.8972308,56.9041538 C66.5763077,56.2426154 66.416,55.4304615 66.416,54.4678462 C66.416,53.5458462 66.6012308,52.7638462 66.9724615,52.1218462 C67.3432308,51.4803077 67.8395385,50.9690769 68.4613846,50.588 C69.0826154,50.2072308 69.7946154,49.9313846 70.5969231,49.7607692 C71.3986154,49.5906154 72.2309231,49.5050769 73.0932308,49.5050769 C73.6747692,49.5050769 74.1912308,49.5306154 74.6423077,49.5803077 C75.0933846,49.6306154 75.4590769,49.696 75.7401538,49.7756923 L75.7401538,49.3547692 C75.7401538,48.5929231 75.5093846,47.9813846 75.0483077,47.5198462 C74.5867692,47.0589231 73.7850769,46.828 72.6421538,46.828 C71.88,46.828 71.128,46.8836923 70.3863077,46.9935385 C69.6441538,47.104 69.0027692,47.2595385 68.4613846,47.4598462 L67.8898462,43.8504615 C68.1503077,43.7704615 68.4764615,43.6850769 68.8673846,43.5949231 C69.2584615,43.5046154 69.6841538,43.4246154 70.1456923,43.3541538 C70.6067692,43.2841538 71.0930769,43.2238462 71.6044615,43.1735385 C72.1158462,43.1238462 72.6318462,43.0986154 73.1535385,43.0986154 Z M73.5144615,56.2124615 C73.9552308,56.2124615 74.3763077,56.2027692 74.7778462,56.1824615 C75.1786154,56.1627692 75.4995385,56.1326154 75.7401538,56.0921538 L75.7401538,52.6933846 C75.5598462,52.6533846 75.2890769,52.6135385 74.928,52.5730769 C74.5670769,52.5330769 74.2363077,52.5127692 73.9355385,52.5127692 C73.5144615,52.5127692 73.1183077,52.5383077 72.7473846,52.5881538 C72.3761538,52.6384615 72.0504615,52.7338462 71.77,52.8738462 C71.4889231,53.0143077 71.2684615,53.2046154 71.1081538,53.4453846 C70.9473846,53.686 70.8675385,53.9866154 70.8675385,54.3476923 C70.8675385,55.0498462 71.1030769,55.5356923 71.5743077,55.8066154 C72.0453846,56.0770769 72.692,56.2124615 73.5144615,56.2124615 Z M92.7941538,50.9487692 C92.7941538,49.5050769 92.6084615,48.4826154 92.2376923,47.8809231 C91.8664615,47.2792308 91.2301538,46.9786154 90.3278462,46.9786154 C90.0467692,46.9786154 89.7563077,46.9935385 89.4555385,47.0238462 C89.1547692,47.0538462 88.8638462,47.0889231 88.5832308,47.1289231 L88.5832308,59.3406154 L84.1016923,59.3406154 L84.1016923,44.0609231 C84.4823077,43.9609231 84.9287692,43.8555385 85.44,43.7450769 C85.9515385,43.6350769 86.4927692,43.5346154 87.0643077,43.4444615 C87.6358462,43.3541538 88.2223077,43.2841538 88.8238462,43.2338462 C89.4255385,43.1841538 90.0166154,43.1586154 90.5984615,43.1586154 C91.7413846,43.1586154 92.6687692,43.3044615 93.3807692,43.5949231 C94.0923077,43.8855385 94.6786154,44.2315385 95.1403077,44.6324615 C95.7816923,44.1715385 96.5186154,43.8104615 97.3509231,43.5496923 C98.1829231,43.2893846 98.9498462,43.1586154 99.6518462,43.1586154 C100.915231,43.1586154 101.952769,43.3343077 102.765077,43.6850769 C103.577077,44.0361538 104.223846,44.5323077 104.704923,45.1738462 C105.186308,45.816 105.516923,46.5776923 105.697538,47.4598462 C105.878,48.3424615 105.968154,49.3247692 105.968154,50.4073846 L105.968154,59.3406154 L101.486615,59.3406154 L101.486615,50.9487692 C101.486615,49.5050769 101.301077,48.4826154 100.930308,47.8809231 C100.558923,47.2792308 99.9226154,46.9786154 99.0203077,46.9786154 C98.7796923,46.9786154 98.4436923,47.0386154 98.0126154,47.1592308 C97.5812308,47.2792308 97.2255385,47.4296923 96.9449231,47.6101538 C97.0850769,48.0716923 97.1752308,48.5575385 97.2155385,49.0690769 C97.2555385,49.5803077 97.2758462,50.1270769 97.2758462,50.7081538 L97.2758462,59.3406154 L92.7941538,59.3406154 L92.7941538,50.9487692 Z M124.736923,51.4301538 C124.736923,52.6933846 124.551231,53.8363077 124.180462,54.8589231 C123.809385,55.8815385 123.272923,56.7538462 122.571231,57.4758462 C121.869077,58.1976923 121.007231,58.7541538 119.984615,59.1452308 C118.961846,59.536 117.798769,59.7316923 116.495538,59.7316923 C115.954154,59.7316923 115.387385,59.7061538 114.796154,59.6564615 C114.204462,59.6061538 113.623077,59.5407692 113.051692,59.4610769 C112.480154,59.3806154 111.933538,59.2856923 111.412462,59.1752308 C110.890769,59.0652308 110.429692,58.9495385 110.028769,58.8293846 L110.028769,36.722 L114.510462,36 L114.510462,43.8804615 C115.011385,43.6601538 115.533077,43.4895385 116.074615,43.3692308 C116.616,43.2489231 117.197077,43.1886154 117.818923,43.1886154 C118.941846,43.1886154 119.934154,43.3841538 120.796769,43.7750769 C121.658769,44.1661538 122.380615,44.7227692 122.962308,45.4446154 C123.543538,46.1663077 123.984923,47.034 124.285692,48.0461538 C124.586462,49.0590769 124.736923,50.1870769 124.736923,51.4301538 Z M120.165077,51.3096923 C120.165077,48.4223077 119.102,46.9786154 116.977077,46.9786154 C116.515538,46.9786154 116.059538,47.0386154 115.608308,47.1592308 C115.157231,47.2792308 114.790923,47.4296923 114.510462,47.6101538 L114.510462,55.7613846 C114.730769,55.8016923 115.011385,55.8364615 115.352615,55.8664615 C115.693231,55.8966154 116.064154,55.9118462 116.465385,55.9118462 C117.688462,55.9118462 118.610923,55.4907692 119.232769,54.6483077 C119.854154,53.8063077 120.165077,52.6933846 120.165077,51.3096923 Z M133.098154,38.9476923 C133.098154,39.7701538 132.832154,40.4167692 132.301077,40.8878462 C131.769692,41.3590769 131.143231,41.5946154 130.421231,41.5946154 C129.699385,41.5946154 129.072462,41.3590769 128.541385,40.8878462 C128.01,40.4167692 127.744462,39.7701538 127.744462,38.9476923 C127.744462,38.1258462 128.01,37.4790769 128.541385,37.0076923 C129.072462,36.5369231 129.699385,36.3009231 130.421231,36.3009231 C131.143231,36.3009231 131.769692,36.5369231 132.301077,37.0076923 C132.832154,37.4790769 133.098154,38.1258462 133.098154,38.9476923 Z M128.195538,43.5195385 L132.677231,43.5195385 L132.677231,59.3406154 L128.195538,59.3406154 L128.195538,43.5195385 Z M136.737077,39.5793846 L141.218769,38.8575385 L141.218769,43.5195385 L146.602615,43.5195385 L146.602615,47.2492308 L141.218769,47.2492308 L141.218769,52.8135385 C141.218769,53.7564615 141.384308,54.5083077 141.715077,55.0695385 C142.046,55.6312308 142.712308,55.9118462 143.715231,55.9118462 C144.196462,55.9118462 144.692615,55.8664615 145.204154,55.7764615 C145.715385,55.686 146.181692,55.5610769 146.602615,55.4004615 L147.234308,58.8895385 C146.693077,59.1103077 146.091385,59.3006154 145.429692,59.4610769 C144.767846,59.6212308 143.956,59.7015385 142.993385,59.7015385 C141.77,59.7015385 140.757385,59.536 139.955538,59.2052308 C139.153231,58.8744615 138.511692,58.4133846 138.030462,57.8216923 C137.549231,57.2304615 137.213385,56.5132308 137.022769,55.6712308 C136.832154,54.8289231 136.737077,53.8966154 136.737077,52.8738462 L136.737077,39.5793846 Z M155.144308,38.9476923 C155.144308,39.7701538 154.878462,40.4167692 154.347385,40.8878462 C153.816,41.3590769 153.189385,41.5946154 152.467692,41.5946154 C151.745692,41.5946154 151.118615,41.3590769 150.587692,40.8878462 C150.056154,40.4167692 149.790769,39.7701538 149.790769,38.9476923 C149.790769,38.1258462 150.056154,37.4790769 150.587692,37.0076923 C151.118615,36.5369231 151.745692,36.3009231 152.467692,36.3009231 C153.189385,36.3009231 153.816,36.5369231 154.347385,37.0076923 C154.878462,37.4790769 155.144308,38.1258462 155.144308,38.9476923 Z M150.241846,43.5195385 L154.723385,43.5195385 L154.723385,59.3406154 L150.241846,59.3406154 L150.241846,43.5195385 Z M173.732154,51.4001538 C173.732154,52.6435385 173.551692,53.7812308 173.190769,54.8136923 C172.829846,55.8467692 172.308154,56.7289231 171.626769,57.4607692 C170.944769,58.1927692 170.127538,58.7592308 169.175385,59.16 C168.222769,59.5610769 167.154923,59.7618462 165.971846,59.7618462 C164.808923,59.7618462 163.750923,59.5610769 162.798769,59.16 C161.846154,58.7592308 161.028923,58.1927692 160.347385,57.4607692 C159.665538,56.7289231 159.134,55.8467692 158.753231,54.8136923 C158.372154,53.7812308 158.182,52.6435385 158.182,51.4001538 C158.182,50.1569231 158.377385,49.024 158.768462,48.0012308 C159.159538,46.9786154 159.700923,46.1063077 160.392615,45.3843077 C161.084308,44.6626154 161.906462,44.1015385 162.858923,43.7 C163.810923,43.2992308 164.848923,43.0986154 165.971846,43.0986154 C167.115077,43.0986154 168.162615,43.2992308 169.115231,43.7 C170.067231,44.1015385 170.884769,44.6626154 171.566462,45.3843077 C172.248154,46.1063077 172.779385,46.9786154 173.160615,48.0012308 C173.541385,49.024 173.732154,50.1569231 173.732154,51.4001538 Z M169.160308,51.4001538 C169.160308,50.0164615 168.884308,48.9290769 168.333077,48.1366154 C167.781385,47.3447692 166.994769,46.9486154 165.971846,46.9486154 C164.949385,46.9486154 164.157077,47.3447692 163.595846,48.1366154 C163.034308,48.9290769 162.753692,50.0164615 162.753692,51.4001538 C162.753692,52.7835385 163.034308,53.8813846 163.595846,54.6936923 C164.157077,55.5058462 164.949385,55.9118462 165.971846,55.9118462 C166.994769,55.9118462 167.781385,55.5058462 168.333077,54.6936923 C168.884308,53.8813846 169.160308,52.7835385 169.160308,51.4001538 Z M177.191077,44.0609231 C177.952769,43.8404615 178.935385,43.6350769 180.138615,43.4444615 C181.341692,43.254 182.605077,43.1586154 183.928462,43.1586154 C185.271692,43.1586154 186.389538,43.3343077 187.282154,43.6850769 C188.174,44.0361538 188.881077,44.5323077 189.402615,45.1738462 C189.923846,45.816 190.294615,46.5776923 190.515538,47.4598462 C190.735692,48.3424615 190.846154,49.3247692 190.846154,50.4073846 L190.846154,59.3406154 L186.364615,59.3406154 L186.364615,50.9487692 C186.364615,49.5050769 186.174,48.4826154 185.793231,47.8809231 C185.412154,47.2792308 184.7,46.9786154 183.657538,46.9786154 C183.336615,46.9786154 182.996,46.9935385 182.635077,47.0238462 C182.274,47.0538462 181.953077,47.0889231 181.672615,47.1289231 L181.672615,59.3406154 L177.191077,59.3406154 L177.191077,44.0609231 Z" id="teambition"></path>
                </g>
            </g>
        </g>
    </g>
</svg>