<?xml version="1.0" encoding="UTF-8" standalone="no"?>
<svg width="124px" height="32px" viewBox="0 0 124 32" version="1.1" xmlns="http://www.w3.org/2000/svg" xmlns:xlink="http://www.w3.org/1999/xlink" xmlns:sketch="http://www.bohemiancoding.com/sketch/ns">
    <!-- Generator: Sketch 3.3.3 (12072) - http://www.bohemiancoding.com/sketch -->
    <title>China UnionPay</title>
    <desc>Created with Sketch.</desc>
    <defs></defs>
    <g id="website" stroke="none" stroke-width="1" fill="none" fill-rule="evenodd" sketch:type="MSPage">
        <g id="首页-2015-09-22-copy-2" sketch:type="MSArtboardGroup" transform="translate(-796.000000, -1319.000000)">
            <g id="China-UnionPay" sketch:type="MSLayerGroup" transform="translate(793.000000, 1318.000000)">
                <path d="M28.4500708,30.3278126 L16.176862,30.3278126 L5.33966142,30.3278126 C3.76209147,30.3278126 2.78106201,29.0381487 3.14953061,27.4564799 L8.41499072,4.82683078 C8.78200293,3.24224484 10.3616118,1.94908036 11.9441335,1.94908036 L22.7788583,1.94908036 L22.7788583,1.94908036 L35.0517757,1.94908036 L46.0975325,1.94908036 C47.6768501,1.94908036 48.6616662,3.24224484 48.2888284,4.82683078 L43.0248247,27.4564799 C42.6560648,29.0381487 41.0758734,30.3278126 39.4936429,30.3278126 L28.4500708,30.3278126 Z" id="Fill-2" fill="#FFFFFF" sketch:type="MSShapeGroup"></path>
                <path d="M32.9048999,23.2394743 L33.9706917,23.2394743 L34.2791568,22.2155611 L33.2151126,22.2155611 L32.9048999,23.2394743 L32.9048999,23.2394743 Z M33.7574751,20.4086897 L33.393667,21.6210497 C33.393667,21.6210497 33.7976717,21.4139333 34.0152575,21.3488813 C34.2316782,21.2995818 34.5660671,21.2581585 34.5660671,21.2581585 L34.8250146,20.4086897 L33.7574751,20.4086897 L33.7574751,20.4086897 Z M34.288769,18.6616196 L33.9342818,19.8275971 C33.9342818,19.8275971 34.3298394,19.6502355 34.5471339,19.5904343 C34.7676325,19.5332585 35.095322,19.51138 35.095322,19.51138 L35.3507742,18.6616196 L34.288769,18.6616196 L34.288769,18.6616196 Z M36.6446378,18.6616196 L35.2671769,23.2275141 L35.6376845,23.2275141 L35.3507742,24.1691642 L34.9820143,24.1691642 L34.8940479,24.4646696 L33.5841638,24.4646696 L33.6741692,24.1691642 L31.0066312,24.1691642 L31.2763561,23.2969418 L31.5466635,23.2969418 L32.9430575,18.6616196 L33.2215208,17.725512 L34.5593677,17.725512 L34.4189709,18.1986708 C34.4189709,18.1986708 34.7769535,17.9405046 35.115129,17.8526989 C35.4492266,17.7660601 37.3914786,17.7319297 37.3914786,17.7319297 L37.1031118,18.6616196 L36.6446378,18.6616196 L36.6446378,18.6616196 Z" id="Fill-5" fill="#0D1F26" sketch:type="MSShapeGroup"></path>
                <path d="M37.2350615,17.7319297 L38.663205,17.7319297 L38.6771864,18.2648896 C38.6716521,18.3547373 38.7485499,18.3961606 38.9134141,18.3961606 L39.2035285,18.3961606 L38.9378816,19.2762592 L38.1656996,19.2762592 C37.4975043,19.3258504 37.2461301,19.0388047 37.2618592,18.7155865 L37.2350615,17.7319297" id="Fill-6" fill="#0D1F26" sketch:type="MSShapeGroup"></path>
                <path d="M37.4223542,21.9037197 L36.0635352,21.9037197 L36.2959762,21.1201782 L37.8505351,21.1201782 L38.0745291,20.4069395 L36.5365731,20.4069395 L36.8022201,19.5233403 L41.0758734,19.5233403 L40.8073136,20.4069395 L39.3745096,20.4069395 L39.1493505,21.1201782 L40.5865238,21.1201782 L40.3508786,21.9037197 L38.7963197,21.9037197 L38.5184391,22.235981 L39.1493505,22.235981 L39.3034374,23.2213881 C39.3206229,23.3196955 39.3241183,23.3832889 39.3529549,23.4255873 C39.385287,23.4617598 39.5722884,23.4792626 39.6858874,23.4792626 L39.8746366,23.4792626 L39.5845222,24.4384155 L39.099833,24.4384155 C39.0229352,24.4384155 38.9134141,24.4334563 38.7607836,24.4247049 C38.61427,24.4133281 38.5111571,24.3272727 38.412122,24.2791401 C38.3238643,24.2359665 38.1919147,24.1280326 38.1607478,23.9436699 L38.0081173,22.9600131 L37.3029296,23.9296677 C37.0780618,24.2359665 36.7730921,24.4707956 36.259275,24.4707956 L35.2706723,24.4707956 L35.5296198,23.6134506 L35.9074093,23.6134506 C36.0169305,23.6134506 36.1139265,23.5688185 36.1838336,23.5349798 C36.259275,23.5025996 36.3224827,23.4652603 36.39472,23.3584933 L37.4223542,21.9037197" id="Fill-7" fill="#0D1F26" sketch:type="MSShapeGroup"></path>
                <path d="M22.5199108,19.7613782 L26.1230386,19.7613782 L25.8573917,20.6213486 L24.4161405,20.6213486 L24.1921466,21.3550073 L25.666021,21.3550073 L25.3957136,22.2450241 L23.9232956,22.2450241 L23.5661869,23.4369641 C23.5242426,23.5688185 23.9142659,23.5904053 24.0564103,23.5904053 L24.7933475,23.4868471 L24.4988639,24.4707956 L22.8376967,24.4707956 C22.7037082,24.4707956 22.6037993,24.4506674 22.4601985,24.4182872 C22.320093,24.3841568 22.2597982,24.3214385 22.1951341,24.2254648 C22.1348392,24.1280326 22.0422123,24.0472281 22.1051287,23.8404035 L22.5825359,22.2587347 L21.7643317,22.2587347 L22.0352216,21.3550073 L22.8583776,21.3550073 L23.0756721,20.6213486 L22.2597982,20.6213486 L22.5199108,19.7613782" id="Fill-8" fill="#0D1F26" sketch:type="MSShapeGroup"></path>
                <path d="M24.9448129,18.2141316 L26.4236391,18.2141316 L26.1527491,19.1146501 L24.1347645,19.1146501 L23.9142659,19.3028051 C23.8233867,19.3958616 23.7878506,19.356772 23.6655132,19.4232826 C23.5522054,19.4804584 23.3118998,19.59481 22.9999394,19.59481 L22.3538814,19.59481 L22.6148679,18.7295887 L22.810899,18.7295887 C22.9766371,18.7295887 23.0884884,18.7155865 23.1435403,18.6776638 C23.207913,18.6385742 23.2807329,18.5458094 23.3622912,18.3961606 L23.7325075,17.7228866 L25.2040517,17.7228866 L24.9448129,18.2141316" id="Fill-9" fill="#0D1F26" sketch:type="MSShapeGroup"></path>
                <path d="M27.7810017,19.693409 C27.7810017,19.693409 28.18355,19.3258504 28.874465,19.2074149 C29.0302996,19.174743 30.0139506,19.1852447 30.0139506,19.1852447 L30.1625031,18.6913743 L28.0816022,18.6913743 L27.7810017,19.693409 L27.7810017,19.693409 Z M29.7305356,20.071761 L27.6668201,20.071761 L27.5398222,20.4874523 L29.3262396,20.4874523 C29.5377085,20.4609064 29.5825656,20.4935783 29.5980034,20.4807429 L29.7305356,20.071761 L29.7305356,20.071761 Z M27.0580459,17.7319297 L28.3175386,17.7319297 L28.1351976,18.3666975 C28.1351976,18.3666975 28.5322116,18.0501888 28.8092184,17.9358372 C29.0870991,17.8325707 29.7148065,17.7380557 29.7148065,17.7380557 L31.7508504,17.7272623 L31.0570226,20.0408394 C30.9413846,20.4393196 30.8053571,20.6939852 30.7203034,20.812129 C30.644862,20.9305646 30.5528177,21.0309139 30.3768849,21.1280544 C30.202991,21.2193606 30.0459913,21.2747861 29.9015167,21.2887884 C29.7681107,21.2995818 29.5607196,21.3042492 29.2761395,21.3057077 L27.3120416,21.3057077 L26.7574454,23.1376664 C26.7073453,23.3196955 26.6805476,23.4063343 26.7166663,23.4547586 C26.7443378,23.4976405 26.8119147,23.5486903 26.903959,23.5486903 L27.7684767,23.4652603 L27.4734105,24.4707956 L26.5040322,24.4707956 C26.1973149,24.4707956 25.9727383,24.4646696 25.8157387,24.4506674 C25.666021,24.4384155 25.5096039,24.4506674 25.4059084,24.3704463 C25.313864,24.2899335 25.1766714,24.1881256 25.1813319,24.0787331 C25.1915266,23.9786755 25.2325971,23.8153161 25.2949309,23.5904053 L27.0580459,17.7319297 L27.0580459,17.7319297 Z" id="Fill-10" fill="#0D1F26" sketch:type="MSShapeGroup"></path>
                <path d="M30.7290418,21.4690671 L30.6128213,22.0256558 C30.5624299,22.19835 30.518738,22.3302044 30.3888273,22.442514 C30.2516347,22.5583241 30.0902658,22.6825939 29.7124763,22.6825939 L29.0139879,22.7097232 L29.0087449,23.3369065 C28.999424,23.5180604 29.0457374,23.4976405 29.0745741,23.5265201 C29.1063236,23.5580251 29.1354515,23.5723191 29.1657446,23.5828207 L29.3865345,23.5723191 L30.0532733,23.5349798 L29.7815095,24.4506674 L29.0139879,24.4506674 C28.4751208,24.4506674 28.0786894,24.4384155 27.9493613,24.3348573 C27.8197419,24.2546362 27.8013913,24.1499111 27.8054692,23.9763418 L27.8549867,21.523034 L29.0780694,21.523034 L29.0605927,22.0256558 L29.3559501,22.0256558 C29.455859,22.0256558 29.5222707,22.0160293 29.5668365,21.986858 C29.6009162,21.9591452 29.6294616,21.9206391 29.648686,21.8587959 L29.7681107,21.4690671 L30.7290418,21.4690671" id="Fill-11" fill="#0D1F26" sketch:type="MSShapeGroup"></path>
                <path d="M13.2811066,9.18064983 C13.2365408,9.37901479 12.4518338,13.0055929 12.4483384,13.0055929 C12.2796875,13.7407101 12.158224,14.2643352 11.7431506,14.5998054 C11.5025538,14.7955449 11.2281684,14.8932688 10.9071784,14.8932688 C10.3936526,14.8932688 10.091887,14.6353944 10.0406218,14.1467748 L10.0315921,13.9819569 C10.0315921,13.9819569 10.1859703,12.9977167 10.1885918,12.9947995 C10.1885918,12.9947995 11.0105826,9.68968931 11.1594265,9.25386984 C11.1635044,9.22761565 11.1681649,9.21828083 11.172534,9.20573717 C9.56729254,9.2197394 9.283295,9.20573717 9.26494439,9.18064983 C9.25562344,9.21361342 9.21280535,9.42014634 9.21280535,9.42014634 L8.37362902,13.1400727 L8.29906146,13.4594986 L8.16216008,14.4915798 C8.16216008,14.7955449 8.22070727,15.0458348 8.34129699,15.2573269 C8.72695109,15.929434 9.81721038,16.0283248 10.4341404,16.0283248 C11.2328289,16.0283248 11.977922,15.8600063 12.4806704,15.551082 C13.356548,15.0332912 13.5895716,14.2194114 13.7914283,13.5009219 L13.8872593,13.133655 C13.8872593,13.133655 14.7369217,9.69989927 14.8819789,9.25386984 C14.885183,9.22761565 14.8880958,9.21828083 14.8942126,9.20573717 C13.7334637,9.21828083 13.3920841,9.20573717 13.2811066,9.18064983" id="Fill-12" fill="#0D1F26" sketch:type="MSShapeGroup"></path>
                <path d="M17.9721634,15.9927358 C17.4041684,15.9851512 17.2046419,15.9851512 16.5411071,16.0172397 L16.5131443,15.9693987 C16.5734391,15.7164834 16.6357729,15.4661935 16.6911161,15.2083191 L16.7718005,14.8635141 C16.8955943,14.3244282 17.0158927,13.6975366 17.0295829,13.505881 C17.0418166,13.3915294 17.0817219,13.1059422 16.7519935,13.1059422 C16.6133444,13.1059422 16.4714913,13.1727446 16.3249777,13.2372132 C16.2448758,13.5260092 16.0846721,14.3293873 16.0069004,14.6984044 C15.8426188,15.4720278 15.8315502,15.5586666 15.7593128,15.941686 L15.709504,15.9927358 C15.1243235,15.9851512 14.9224667,15.9851512 14.2449505,16.0172397 L14.2143662,15.9621059 C14.3285478,15.5029494 14.441273,15.0367917 14.5490464,14.5811357 C14.8321701,13.3328951 14.897708,12.8574026 14.9783924,12.2238016 L15.0308227,12.1855872 C15.6862017,12.0960312 15.8478618,12.0753196 16.55771,11.927421 L16.6162572,11.9968488 L16.5096489,12.3941621 C16.6293648,12.3229841 16.7461679,12.2500558 16.8693791,12.1855872 C17.2046419,12.0216444 17.577771,11.9723449 17.7839969,11.9723449 C18.0939183,11.9723449 18.436463,12.0584003 18.5783161,12.4198329 C18.7123047,12.7430511 18.6237558,13.1383224 18.4454927,13.919822 L18.3540309,14.3185939 C18.1725638,15.1864406 18.1416881,15.345716 18.0385752,15.941686 L17.9721634,15.9927358" id="Fill-13" fill="#0D1F26" sketch:type="MSShapeGroup"></path>
                <path d="M20.282884,15.9927358 C19.9406305,15.9909855 19.7178017,15.9851512 19.5042938,15.9909855 C19.289912,15.9927358 19.0816472,16.0038209 18.7644438,16.0172397 L18.7446368,15.9909855 L18.7262861,15.9621059 C18.8110485,15.634512 18.8596922,15.5184102 18.9016364,15.4014332 C18.9444545,15.2838728 18.9858162,15.1666041 19.0632966,14.8325925 C19.1629142,14.3991067 19.2235003,14.0928079 19.2671922,13.8258903 C19.3120493,13.5662656 19.3382644,13.3468973 19.3723442,13.0922317 L19.3971029,13.0718118 L19.4256483,13.0473079 C19.7655715,12.9977167 19.9837399,12.9682536 20.2039472,12.9344149 C20.4273586,12.9002845 20.6522264,12.8574026 21.0043834,12.7906003 L21.0177822,12.8215219 L21.0276857,12.8506932 C20.9621478,13.121403 20.8977751,13.3915294 20.8316546,13.6669067 C20.7681557,13.9384916 20.7020352,14.208618 20.6414491,14.4790361 C20.5135774,15.0522525 20.4628947,15.2654948 20.4343493,15.4198111 C20.4025999,15.5650843 20.3967743,15.6453054 20.3466742,15.941686 L20.3149247,15.9693987 L20.282884,15.9927358" id="Fill-14" fill="#0D1F26" sketch:type="MSShapeGroup"></path>
                <path d="M23.9017409,13.9708718 C23.8726129,14.1143947 23.7432848,14.6660243 23.5688084,14.8988114 C23.4482186,15.0706304 23.3028702,15.1756472 23.1417926,15.1756472 C23.096353,15.1756472 22.8173072,15.1756472 22.810899,14.7570388 C22.8074037,14.5516727 22.8484741,14.3387221 22.9032346,14.1111858 C23.0509134,13.4472467 23.229759,12.8912414 23.6803684,12.8912414 C24.0348556,12.8912414 24.0564103,13.3037238 23.9017409,13.9708718 L23.9017409,13.9708718 Z M25.3895967,14.032715 C25.5879581,13.1567003 25.4364927,12.7494687 25.2401703,12.4977203 C24.9413175,12.1193683 24.4202184,11.9968488 23.8784385,11.9968488 C23.5522054,11.9968488 22.7762368,12.0289372 22.1677538,12.5931105 C21.7337473,12.9947995 21.5318906,13.5446789 21.4083881,14.0697626 C21.2869245,14.6041811 21.1433237,15.5709185 22.0299786,15.929434 C22.3064029,16.0467027 22.6975913,16.077916 22.951587,16.077916 C23.6020142,16.077916 24.267588,15.899971 24.7659672,15.3673027 C25.1527865,14.9364424 25.3290106,14.2970071 25.3895967,14.032715 L25.3895967,14.032715 Z" id="Fill-15" fill="#0D1F26" sketch:type="MSShapeGroup"></path>
                <path d="M39.2912037,16.0516618 C38.6049491,16.0467027 38.4092092,16.0467027 37.7718896,16.0729569 L37.7305279,16.0219071 C37.9047131,15.3673027 38.0788983,14.7156155 38.23182,14.0575106 C38.4310552,13.1998739 38.4738733,12.8358158 38.5417414,12.335236 L38.5927154,12.2932294 C39.2743095,12.1943386 39.4613109,12.1683761 40.1705766,12.0353549 L40.1953353,12.0960313 C40.0639683,12.6316166 39.9346402,13.1709943 39.8111376,13.7097885 C39.5504425,14.8387185 39.4528638,15.4136851 39.3529549,16.0038209 L39.2912037,16.0516618" id="Fill-16" fill="#0D1F26" sketch:type="MSShapeGroup"></path>
                <path d="M38.2612392,14.0449669 C38.2254119,14.1855727 38.0992878,14.7401194 37.9216073,14.9705728 C37.8056781,15.1353908 37.5298363,15.2374904 37.3693413,15.2374904 C37.3250668,15.2374904 37.0474774,15.2374904 37.0375739,14.8264665 C37.0349524,14.6240176 37.0780618,14.4096084 37.1287444,14.1774047 C37.2799185,13.5306766 37.4546862,12.9764216 37.9076259,12.9764216 C38.2612392,12.9764216 38.412122,13.3778189 38.2612392,14.0449669 L38.2612392,14.0449669 Z M39.6165629,14.1111858 C39.8172545,13.2372132 39.0139056,14.032715 38.8854513,13.7453775 C38.6897114,13.2975978 38.811175,12.3877444 38.0206424,12.0817373 C37.7180029,11.9659272 37.0052419,12.1193683 36.39472,12.677999 C35.9647914,13.0764792 35.7571091,13.6216911 35.6376845,14.1450246 C35.5144733,14.6736088 35.3732027,15.6388877 36.2543233,15.9851512 C36.5348255,16.1024199 36.789695,16.1377172 37.0442734,16.1289658 C37.9291806,16.077916 38.6049491,14.7401194 39.1065324,14.208618 C39.4901476,13.7870925 39.5580157,14.3664348 39.6165629,14.1111858 L39.6165629,14.1111858 Z" id="Fill-17" fill="#0D1F26" sketch:type="MSShapeGroup"></path>
                <path d="M29.2738093,15.9927358 C28.7037752,15.9851512 28.5106569,15.9851512 27.840714,16.0172397 L27.8174116,15.9693987 C27.8733373,15.7164834 27.9368362,15.4661935 27.9965485,15.2083191 L28.0775242,14.8635141 C28.2007355,14.3244282 28.3201601,13.6975366 28.3341415,13.505881 C28.3452101,13.3915294 28.3845329,13.1059422 28.0582998,13.1059422 C27.9181943,13.1059422 27.7754674,13.1727446 27.6301189,13.2372132 C27.550017,13.5260092 27.3863179,14.3293873 27.3059248,14.6984044 C27.145721,15.4720278 27.1364001,15.5586666 27.0621238,15.941686 L27.0128976,15.9927358 C26.4271344,15.9851512 26.2244039,15.9851512 25.5541697,16.0172397 L25.5218376,15.9621059 C25.6357279,15.5029494 25.7446665,15.0367917 25.8533137,14.5811357 C26.1335246,13.3328951 26.1999364,12.8574026 26.2806208,12.2238016 L26.3321773,12.1855872 C26.9901778,12.0960312 27.1489251,12.0753196 27.8611036,11.927421 L27.9181943,11.9968488 L27.813625,12.3941621 C27.9307194,12.3229841 28.050144,12.2500558 28.1695686,12.1855872 C28.50454,12.0216444 28.8808732,11.9723449 29.083895,11.9723449 C29.3929426,11.9723449 29.7363612,12.0584003 29.8817097,12.4198329 C30.0156983,12.7430511 29.9262754,13.1383224 29.746556,13.919822 L29.6568419,14.3185939 C29.4718794,15.1864406 29.4430427,15.345716 29.3434251,15.941686 L29.2738093,15.9927358" id="Fill-18" fill="#0D1F26" sketch:type="MSShapeGroup"></path>
                <path d="M34.1999287,9.17510728 C34.1970159,9.17510728 33.727182,9.18064983 33.727182,9.18064983 C32.4973999,9.19523549 32.0063026,9.1888178 31.8038633,9.16402218 C31.7860952,9.25386984 31.7508504,9.41431208 31.7508504,9.41431208 C31.7508504,9.41431208 31.3130573,11.4595131 31.3130573,11.46068 C31.3130573,11.46068 30.2603731,15.8074979 30.210273,16.0111137 C31.2807253,15.9991535 31.7231789,15.9991535 31.9049373,16.0172397 C31.9495031,15.8136239 32.1979645,14.5998054 32.2014599,14.5998054 C32.2014599,14.5998054 32.4126375,13.7097885 32.4248713,13.6777001 C32.4248713,13.6777001 32.491283,13.5866855 32.5608988,13.5473043 L32.6587687,13.5473043 C33.5841638,13.5473043 34.6307312,13.5473043 35.4492266,12.9452083 C36.0032403,12.5298087 36.3851078,11.9198365 36.5563801,11.1785933 C36.6000721,10.9945223 36.6326954,10.775154 36.6326954,10.5604531 C36.6326954,10.2760328 36.5767697,9.99657157 36.4101578,9.77428613 C35.9910066,9.1888178 35.162025,9.18064983 34.1999287,9.17510728 L34.1999287,9.17510728 Z M34.8156937,11.3034466 C34.7149109,11.7558937 34.4227576,12.1374545 34.0461331,12.3229841 C33.73126,12.4805092 33.352014,12.4915943 32.9584954,12.4915943 L32.7039171,12.4915943 L32.7234328,12.3909533 C32.7234328,12.3909533 33.1929754,10.3501279 33.1918103,10.3565456 L33.2025876,10.2518206 L33.213365,10.171016 L33.3994926,10.1911443 C33.3994926,10.1911443 34.3639191,10.2760328 34.3883866,10.2760328 C34.7693802,10.4213059 34.9252148,10.8060756 34.8156937,11.3034466 L34.8156937,11.3034466 Z" id="Fill-19" fill="#0D1F26" sketch:type="MSShapeGroup"></path>
                <path d="M20.9068047,12.4985954 C21.2816815,12.2378039 21.3297426,11.8749127 21.0107915,11.6879245 C20.6912579,11.4980193 20.1317099,11.5569453 19.7536291,11.8191955 C19.3723442,12.0788202 19.3274871,12.4417114 19.6478946,12.6316166 C19.9645154,12.8188965 20.5290152,12.7628876 20.9068047,12.4985954" id="Fill-20" fill="#0D1F26" sketch:type="MSShapeGroup"></path>
                <path d="M44.9082382,12.0289372 L44.8555166,11.969136 C44.1526591,12.1097418 44.026535,12.1330788 43.3798945,12.2191342 L43.3338723,12.2655166 C43.3303769,12.2736846 43.3292118,12.2841862 43.326299,12.2949796 L43.323095,12.2841862 C42.8416099,13.3976554 42.8570477,13.1567003 42.4652767,14.0295061 C42.4620727,13.9895414 42.4620727,13.9632872 42.4594511,13.9233225 L42.3639115,12.0289372 L42.3018689,11.969136 C41.5678445,12.1097418 41.5492026,12.1330788 40.8705213,12.2191342 L40.8148869,12.2655166 C40.810809,12.2903122 40.8090613,12.3148161 40.8058572,12.3399035 L40.810809,12.3521554 C40.8938237,12.7862246 40.8766382,12.6885007 40.9602354,13.3746101 C41.0001407,13.7097885 41.0514059,14.0499261 41.0910199,14.3818956 C41.1571404,14.9364424 41.1961718,15.2112362 41.2777301,16.0592464 C40.8198387,16.8165338 40.7088612,17.1035795 40.2725244,17.7689773 L39.9634768,18.2695571 C39.9264843,18.3203152 39.8944436,18.3547373 39.8498778,18.3684478 C39.7989039,18.3917849 39.7342398,18.4005363 39.6445257,18.4005363 L39.4738359,18.4005363 L39.215471,19.252047 L40.0948439,19.2654658 C40.6112825,19.264299 40.933729,19.0215936 41.1099531,18.6989588 L44.9082382,12.0289372" id="Fill-21" fill="#0D1F26" sketch:type="MSShapeGroup"></path>
                <path d="M59.6271755,20.5950944 L61.8921651,20.5950944 L62.8688254,16.3702126 L67.8077611,16.3702126 C68.6148967,16.3702126 69.1639586,15.7815354 69.1639586,15.7815354 C69.7036996,15.2660783 69.8234155,14.6555226 69.8234155,14.6555226 L71.0951419,9.17510728 L64.5407699,9.17510728 L65.067112,6.92599874 L62.8021224,6.92599874 L62.2789843,9.18181669 L60.2607085,9.18181669 C59.0329652,9.20282003 57.7431795,10.1961034 57.7431795,10.1961034 L57.9776595,9.18269182 L55.7278164,9.18269182 L54.0616975,16.3702126 L60.6079137,16.3702126 L59.6271755,20.5950944 L59.6271755,20.5950944 Z M64.174049,10.7559009 L68.479743,10.7559009 L67.6257114,14.4361543 C67.6257114,14.4361543 67.4987136,14.775125 67.140731,14.7958366 L63.2381678,14.7958366 L64.174049,10.7559009 L64.174049,10.7559009 Z M56.6730185,14.7946698 L57.6091909,10.7550258 L61.9110983,10.7550258 L60.9743433,14.7946698 L56.6730185,14.7946698 Z M84.5158464,20.5942193 C85.2618133,20.600637 85.7907769,20.075845 85.7907769,20.075845 C86.3817831,19.5630133 86.5183932,18.8847801 86.5183932,18.8847801 L89.2989476,6.92424847 L78.4015977,6.92541532 C77.1680289,6.95662863 75.8820298,7.94232743 75.8820298,7.94232743 L76.1168011,6.92862416 L73.8593847,6.92862416 L70.6905547,20.5942193 L84.5158464,20.5942193 Z M75.750954,8.50329185 L86.6777231,8.50329185 L84.3367095,18.5962758 C84.3367095,18.5962758 84.2440826,18.9959229 83.8293005,19.0239273 L73.3047885,19.0239273 L75.750954,8.50329185 Z M94.0899133,9.55112556 L97.8675176,9.55112556 L98.2348211,7.97441588 L95.2768774,7.97441588 C95.4932981,7.642738 95.7874904,6.92862416 95.7874904,6.92862416 L93.4173489,6.92862416 C92.7817769,8.94844615 91.7558904,9.02779213 91.7558904,9.02779213 L91.0518678,9.02779213 L90.6799038,10.6345483 L91.7258886,10.6345483 C93.0858728,10.6345483 94.0899133,9.55112556 94.0899133,9.55112556 Z M90.706119,19.1732845 C90.706119,19.1732845 90.4582401,19.9848305 91.0638103,20.3745593 C91.0638103,20.3745593 91.3160583,20.5729242 91.8788104,20.5942193 L95.2955193,20.5942193 L95.6604926,19.0248025 L93.4595844,19.0248025 C93.4595844,19.0248025 93.0043145,19.0280113 93.0972327,18.5183884 L93.5961945,16.3740049 L96.2765488,16.3740049 L96.6426871,14.7964201 L93.9672846,14.7964201 L94.4784802,12.5922354 L97.1535914,12.5922354 L97.5197298,11.0172759 L90.9889514,11.0172759 L90.622813,12.5922354 L92.2324237,12.5922354 L91.7206456,14.7958366 L90.1113262,14.7958366 L89.7448965,16.3751717 L91.3547985,16.3751717 L90.706119,19.1732845 Z M96.5730713,20.2012817 C96.9208591,20.6228072 97.6784771,20.5942193 97.6784771,20.5942193 L100.292711,20.5942193 L100.657393,19.0227605 L99.1835185,19.0227605 C98.7020334,18.9871715 98.8275749,18.5183884 98.8275749,18.5183884 L99.8386062,14.1631108 L104.529372,14.1631108 C105.206597,14.1631108 105.61264,13.8113047 105.61264,13.8113047 C106.401134,13.2940972 106.585223,12.3988295 106.585223,12.3988295 L107.856367,6.92541532 L103.802338,6.92541532 C102.633142,6.92920759 101.2851,7.94582799 101.2851,7.94582799 L101.520454,6.92541532 L99.2633291,6.92541532 L96.4329659,19.1111496 C96.2346045,19.8628944 96.5730713,20.2012817 96.5730713,20.2012817 Z M101.153733,8.51379353 L105.231938,8.51379353 L104.94095,9.76611816 L103.054915,9.76611816 C101.841153,9.84021331 100.628556,10.7707783 100.628556,10.7707783 L101.153733,8.51379353 L101.153733,8.51379353 Z M100.496024,11.3372853 L104.574811,11.3372853 L104.285279,12.5884431 L100.207949,12.5884431 L100.496024,11.3372853 Z M104.538401,14.7981703 L104.342662,15.6423883 C104.273046,15.8891776 103.97798,15.8891776 103.97798,15.8891776 L103.164145,15.8891776 L103.140842,14.7952532 L100.895077,14.7952532 L100.970227,19.3777754 C100.974596,19.8768966 101.103051,20.11756 101.103051,20.11756 C101.333161,20.6502282 102.412352,20.5968447 102.412352,20.5968447 L104.912404,20.5968447 L105.277378,19.0248025 L103.633687,19.0248025 C103.23143,19.0248025 103.214827,18.6995423 103.214827,18.6995423 L103.188321,17.1079552 L104.241879,17.1079552 C105.118922,17.1079552 105.478652,16.7952387 105.478652,16.7952387 C105.878287,16.5370725 105.986352,15.9866098 105.986352,15.9866098 L106.262194,14.7981703 L104.538401,14.7981703 Z M107.328568,19.9119022 L112.547715,19.9119022 L112.387511,20.5956779 L114.638519,20.5956779 L114.796975,19.9159862 L115.454102,19.9159862 L115.819075,18.346861 L115.15991,18.346861 L117.444124,8.50562556 L118.109115,8.50562556 L118.477001,6.92541532 L115.612267,6.92541532 C114.37695,7.01672154 113.161441,7.93911858 113.161441,7.93911858 L113.395629,6.92599874 L111.148117,6.92599874 L108.502425,18.3430688 L107.692085,18.3430688 L107.328568,19.9119022 Z M113.029782,8.50329185 L115.194281,8.50329185 L114.674347,10.745691 C114.674347,10.745691 113.669141,10.7599849 112.277699,11.745392 L113.029782,8.50329185 L113.029782,8.50329185 Z M112.145458,12.3162747 L114.311412,12.3162747 L113.789731,14.557507 C113.790022,14.557507 112.78569,14.5709258 111.393665,15.5569163 L112.145458,12.3162747 L112.145458,12.3162747 Z M111.265502,16.1085459 L113.428544,16.1085459 L112.910649,18.3378179 L110.747607,18.3378179 L111.265502,16.1085459 Z M117.478203,12.313941 L120.306528,12.3133576 L119.961361,13.8078041 L117.132746,13.8078041 L116.771268,15.3661359 L119.359869,15.3661359 L117.410918,18.5647708 C117.07682,19.0443472 116.747966,19.0256776 116.747966,19.0256776 L115.918984,19.0256776 L115.554302,20.5942193 L117.191002,20.5942193 C118.066588,20.6076381 118.535839,20.1627755 118.535839,20.1627755 C118.941883,19.8462667 119.275689,19.2193751 119.275689,19.2193751 L120.421292,17.3209058 L120.74869,19.1942878 C120.827918,19.7946335 121.036183,20.0691356 121.036183,20.0691356 C121.37028,20.5869265 122.252566,20.5956779 122.252566,20.5956779 L123.450016,20.5956779 L123.815863,19.0198433 L123.260685,19.0198433 C122.974939,18.9857129 122.870953,18.4139551 122.870953,18.4139551 L122.477143,16.1715559 L121.123567,16.1715559 L121.607382,15.3681779 L124.664943,15.3681779 L125.027878,13.8107213 L122.202175,13.8107213 L122.550545,12.313941 L125.376539,12.313941 L125.74093,10.7559009 L117.841429,10.7559009 L117.478203,12.313941 Z M125.4747,9.03654353 C125.4747,9.03654353 126.258534,8.26525391 126.628459,6.92541532 L124.176467,6.92541532 C124.176467,6.92541532 123.992379,7.49046373 123.754986,7.82914272 C123.754986,7.82914272 123.440113,8.32242969 122.596567,8.33614021 L122.23072,9.91576702 L123.588374,9.91576702 C123.588374,9.91576702 124.600279,9.97090081 125.4747,9.03654353 Z M120.389251,9.91576702 L121.745448,9.91576702 L122.112169,8.33614021 C121.274741,8.32242969 121.188522,7.82914272 121.188522,7.82914272 C121.110168,7.49046373 121.188522,6.92541532 121.188522,6.92541532 L118.735366,6.92541532 C118.482244,8.26525391 118.910425,9.03654353 118.910425,9.03654353 C119.352587,9.97090081 120.389251,9.91576702 120.389251,9.91576702 Z M55.1338974,29.2668518 C53.9568368,29.2668518 52.9953231,28.155133 53.3477713,26.6335571 C53.712162,25.0597645 55.1819585,23.9909275 56.3572715,23.9909275 C57.489475,23.9909275 57.9919322,24.2992683 58.2071878,24.4089524 L58.8931511,23.3514922 C58.6181832,23.1653792 57.9939711,22.8129897 56.4656274,22.8129897 C54.2880217,22.8129897 52.2301318,24.3876574 51.7087414,26.6335571 C51.1876423,28.8820822 52.5190811,30.4450813 54.6952304,30.4450813 C56.081721,30.4450813 56.8576897,30.1813726 57.4396662,29.9059954 L57.2194589,28.8596203 C56.7973948,29.0139365 56.2122142,29.2668518 55.1338974,29.2668518 Z M62.4552085,25.34506 C61.607585,25.34506 60.8758908,25.7980905 60.6463626,25.9293615 L61.4380603,22.5148588 L59.950787,22.6694668 L58.1809726,30.303017 L59.6312534,30.303017 L60.4418843,26.8109187 C60.6574312,26.6892743 61.069883,26.426149 61.5001029,26.426149 C62.0602334,26.426149 62.208786,26.6892743 62.0957695,27.1741016 L61.3716486,30.303017 L62.8114433,30.303017 L63.6162487,26.8325054 C63.8256787,25.9293615 63.4012844,25.34506 62.4552085,25.34506 Z M65.2220727,23.7041734 C65.1335238,24.0886514 65.4032486,24.4427912 65.7874463,24.4427912 C66.1856254,24.4427912 66.6181755,24.0886514 66.7064332,23.7041734 C66.7981863,23.3196955 66.5284614,22.9559291 66.1340689,22.9559291 C65.7481236,22.9559291 65.3132432,23.3196955 65.2220727,23.7041734 Z M64.8396227,25.4553276 L63.7138273,30.303017 L65.1571174,30.303017 L66.2805826,25.4553276 L64.8396227,25.4553276 Z M70.4621915,25.34506 C69.5825273,25.34506 68.8627756,25.7980905 68.6335386,25.9293615 L68.6882992,25.4553276 L67.3248197,25.4553276 L66.1998981,30.303017 L67.6417318,30.303017 L68.4494499,26.8109187 C68.6649968,26.6892743 69.046573,26.426149 69.5085423,26.426149 C70.0581868,26.426149 70.2169341,26.6892743 70.1033351,27.1741016 L69.3797968,30.303017 L70.8219217,30.303017 L71.6252707,26.8325054 C71.832953,25.9293615 71.4073936,25.34506 70.4621915,25.34506 Z M75.159074,25.34506 C74.1148368,25.34506 73.2983803,25.6866561 72.9322419,25.8409724 L73.0694346,26.5792984 C73.3691612,26.4681557 73.8526853,26.2820427 74.5144724,26.2820427 C75.2618956,26.2820427 75.3422888,26.6461007 75.2432538,27.0755025 L75.1864542,27.3173327 L74.155616,27.3508797 C72.9115611,27.4057218 71.9992736,28.1107926 71.7907175,29.0139365 C71.6034247,29.8181897 72.0919005,30.4115343 73.0612788,30.4115343 C73.7862735,30.4115343 74.308829,30.0603117 74.5951568,29.8715732 C74.5680678,29.9838828 74.5692329,30.1705792 74.5931178,30.303017 L76.099033,30.303017 C76.0669923,30.1589107 76.0486417,29.8073963 76.1124319,29.5433959 L76.7337311,26.8546756 C76.9530646,25.9077747 76.3148712,25.34506 75.159074,25.34506 Z M74.7821583,29.0579852 C74.5438916,29.1895479 74.1294008,29.4547151 73.746077,29.4547151 C73.4815951,29.4547151 73.0108874,29.3876211 73.1352638,28.8596203 C73.2628442,28.3091575 73.872201,28.1434644 74.3126156,28.1002909 L75.0169296,28.0445737 L74.7821583,29.0579852 Z M85.2810377,22.9559291 L84.2073814,27.5819166 C84.016302,28.4092151 83.3405335,29.2893138 82.2077474,29.2893138 C81.0630188,29.2893138 80.7324165,28.6711735 80.986121,27.5819166 L82.0580297,22.9559291 L80.4956063,22.9559291 L79.3808795,27.7697799 C79.0179452,29.3330707 79.8603256,30.4450813 81.861416,30.4450813 C83.8526029,30.4450813 85.2332679,29.2773535 85.5828033,27.7697799 L86.6989865,22.9559291 L85.2810377,22.9559291 Z M90.3029881,25.34506 C89.4218675,25.34506 88.7032809,25.7980905 88.4737527,25.9293615 L88.5282219,25.4553276 L87.1650337,25.4553276 L86.0404034,30.303017 L87.4834022,30.303017 L88.2922855,26.8109187 C88.5069585,26.6892743 88.8864958,26.426149 89.3481738,26.426149 C89.8978183,26.426149 90.0577308,26.6892743 89.9435492,27.1741016 L89.2205934,30.303017 L90.6609707,30.303017 L91.4646109,26.8325054 C91.6749147,25.9293615 91.2496466,25.34506 90.3029881,25.34506 Z M93.1685962,23.7041734 C93.0785908,24.0886514 93.3477331,24.4427912 93.7333872,24.4427912 C94.1298186,24.4427912 94.5638251,24.0886514 94.6523741,23.7041734 C94.7420882,23.3196955 94.4738197,22.9559291 94.079136,22.9559291 C93.6940644,22.9559291 93.258019,23.3196955 93.1685962,23.7041734 Z M91.6609333,30.303017 L93.1016019,30.303017 L94.2256496,25.4553276 L92.784981,25.4553276 L91.6609333,30.303017 Z M97.7699389,25.34506 C96.296647,25.34506 94.7709249,26.3266748 94.4117772,27.8797557 C94.0514644,29.4331283 95.1216254,30.4115343 96.5949173,30.4115343 C98.0705394,30.4115343 99.5945139,29.4331283 99.9533703,27.8797557 C100.314266,26.3266748 99.2435221,25.34506 97.7699389,25.34506 Z M98.4043457,27.8797557 C98.2115187,28.7055957 97.5441973,29.4547151 96.8177461,29.4547151 C95.950607,29.4547151 95.7493328,28.7055957 95.9415773,27.8797557 C96.1341131,27.0425389 96.6793884,26.3027543 97.5479839,26.3027543 C98.2741438,26.3027543 98.5977554,27.0425389 98.4043457,27.8797557 Z M104.402665,25.34506 C103.522418,25.34506 102.80121,25.7980905 102.573721,25.9293615 L102.627025,25.4553276 L101.264419,25.4553276 L100.142702,30.303017 L101.581623,30.303017 L102.39138,26.8109187 C102.606344,26.6892743 102.985882,26.426149 103.448142,26.426149 C103.99866,26.426149 104.157408,26.6892743 104.044683,27.1741016 L103.319397,30.303017 L104.759483,30.303017 L105.563414,26.8325054 C105.773135,25.9293615 105.347576,25.34506 104.402665,25.34506 Z M115.89306,29.5433959 L116.516107,26.8546756 C116.736023,25.9077747 116.096082,25.34506 114.942032,25.34506 C113.896048,25.34506 113.080465,25.6866561 112.714909,25.8409724 L112.851519,26.5792984 C113.152702,26.4681557 113.635061,26.2820427 114.295392,26.2820427 C115.043398,26.2820427 115.124956,26.6461007 115.024756,27.0755025 L114.968539,27.3173327 L113.937992,27.3508797 C112.693063,27.4057218 111.781941,28.1107926 111.571637,29.0139365 C111.387257,29.8181897 111.873985,30.4115343 112.84249,30.4115343 C113.568067,30.4115343 114.090914,30.0603117 114.37695,29.8715732 C114.349861,29.9838828 114.351609,30.1705792 114.37695,30.303017 L115.8817,30.303017 C115.849951,30.1589107 115.832765,29.8073963 115.89306,29.5433959 Z M114.564825,29.0579852 C114.324811,29.1895479 113.912359,29.4547151 113.527288,29.4547151 C113.262806,29.4547151 112.793846,29.3876211 112.916766,28.8596203 C113.044929,28.3091575 113.654868,28.1434644 114.095283,28.1002909 L114.799888,28.0445737 L114.564825,29.0579852 Z M119.095679,28.7274742 L118.621767,25.4553276 L117.13595,25.4553276 L118.015905,30.3899475 L117.687925,30.909197 C117.24984,31.5139184 117.020894,31.9331102 116.471541,31.9331102 C116.118219,31.9331102 115.900342,31.8333443 115.678678,31.7455386 L115.127286,32.6049256 C115.350115,32.7364883 115.621296,32.9462301 116.499504,32.9462301 C117.403053,32.9462301 117.951824,32.3295484 118.445543,31.5357969 L122.282859,25.4553276 L121.040843,25.4553276 L119.095679,28.7274742 Z M112.604514,25.0708496 C112.872491,23.9025384 112.10963,22.9559291 110.303115,22.9559291 L107.909962,22.9559291 L106.216463,30.303017 L107.797237,30.303017 L108.501259,27.2516973 L109.279558,27.2516973 C110.815184,27.2516973 112.299836,26.3923103 112.604514,25.0708496 Z M110.945095,25.0708496 C110.761589,25.8628509 109.982998,26.2038636 109.306356,26.2038636 L108.740691,26.2038636 L109.255091,23.9801341 L109.818717,23.9801341 C110.495942,23.9801341 111.11928,24.3109368 110.945095,25.0708496 Z M75.1480053,16.2538191 L74.7821583,17.8244028 L83.3236393,17.8244028 L83.6883212,16.2471097 L83.2540234,16.2471097 C83.2662572,15.6563905 83.2147007,15.1094283 83.2147007,15.1094283 L81.5864481,15.1094283 C81.6892698,15.6374291 81.6968431,16.2471097 81.6968431,16.2471097 L80.5413372,16.2471097 L80.9348558,14.5461302 L84.0827137,14.5461302 L84.447687,12.9737962 L81.2998291,12.9737962 L81.6948041,11.2763172 L84.8414969,11.2763172 L85.2093829,9.70544182 L76.6670281,9.70544182 L76.3000159,11.2824432 L79.4435046,11.2824432 L79.0514424,12.9761299 L75.9085362,12.9761299 L75.5444368,14.541171 L78.6835563,14.541171 L78.2850859,16.2538191 L75.1480053,16.2538191 Z" id="中国银联" fill="#FFFFFF" sketch:type="MSShapeGroup"></path>
            </g>
        </g>
    </g>
</svg>