<?xml version="1.0" encoding="UTF-8" standalone="no"?>
<svg width="77px" height="25px" viewBox="0 0 77 25" version="1.1" xmlns="http://www.w3.org/2000/svg" xmlns:xlink="http://www.w3.org/1999/xlink" xmlns:sketch="http://www.bohemiancoding.com/sketch/ns">
    <!-- Generator: Sketch 3.3.3 (12072) - http://www.bohemiancoding.com/sketch -->
    <title>Visa</title>
    <desc>Created with Sketch.</desc>
    <defs></defs>
    <g id="website" stroke="none" stroke-width="1" fill="none" fill-rule="evenodd" sketch:type="MSPage">
        <g id="首页-2015-09-22-copy-2" sketch:type="MSArtboardGroup" transform="translate(-929.000000, -1426.000000)" fill="#FFFFFF">
            <g id="Visa" sketch:type="MSLayerGroup" transform="translate(928.000000, 1425.000000)">
                <path d="M72.1645854,25.5320332 L77.9288504,25.5320332 L72.9033048,1.61178562 L67.8572676,1.61178562 C65.5263571,1.61178562 64.9577174,3.39355642 64.9577174,3.39355642 L55.5961658,25.5320332 L62.1391086,25.5320332 L63.4474922,21.9796721 L71.4289398,21.9796721 L72.1645854,25.5320332 Z M65.2568936,17.071417 L68.5550039,8.11784088 L70.4115358,17.071417 L65.2568936,17.071417 Z" id="a" sketch:type="MSShapeGroup"></path>
                <path d="M56.0859132,7.36366294 L56.9824172,2.22671507 C56.9824172,2.22671507 54.2170864,1.18387603 51.3359785,1.18387603 C48.2202427,1.18387603 40.8217789,2.53468801 40.8217789,9.10274442 C40.8217789,15.2835477 49.5060857,15.3607951 49.5060857,18.6041668 C49.5060857,21.8495713 41.7172584,21.2702163 39.1455725,19.2231619 L38.2132082,24.5928682 C38.2132082,24.5928682 41.0154238,25.9446966 45.3002009,25.9446966 C49.5829289,25.9446966 56.0480039,23.7431475 56.0480039,17.7554625 C56.0480039,11.5360355 47.2858293,10.9556641 47.2858293,8.2520073 C47.2858293,5.54733412 53.4004993,5.89494714 56.0859132,7.36366294" id="s" sketch:type="MSShapeGroup"></path>
                <path d="M34.344409,25.5320332 L28.0668314,25.5320332 L31.9899332,1.61178562 L38.2695599,1.61178562 L34.344409,25.5320332" id="i" sketch:type="MSShapeGroup"></path>
                <path d="M16.0915863,14.5222549 L16.0915863,14.5212385 L16.800593,18.0644518 L22.7851418,1.61178562 L29.542221,1.61178562 L19.5536289,25.5320332 L13.0127352,25.5320332 L7.5599414,4.75046686 C4.01798193,2.64039489 0.992408795,2.01631772 0.991384219,2.01631772 L1.10716131,1.61178562 L6.05432686,1.61178562 L11.0014924,1.61178562 C13.7248156,1.61178562 13.9789105,3.76556333 13.9789105,3.76556333 L16.0915863,14.5222549 C16.0915863,14.5222549 16.0915846,14.5222497 16.0915812,14.5222393 Z" id="v" sketch:type="MSShapeGroup"></path>
            </g>
        </g>
    </g>
</svg>