<?xml version="1.0" encoding="UTF-8" standalone="no"?>
<svg width="80px" height="28px" viewBox="0 0 80 28" version="1.1" xmlns="http://www.w3.org/2000/svg" xmlns:xlink="http://www.w3.org/1999/xlink" xmlns:sketch="http://www.bohemiancoding.com/sketch/ns">
    <!-- Generator: Sketch 3.3.3 (12072) - http://www.bohemiancoding.com/sketch -->
    <title>小红书</title>
    <desc>Created with Sketch.</desc>
    <defs></defs>
    <g id="website" stroke="none" stroke-width="1" fill="none" fill-rule="evenodd" sketch:type="MSPage">
        <g id="首页-2015-09-22" sketch:type="MSArtboardGroup" transform="translate(-290.000000, -3509.000000)" fill="#F40A0B">
            <g id="Group" sketch:type="MSLayerGroup" transform="translate(0.000000, 3233.000000)">
                <g id="Rectangle-191-+-Imported-Layers" transform="translate(216.000000, 242.000000)" sketch:type="MSShapeGroup">
                    <path d="M139.915082,56.3052932 C139.915082,58.112687 139.915159,59.9200038 139.914927,61.7272437 C139.914849,62.0163683 139.940346,61.9931275 139.644537,61.9932044 C138.062885,61.9934353 136.481311,61.9933584 134.89966,61.9932044 C134.605091,61.9932044 134.628882,62.0160604 134.628882,61.7271668 C134.62865,58.838692 134.628805,55.9501402 134.628805,53.0615884 L134.628805,50.859717 C134.628727,50.5794425 134.648799,50.6006054 134.376007,50.6005285 C132.802338,50.6003745 131.228669,50.6012211 129.655077,50.5998359 C129.295952,50.599528 129.342683,50.6447783 129.342451,50.2823914 C129.340823,48.7276449 129.341676,47.1728214 129.341908,45.6180749 C129.341908,45.334876 129.316567,45.3486511 129.611523,45.3487281 C131.193097,45.3490359 132.774749,45.3493437 134.356323,45.3484203 C134.659262,45.3482663 134.628263,45.3793567 134.628418,45.0871539 C134.629192,43.8008306 134.628727,42.5144305 134.628805,41.2280303 C134.628805,40.9994703 134.640817,41.0120141 134.406851,41.0120141 C133.397521,41.0117833 132.388035,41.012245 131.378782,41.0116294 C131.0939,41.0114754 131.107772,41.0409497 131.10785,40.7445913 C131.108005,39.1740687 131.10785,37.6034692 131.107927,36.0329466 C131.107927,35.977692 131.106532,35.9223605 131.109167,35.8672599 C131.112887,35.7884567 131.132494,35.7673707 131.206194,35.7641385 C131.269742,35.7613681 131.333446,35.7626764 131.396916,35.7626764 C132.382455,35.7626764 133.367994,35.7626764 134.353533,35.7625224 C134.417081,35.7625224 134.480629,35.7621377 134.5441,35.7600599 C134.589126,35.7585977 134.61904,35.7354339 134.621598,35.6893371 C134.625008,35.6263869 134.625318,35.5632828 134.625318,35.5001787 C134.625628,35.0976977 134.625395,34.6951397 134.625473,34.2926586 C134.625473,34.2453305 134.62462,34.1979255 134.62586,34.1505974 C134.629425,34.0136154 134.631517,34.0119993 134.780313,34.0083823 C134.796123,34.0079976 134.812165,34.0083054 134.828052,34.0083054 C136.457287,34.0083054 138.0866,34.0083054 139.715912,34.0083823 C139.755669,34.0083823 139.795348,34.008921 139.835026,34.0099984 C139.894855,34.0115375 139.917329,34.0469374 139.917639,34.1015763 C139.918181,34.1647574 139.918724,34.2278615 139.918801,34.2909656 C139.918879,34.7092996 139.919421,35.1276336 139.918646,35.5458907 C139.918181,35.772142 139.914539,35.7602907 140.144552,35.7606755 C140.653248,35.7613681 141.16202,35.7546729 141.670483,35.7652929 C142.841242,35.789765 143.951397,36.0596504 144.984132,36.6138891 C145.986255,37.1518131 146.744881,37.9252231 147.231489,38.9536661 C147.493819,39.5079048 147.654317,40.0914638 147.738635,40.6970323 C147.798695,41.1278333 147.82117,41.560712 147.82086,41.9952838 C147.820007,43.0291137 147.820627,44.0629435 147.820705,45.0967734 C147.820705,45.136252 147.819775,45.1757305 147.821015,45.2151321 C147.825122,45.3398781 147.829617,45.3464194 147.960046,45.3479585 C148.158595,45.3502672 148.357532,45.3446494 148.556003,45.3495746 C149.588196,45.3750471 150.57203,45.5976045 151.486968,46.0817361 C152.824579,46.7895025 153.607617,47.9006733 153.888701,49.3706911 C153.967439,49.7827917 153.996888,50.1989709 153.996578,50.6184593 C153.99464,52.8755852 153.996888,55.1327882 153.995338,57.3899141 C153.993865,59.4163254 152.718407,61.1215983 150.764612,61.7119295 C150.322255,61.8454485 149.868583,61.9188647 149.408246,61.960652 C148.91567,62.0054405 148.424257,61.9998996 147.932611,61.9521098 C147.417019,61.9019344 146.911269,61.805893 146.4228,61.6298172 C144.999089,61.1169039 144.086166,60.1254769 143.640941,58.6975543 C143.553911,58.4182032 143.496408,58.131926 143.459364,57.841878 C143.449367,57.7638444 143.445027,57.6848104 143.443089,57.6060072 C143.440919,57.5249723 143.459906,57.5047328 143.534614,57.5020394 C143.606067,57.4994998 143.677675,57.500885 143.749205,57.500885 C145.306988,57.500885 146.864692,57.5015007 148.422475,57.5003463 C148.74471,57.5001155 148.712859,57.5401327 148.712936,57.2080666 C148.713634,55.6690191 148.713479,54.1300486 148.712859,52.591155 C148.712859,52.4412443 148.713866,52.2907949 148.702319,52.1416538 C148.654735,51.5243109 148.360166,51.0681145 147.7911,50.8007686 C147.499864,50.6640173 147.190183,50.6003745 146.86756,50.6004515 C145.683317,50.6005285 144.499151,50.6004515 143.31483,50.6004515 L140.215308,50.6004515 C140.151682,50.6004515 140.088057,50.5989124 140.024586,50.6016828 C139.935541,50.6053767 139.919189,50.6229997 139.915779,50.7178097 C139.913532,50.7808369 139.915082,50.8440949 139.915082,50.907199 L139.915082,56.3052932 L139.915082,56.3052932 Z M139.911827,42.966933 C139.911827,43.8186845 139.911749,44.4568824 139.911904,45.0951573 C139.911904,45.1581845 139.911052,45.2213655 139.914772,45.2841618 C139.917329,45.3281808 139.943601,45.3563468 139.989789,45.3597328 C140.029236,45.3626572 140.068915,45.3641193 140.108516,45.3641193 C140.878224,45.3642732 141.647931,45.3642732 142.417639,45.3638885 C142.465145,45.3638115 142.512729,45.361118 142.559925,45.3566546 C142.606656,45.352345 142.628433,45.3210238 142.630835,45.2775436 C142.633393,45.2302925 142.632773,45.1829644 142.63285,45.1357133 C142.63285,44.0562483 142.63285,42.9767065 142.63254,41.8972416 C142.63254,41.8420639 142.633548,41.7867324 142.62851,41.7318626 C142.597589,41.393717 142.409579,41.1662344 142.082771,41.059804 C141.9518,41.0172472 141.818426,41.010552 141.683348,41.010552 C141.159618,41.0103211 140.635966,41.0116294 140.112158,41.0103211 C139.864088,41.0097055 139.87796,41.0061655 139.881913,41.2422672 C139.89253,41.8883146 139.904309,42.5343621 139.911827,42.966933 Z M110.885122,61.9865092 C110.894266,61.8821566 110.94774,61.811203 110.985636,61.7362476 C111.480614,60.7562871 111.977375,59.7770192 112.473515,58.7976743 C112.783971,58.184641 113.094195,57.5714539 113.404728,56.9584206 C113.429683,56.9090917 113.457659,56.8611479 113.481064,56.8112034 C113.504236,56.7614896 113.543449,56.7439436 113.595218,56.7442514 C113.658844,56.7444823 113.722392,56.7438667 113.786017,56.7438667 C115.367514,56.7437897 116.949088,56.7442514 118.530585,56.7434049 C118.837631,56.743251 118.813529,56.7769578 118.813529,56.4664395 C118.813761,51.4077223 118.813684,46.3490051 118.813684,41.2903648 C118.813684,41.2745888 118.813761,41.2587358 118.813684,41.2429598 C118.812444,41.0001629 118.829029,41.0119372 118.580958,41.0119372 C117.57961,41.0118602 116.578184,41.0118602 115.576758,41.0118602 C115.293581,41.0118602 115.315126,41.031561 115.315126,40.7611369 C115.314971,39.1748383 115.315126,37.5886166 115.315126,36.002318 C115.315126,35.7415134 115.299316,35.7626764 115.563196,35.7626764 C119.489232,35.7625994 123.41519,35.7625994 127.341226,35.7626764 C127.625721,35.7627533 127.603014,35.7410517 127.603014,36.0120915 C127.603401,37.5983901 127.603091,39.1846887 127.603246,40.7709103 C127.603246,41.0277132 127.617506,41.0120141 127.355409,41.0119372 C126.393816,41.0117833 125.432069,41.0118602 124.470477,41.0118602 C124.422816,41.0118602 124.375155,41.0121681 124.327494,41.0118602 C124.077796,41.0102441 124.094303,41.0054729 124.094226,41.2430367 L124.094226,42.1664344 L124.094226,56.4428139 C124.094226,56.490142 124.093373,56.5374701 124.094381,56.5849521 C124.097636,56.739711 124.098256,56.7404806 124.256661,56.7435588 C124.312304,56.7446362 124.36787,56.7437897 124.423514,56.7437897 C125.973314,56.7437897 127.523036,56.7437897 129.072759,56.7438667 C129.144289,56.7438667 129.215897,56.7430201 129.28735,56.7460214 C129.331214,56.7477914 129.361825,56.7708013 129.364383,56.8180525 C129.36694,56.8652266 129.367948,56.9126317 129.367948,56.9598828 C129.368103,58.5619574 129.368103,60.164032 129.368103,61.7661066 C129.368103,61.8055852 129.368955,61.8449868 129.367018,61.8844653 C129.362368,61.9731189 129.346171,61.9888179 129.248989,61.992281 C129.177536,61.9948975 129.106005,61.9932044 129.034475,61.9932044 C125.179969,61.9932814 121.325386,61.9932814 117.470958,61.9932814 C115.364957,61.9932814 113.258955,61.9933584 111.152954,61.9930505 C111.067939,61.9929736 110.982846,61.9889718 110.885122,61.9865092 Z M89.8214654,45.920128 C89.8214654,49.7550105 89.8238678,53.5898929 89.819528,57.4247753 C89.818598,58.2822215 89.6180338,59.0977266 89.2219428,59.8618249 C88.8516585,60.5759787 88.3188615,61.1350656 87.5980549,61.5094576 C87.1421357,61.746175 86.6534348,61.8791553 86.1459796,61.9448759 C85.494146,62.0292969 84.8454123,62.004517 84.2038859,61.8595315 C83.0893133,61.6075768 82.2443553,60.9911575 81.6800942,60.0014235 C81.3470089,59.4171719 81.1559769,58.7860539 81.0618171,58.1239995 C81.0429852,57.991404 81.0291131,57.857808 81.0205883,57.724135 C81.0113661,57.5807656 81.0222158,57.5720695 81.1564419,57.5682987 C81.2120078,57.5667595 81.2677287,57.5680678 81.3232945,57.5680678 L84.1838915,57.5680678 C84.2237254,57.5680678 84.2634042,57.567683 84.3031606,57.5680678 C84.5530908,57.5702226 84.5367388,57.5693761 84.5367388,57.3358139 C84.5365838,56.1048992 84.5366613,54.8739074 84.5366613,53.6429157 C84.5366613,47.2119921 84.5364288,40.7809916 84.5385212,34.350068 C84.5385212,34.2435606 84.4869077,34.1105032 84.5746352,34.0355479 C84.648723,33.9723668 84.7729519,34.0126919 84.8748615,34.012538 C86.4163692,34.0113836 87.9579545,34.0108449 89.4995397,34.0123841 C89.8643992,34.0127688 89.8207679,33.9645173 89.8209229,34.3207476 C89.8216979,38.1871821 89.8213879,42.0536936 89.8214654,45.920128 Z M113.127364,50.6336196 C113.118374,50.7478996 113.067303,50.8108498 113.031422,50.8794948 C112.476383,51.9441071 111.921189,53.0085656 111.363903,54.0719467 C111.224484,54.3380613 111.090801,54.6065615 110.986799,54.8883752 C110.957737,54.9671014 110.910231,55.0018087 110.826921,54.9945748 C110.787552,54.9910348 110.747563,54.9940361 110.707807,54.9940361 C109.062917,54.9940361 107.41795,54.9928818 105.77306,54.9948057 C105.387741,54.9952674 105.014357,54.9349337 104.65035,54.8112651 C104.49179,54.7574727 104.340824,54.6879043 104.198073,54.6011746 C103.738279,54.3217466 103.490674,53.9138016 103.44154,53.3815724 C103.420926,53.1581685 103.445415,52.9426911 103.507413,52.7274445 C103.632262,52.2942579 103.798185,51.8765396 103.974957,51.462669 C104.338034,50.6126106 104.756212,49.7886403 105.17253,48.9636696 C105.592413,48.1317729 106.012063,47.2996453 106.430551,46.4671329 C106.46496,46.3986418 106.512931,46.3336138 106.516883,46.2508859 C106.432256,46.2186412 106.353131,46.2321855 106.275865,46.2320316 C105.489186,46.2309542 104.702506,46.2308773 103.915826,46.2314929 C103.538567,46.2317238 103.173475,46.1642332 102.817916,46.0419497 C102.667338,45.9901582 102.523967,45.9226676 102.387958,45.8400166 C101.919949,45.5555864 101.671724,45.1402537 101.62755,44.5980201 C101.610036,44.3821579 101.635223,44.174607 101.694431,43.9674409 C101.811607,43.5568794 101.967533,43.1606318 102.133688,42.7679242 C102.404543,42.1278024 102.704924,41.5013018 103.017472,40.880496 C104.128945,38.6726989 105.241735,36.4654406 106.355533,34.2587979 C106.491464,33.9893742 106.431791,34.0263131 106.72636,34.0261592 C108.307779,34.0250049 109.88912,34.0256205 111.470462,34.0256205 L111.69939,34.0256205 C111.736589,34.1100415 111.682806,34.1594474 111.656379,34.2121624 C111.195035,35.1292497 110.731599,36.0453366 110.268627,36.9617312 C109.620513,38.2445915 108.972245,39.5273747 108.324828,40.8106197 C108.275152,40.9091237 108.224236,41.0081663 108.187192,41.1116724 C108.081873,41.4066456 108.188975,41.6432091 108.477886,41.7669547 C108.52144,41.785655 108.567164,41.8003537 108.612965,41.8129745 C108.738434,41.8476048 108.761761,41.8390627 108.820272,41.7251674 C108.921484,41.5285443 109.023548,41.332229 109.117165,41.1319889 C109.160099,41.0400262 109.218765,40.9976233 109.320055,41.0096285 C109.359268,41.0143228 109.399412,41.0103211 109.439169,41.0103211 C111.02051,41.0103211 112.601852,41.0100902 114.183193,41.0108598 C114.261931,41.0109368 114.342064,40.9984698 114.426226,41.0275593 C114.433589,41.1191372 114.372908,41.1877052 114.335709,41.2616601 C113.717509,42.4889579 113.097062,43.7151014 112.477235,44.9416297 C111.697221,46.4852176 110.917128,48.0288055 110.137733,49.5727781 C110.088057,49.6712821 110.037064,49.7702478 110.00002,49.8737539 C109.894235,50.1694197 109.999555,50.4072144 110.289861,50.5287283 C110.475391,50.6063771 110.673475,50.6288484 110.873109,50.6309262 C111.143344,50.6336966 111.413501,50.6316957 111.683658,50.6320036 C112.104859,50.6324653 112.525981,50.6330809 112.947182,50.6336196 C113.002283,50.6336966 113.057384,50.6336196 113.127364,50.6336196 Z M76.9810956,59.5590792 C76.9428892,59.5392245 76.9243672,59.5045172 76.9063102,59.4690404 C76.7165957,59.0961105 76.5315311,58.720795 76.3360043,58.3508665 C76.0112887,57.736525 75.7143173,57.1081774 75.3730172,56.5021472 C75.1910525,56.179008 75.0231149,55.8472497 74.8642445,55.5121054 C74.7050641,55.1762684 74.5162796,54.8568232 74.3440021,54.528374 C74.2448825,54.3394465 74.1503352,54.1479794 74.0450158,53.962438 C73.9892174,53.8642418 73.9836376,53.7838995 74.037576,53.6780078 C74.3300525,53.1031448 74.5135672,52.4925741 74.6028446,51.8552227 C74.6334562,51.6368979 74.6447709,51.4157257 74.6626728,51.1956309 C74.727926,50.3938241 74.7934116,49.5920172 74.8564172,48.7899794 C74.8935386,48.3183917 74.9236078,47.8461883 74.9618142,47.3747545 C74.9994006,46.9117859 75.0450467,46.4495868 75.0840281,45.9867721 C75.1248694,45.500024 75.1611384,45.0129681 75.2008947,44.5260661 C75.259948,43.8029085 75.3211712,43.0799048 75.3797595,42.3566702 C75.4071162,42.0186785 75.4302881,41.6803789 75.4562498,41.3423102 C75.4622946,41.263661 75.4708969,41.1851656 75.4809716,41.1069781 C75.4929837,41.0133994 75.500656,41.007012 75.6017131,41.0029333 C75.6572015,41.0006246 75.7129999,41.0020098 75.7686432,41.0020098 C77.4216703,41.0019329 79.0747748,41.001779 80.7278793,41.0021637 C81.0676295,41.0022407 81.0169459,40.9769991 80.9917592,41.2967522 C80.9359608,42.0045955 80.8779925,42.7122849 80.8200241,43.4199743 C80.7761604,43.9545122 80.7297393,44.4888962 80.686573,45.0235111 C80.6479791,45.5025636 80.6150426,45.9820778 80.5746663,46.4610533 C80.5211928,47.0963269 80.4605121,47.7310618 80.4074261,48.3664894 C80.3514727,49.0347002 80.2994718,49.7032959 80.2484007,50.3718915 C80.1811327,51.2527324 80.1006125,52.1316494 79.9173303,52.9981765 C79.6490331,54.2671076 79.2897536,55.5086424 78.7643963,56.6977699 C78.3318814,57.6769608 77.8056716,58.6025903 77.1129192,59.4277149 C77.0728529,59.4753508 77.0414663,59.5320675 76.9810956,59.5590792 Z M98.6134302,41.028098 C98.6234275,41.1122111 98.6377645,41.2047895 98.6448943,41.2979835 C98.6848057,41.8250566 98.7214621,42.3523606 98.7623034,42.8793569 C98.7993473,43.3591019 98.8414286,43.8384622 98.879325,44.3182073 C98.9191589,44.821578 98.9562028,45.3251025 98.9952617,45.8285501 C99.035638,46.3475429 99.0776418,46.8665356 99.1176306,47.3856054 C99.1582394,47.9126785 99.1963683,48.4398286 99.2371321,48.9668248 C99.274951,49.4544964 99.3152499,49.9418602 99.3536888,50.4295317 C99.3784105,50.7441288 99.4085572,51.0584949 99.4242892,51.3735537 C99.4635806,52.1635863 99.6498077,52.9162951 99.983513,53.6339118 C100.07031,53.8206076 100.09356,53.7712017 99.9746007,54.0042252 C99.8095305,54.3277491 99.637718,54.647887 99.4759802,54.9730271 C99.2544916,55.4182188 99.0417603,55.8677201 98.8214342,56.3135275 C98.7095275,56.5399327 98.585841,56.7605662 98.4737018,56.9867405 C98.1021001,57.736525 97.7341408,58.4880025 97.362849,59.2379408 C97.310848,59.3429861 97.2839563,59.460883 97.2033587,59.5538461 C97.1189636,59.5273732 97.0863371,59.4493396 97.0387534,59.3891598 C96.5507501,58.7722018 96.1502417,58.1012975 95.8081667,57.395455 C95.3101661,56.3682433 94.9428268,55.2947041 94.660115,54.1913827 C94.4562184,53.3957323 94.2974255,52.5910781 94.194896,51.7764195 C94.1496373,51.4166492 94.125613,51.0540315 94.0967063,50.6922603 C94.0283533,49.8351988 93.9634877,48.9778296 93.8960646,48.1206142 C93.8367014,47.3657507 93.7747032,46.611041 93.7159599,45.8560235 C93.6731036,45.3054787 93.6352072,44.7545491 93.5921185,44.2040043 C93.5367076,43.4963149 93.4778868,42.7887794 93.4211584,42.08109 C93.3952742,41.7587204 93.3709399,41.4362738 93.3459856,41.1138272 C93.3387783,41.021018 93.3516429,41.0065502 93.4496001,41.0027024 C93.4971837,41.0007785 93.5449223,41.0020098 93.592661,41.0020098 C95.1820623,41.0019329 96.7715412,41.001779 98.3609426,41.0026255 C98.4392153,41.0026255 98.5194255,40.9889273 98.6134302,41.028098 Z M110.904419,56.7641831 C110.905116,56.8539141 110.84769,56.9235594 110.809096,56.9977452 C110.295829,57.9859401 109.780469,58.9729036 109.265884,59.9604059 C108.955738,60.5556622 108.646289,61.1513803 108.336376,61.7468676 C108.307159,61.8028147 108.275927,61.8578384 108.247641,61.9143243 C108.219354,61.9705793 108.174173,61.9928197 108.11264,61.9906649 C108.064978,61.9890488 108.01724,61.9908188 107.969579,61.9908958 C106.301207,61.9935123 104.632836,61.9961288 102.964386,61.9986683 C102.567133,61.999207 102.16988,61.9979757 101.772626,61.9999766 C101.572759,62.000977 101.377698,61.9698097 101.183643,61.9266373 C100.936038,61.8714597 100.687193,61.8211303 100.440362,61.7624897 C100.324736,61.7350163 100.212131,61.695076 100.099372,61.6572136 C100.042566,61.6380515 100.032027,61.6038829 100.059538,61.5460118 C100.079765,61.5033011 100.103015,61.4618987 100.125024,61.4199575 C100.988194,59.7681692 101.851286,58.116227 102.714611,56.4645156 C102.817451,56.2677385 102.818226,56.2672768 103.03212,56.3410778 C103.843753,56.6210445 104.683209,56.7357863 105.538009,56.7404036 C106.777431,56.7472527 108.01693,56.7419428 109.256429,56.7424045 C109.741022,56.7426354 110.225693,56.7440206 110.710364,56.7462523 C110.772362,56.7464832 110.836143,56.7342471 110.904419,56.7641831 Z M150.178961,40.968303 C149.765743,40.968303 149.352448,40.9684569 148.939075,40.9680721 C148.883664,40.9680721 148.827943,40.9671487 148.772687,40.96307 C148.738123,40.9604535 148.713944,40.9387518 148.710766,40.9035059 C148.706659,40.8564087 148.704954,40.8090806 148.704954,40.7618295 C148.704411,39.9568674 148.699684,39.1518284 148.705419,38.3468663 C148.715029,37.0103676 149.673986,35.9081236 151.001755,35.7338178 C152.442438,35.5446594 153.65675,36.4959152 153.93706,37.7682324 C154.252088,39.1986947 153.354587,40.5899093 151.914756,40.9064302 C151.728606,40.947294 151.539124,40.969996 151.347317,40.9691495 C150.957814,40.9673026 150.568387,40.9685339 150.178961,40.9685339 L150.178961,40.968303 Z" id="小红书"></path>
                </g>
            </g>
        </g>
    </g>
</svg>