<?xml version="1.0" encoding="UTF-8" standalone="no"?>
<svg width="22px" height="31px" viewBox="0 0 22 31" version="1.1" xmlns="http://www.w3.org/2000/svg" xmlns:xlink="http://www.w3.org/1999/xlink" xmlns:sketch="http://www.bohemiancoding.com/sketch/ns">
    <!-- Generator: Sketch 3.3.2 (12043) - http://www.bohemiancoding.com/sketch -->
    <title> account</title>
    <desc>Created with Sketch.</desc>
    <defs></defs>
    <g id="Page-1" stroke="none" stroke-width="1" fill="none" fill-rule="evenodd" sketch:type="MSPage">
        <g id="Artboard-1-Copy-5" sketch:type="MSArtboardGroup" transform="translate(-282.000000, -371.000000)" fill="#000000">
            <g id="底" sketch:type="MSLayerGroup" transform="translate(274.000000, 85.000000)">
                <path d="M9.375,289.393209 L9.375,315.110269 L28.625,315.110269 L28.625,289.393209 L25.5038267,291.919273 L22.4313579,288.705383 L19.136518,291.919273 L15.59504,288.705383 L12.7692093,291.919273 L9.375,289.393209 Z M10.1902875,288.274129 L12.4570053,289.956475 L14.5672432,287.78222 L15.4853091,286.73808 L16.5136676,287.671315 L19,289.956475 L21.4765082,287.705396 L22.4653084,286.740889 L23.4201782,287.73971 L25.6620537,289.956475 L27.7655517,288.30841 L30,286.5 L30,289.393209 L30,315.110269 L30,316.5 L28.625,316.5 L9.375,316.5 L8,316.5 L8,315.110269 L8,289.393209 L8,286.644056 L10.1902875,288.274129 Z M12.75,299.82323 L25.25,299.82323 L25.875,299.82323 L25.875,298.433499 L25.25,298.433499 L12.75,298.433499 L12.125,298.433499 L12.125,299.82323 L12.75,299.82323 Z M12.75,304.687288 L25.25,304.687288 L25.875,304.687288 L25.875,303.297557 L25.25,303.297557 L12.75,303.297557 L12.125,303.297557 L12.125,304.687288 L12.75,304.687288 Z M12.75,309.660338 L25.25,309.660338 L25.875,309.660338 L25.875,308.270607 L25.25,308.270607 L12.75,308.270607 L12.125,308.270607 L12.125,309.660338 L12.75,309.660338 Z" id="-account" sketch:type="MSShapeGroup"></path>
            </g>
        </g>
    </g>
</svg>