<?xml version="1.0" encoding="UTF-8" standalone="no"?>
<svg width="20px" height="24px" viewBox="0 0 20 24" version="1.1" xmlns="http://www.w3.org/2000/svg" xmlns:xlink="http://www.w3.org/1999/xlink" xmlns:sketch="http://www.bohemiancoding.com/sketch/ns">
    <!-- Generator: Sketch 3.3.3 (12072) - http://www.bohemiancoding.com/sketch -->
    <title>Consulting</title>
    <desc>Created with Sketch.</desc>
    <defs></defs>
    <g id="website" stroke="none" stroke-width="1" fill="none" fill-rule="evenodd" sketch:type="MSPage">
        <g id="申请" sketch:type="MSArtboardGroup" transform="translate(-1030.000000, -786.000000)" fill="#000000">
            <g id="Consulting" sketch:type="MSLayerGroup" transform="translate(1030.000000, 786.000000)">
                <g id="Group" sketch:type="MSShapeGroup">
                    <path d="M14.738,22.997 L12,22.997 L12,21.997 L14.738,21.997 C15.175,21.997 16,21.097 16,20.62 L16,13.997 L17,13.997 L17,20.62 C17,21.58 15.809,22.997 14.738,22.997 L14.738,22.997 Z" id="Shape"></path>
                    <path d="M16.498,11.737 C16.307,11.737 16.125,11.628 16.042,11.443 C15.759,10.815 15.585,10.348 15.512,10.016 C15.112,8.208 13.776,4.006 10,4.006 C6.225,4.006 4.888,8.208 4.488,10.016 C4.425,10.299 4.291,10.678 4.077,11.172 C3.967,11.424 3.672,11.541 3.42,11.434 C3.166,11.326 3.049,11.032 3.159,10.778 C3.39,10.243 3.478,9.951 3.511,9.799 C4.467,5.485 6.831,3.007 9.999,3.007 C13.167,3.007 15.532,5.485 16.487,9.799 C16.527,9.98 16.638,10.337 16.952,11.029 C17.066,11.281 16.954,11.577 16.702,11.691 C16.637,11.724 16.566,11.737 16.498,11.737 L16.498,11.737 Z" id="Shape"></path>
                    <path d="M16.5,8.497 C16.225,8.497 16,8.272 16,7.997 L16,6.894 C16,3.702 13.252,1.003 10,1.003 C6.748,1.003 4,3.699 4,6.894 L4,7.998 C4,8.273 3.776,8.498 3.5,8.498 C3.224,8.498 3,8.272 3,7.997 L3,6.894 C3,3.16 6.206,0.003 10,0.003 C13.794,0.003 17,3.157 17,6.894 L17,7.998 C17,8.272 16.775,8.497 16.5,8.497 L16.5,8.497 Z" id="Shape"></path>
                    <path d="M10,19.974 C7.243,19.974 5,17.536 5,14.536 L5,10.997 C5,10.722 5.224,10.497 5.5,10.497 C5.776,10.497 6,10.722 6,10.997 L6,14.536 C6,16.983 7.794,18.974 10,18.974 C12.206,18.974 14,16.986 14,14.536 L14,10.997 C14,10.722 14.225,10.497 14.5,10.497 C14.775,10.497 15,10.722 15,10.997 L15,14.536 C15,17.534 12.757,19.974 10,19.974 L10,19.974 Z" id="Shape"></path>
                    <path d="M3.5,14.997 L2,14.997 C0.897,14.997 0,14.101 0,12.997 L0,9.997 C0,8.893 0.897,7.997 2,7.997 L3.5,7.997 C3.776,7.997 4,8.222 4,8.497 L4,14.497 C4,14.772 3.776,14.997 3.5,14.997 L3.5,14.997 Z M2,8.997 C1.449,8.997 1,9.445 1,9.997 L1,12.997 C1,13.549 1.449,13.997 2,13.997 L3,13.997 L3,8.997 L2,8.997 L2,8.997 Z" id="Shape"></path>
                    <path d="M18,14.997 L16.5,14.997 C16.225,14.997 16,14.772 16,14.497 L16,8.497 C16,8.222 16.225,7.997 16.5,7.997 L18,7.997 C19.104,7.997 20,8.893 20,9.997 L20,12.997 C20,14.101 19.104,14.997 18,14.997 L18,14.997 Z M17,13.997 L18,13.997 C18.551,13.997 19,13.549 19,12.997 L19,9.997 C19,9.445 18.551,8.997 18,8.997 L17,8.997 L17,13.997 L17,13.997 Z" id="Shape"></path>
                    <path d="M11.5,23.997 L8.5,23.997 C7.673,23.997 7,23.324 7,22.497 C7,21.67 7.673,20.997 8.5,20.997 L11.5,20.997 C12.327,20.997 13,21.67 13,22.497 C13,23.324 12.327,23.997 11.5,23.997 L11.5,23.997 Z M8.5,21.997 C8.224,21.997 8,22.222 8,22.497 C8,22.772 8.224,22.997 8.5,22.997 L11.5,22.997 C11.775,22.997 12,22.772 12,22.497 C12,22.222 11.775,21.997 11.5,21.997 L8.5,21.997 L8.5,21.997 Z" id="Shape"></path>
                    <path d="M15.875,11.497 C14.557,11.497 12.286,9.999 11.182,8.497 C9.69,11.404 4.066,11.497 4,11.497 C3.724,11.497 3.5,11.272 3.5,10.997 C3.5,10.722 3.724,10.497 4,10.497 C5.382,10.497 10.542,9.895 10.542,6.955 C10.542,6.679 10.766,6.455 11.042,6.455 C11.318,6.455 11.542,6.679 11.542,6.955 C11.542,8.048 14.539,10.497 15.875,10.497 C16.15,10.497 16.375,10.722 16.375,10.997 C16.375,11.272 16.15,11.497 15.875,11.497 L15.875,11.497 Z" id="Shape"></path>
                </g>
            </g>
        </g>
    </g>
</svg>