<?xml version="1.0" encoding="UTF-8" standalone="no"?>
<svg width="90px" height="72px" viewBox="0 0 90 72" version="1.1" xmlns="http://www.w3.org/2000/svg" xmlns:xlink="http://www.w3.org/1999/xlink" xmlns:sketch="http://www.bohemiancoding.com/sketch/ns">
    <!-- Generator: Sketch 3.3.3 (12072) - http://www.bohemiancoding.com/sketch -->
    <title>Male+Female</title>
    <desc>Created with Sketch.</desc>
    <defs></defs>
    <g id="website" stroke="none" stroke-width="1" fill="none" fill-rule="evenodd" sketch:type="MSPage">
        <g id="申请" sketch:type="MSArtboardGroup" transform="translate(-282.000000, -1132.000000)" fill="#000000">
            <g id="Male+Female" sketch:type="MSLayerGroup" transform="translate(282.000000, 1132.000000)">
                <g id="Group" sketch:type="MSShapeGroup">
                    <path d="M87.75,69.03 C86.925,69.03 86.25,68.364 86.25,67.545 C86.25,60.3 74.271,54.18 66.75,54.18 C66.105,54.18 65.532,53.769 65.325,53.166 L62.325,44.256 C62.067,43.476 62.49,42.636 63.27,42.375 C64.071,42.108 64.905,42.54 65.172,43.308 L67.842,51.24 C76.674,51.783 89.25,58.602 89.25,67.539 C89.25,68.364 88.575,69.03 87.75,69.03 L87.75,69.03 Z" id="Shape"></path>
                    <path d="M57.75,45.27 C56.925,45.27 56.25,44.601 56.25,43.785 C56.25,42.969 56.925,42.3 57.75,42.3 C72.369,42.3 78.189,35.088 80.028,31.941 C78.687,29.679 74.982,23.271 74.292,20.37 C73.101,15.357 69.09,3.693 57.75,3.693 C56.925,3.693 56.25,3.027 56.25,2.208 C56.25,1.389 56.925,0.723 57.75,0.723 C67.245,0.723 74.337,7.635 77.208,19.686 C77.799,22.152 81.615,28.794 83.037,31.146 C83.295,31.578 83.319,32.121 83.091,32.568 C81.585,35.55 75.312,45.27 57.75,45.27 L57.75,45.27 Z" id="Shape"></path>
                    <path d="M33.75,51.21 C24.936,51.21 17.997,41.871 17.307,33.291 C14.175,32.835 12.75,30.876 12.75,28.935 L12.75,22.995 C12.75,21.138 14.565,19.8 15.75,19.119 L15.75,14.085 C15.75,8.754 17.523,3.819 30.255,3.693 C34.548,0.651 38.679,0 41.424,0 C46.737,0 51.3,2.385 53.049,6.072 C54.348,8.823 53.88,11.829 51.744,14.601 L51.744,19.119 C52.932,19.797 54.744,21.135 54.744,22.995 L54.744,28.935 C54.744,30.87 53.316,32.835 50.181,33.291 C49.503,41.871 42.564,51.21 33.75,51.21 L33.75,51.21 Z M41.427,2.97 C39.051,2.97 35.427,3.558 31.65,6.369 C31.392,6.558 31.077,6.666 30.75,6.666 C18.75,6.666 18.75,10.782 18.75,14.091 L18.75,20.031 C18.75,20.613 18.402,21.144 17.865,21.387 C16.797,21.864 15.807,22.689 15.747,23.01 L15.747,28.941 C15.747,30.036 17.364,30.426 18.747,30.426 C19.575,30.426 20.247,31.095 20.247,31.911 C20.247,39.312 26.268,48.246 33.747,48.246 C41.226,48.246 47.247,39.309 47.247,31.911 C47.247,31.095 47.919,30.426 48.747,30.426 C50.13,30.426 51.747,30.039 51.747,28.941 L51.747,23.001 C51.684,22.65 50.595,21.813 49.635,21.384 C49.095,21.144 48.747,20.613 48.747,20.028 L48.747,14.088 C48.747,13.74 48.87,13.407 49.095,13.137 C50.763,11.16 51.186,9.15 50.331,7.341 C49.098,4.722 45.516,2.97 41.427,2.97 L41.427,2.97 Z" id="Shape"></path>
                    <path d="M2.25,72 C1.422,72 0.75,71.331 0.75,70.515 L0.75,67.545 C0.75,58.944 7.689,52.695 17.25,52.695 L20.949,52.695 L25.248,46.344 C25.707,45.663 26.643,45.48 27.33,45.93 C28.017,46.383 28.203,47.313 27.741,47.991 L22.995,55.002 C22.716,55.413 22.248,55.659 21.747,55.659 L17.247,55.659 C9.3,55.659 3.747,60.546 3.747,67.539 L3.747,70.509 C3.75,71.331 3.078,72 2.25,72 L2.25,72 Z" id="Shape"></path>
                    <path d="M65.25,72 C64.425,72 63.75,71.331 63.75,70.515 L63.75,67.545 C63.75,60.549 58.302,55.665 50.496,55.665 L45.996,55.665 C45.501,55.665 45.039,55.425 44.76,55.02 L39.891,48.012 C39.423,47.334 39.594,46.41 40.278,45.948 C40.962,45.489 41.895,45.654 42.363,46.335 L46.788,52.701 L50.496,52.701 C60.063,52.701 66.75,58.812 66.75,67.551 L66.75,70.521 C66.75,71.331 66.075,72 65.25,72 L65.25,72 Z" id="Shape"></path>
                </g>
            </g>
        </g>
    </g>
</svg>