<?xml version="1.0" encoding="UTF-8" standalone="no"?>
<svg width="70px" height="70px" viewBox="0 0 70 70" version="1.1" xmlns="http://www.w3.org/2000/svg" xmlns:xlink="http://www.w3.org/1999/xlink" xmlns:sketch="http://www.bohemiancoding.com/sketch/ns">
    <!-- Generator: Sketch 3.3.3 (12072) - http://www.bohemiancoding.com/sketch -->
    <title>help</title>
    <desc>Created with Sketch.</desc>
    <defs></defs>
    <g id="website" stroke="none" stroke-width="1" fill="none" fill-rule="evenodd" sketch:type="MSPage">
        <g id="首页" sketch:type="MSArtboardGroup" transform="translate(-247.000000, -3370.000000)" fill="#0D1F26">
            <g id="Group-+-Group-Copy" sketch:type="MSLayerGroup" transform="translate(216.000000, 3339.000000)">
                <g id="help" transform="translate(66.000000, 66.000000) rotate(-45.000000) translate(-66.000000, -66.000000) translate(31.000000, 31.000000)" sketch:type="MSShapeGroup">
                    <path d="M35,69.5 C15.977,69.5 0.5,54.023 0.5,35 C0.5,15.977 15.977,0.5 35,0.5 C54.023,0.5 69.5,15.977 69.5,35 C69.5,54.023 54.023,69.5 35,69.5 L35,69.5 Z M35,3.5 C17.63,3.5 3.5,17.63 3.5,35 C3.5,52.37 17.63,66.5 35,66.5 C52.37,66.5 66.5,52.37 66.5,35 C66.5,17.63 52.37,3.5 35,3.5 L35,3.5 Z" id="Shape"></path>
                    <path d="M35,54.5 C24.248,54.5 15.5,45.752 15.5,35 C15.5,24.248 24.248,15.5 35,15.5 C45.752,15.5 54.5,24.248 54.5,35 C54.5,45.752 45.752,54.5 35,54.5 L35,54.5 Z M35,18.5 C25.901,18.5 18.5,25.904 18.5,35 C18.5,44.096 25.901,51.5 35,51.5 C44.099,51.5 51.5,44.096 51.5,35 C51.5,25.904 44.099,18.5 35,18.5 L35,18.5 Z" id="Shape"></path>
                    <rect id="Rectangle-path" x="26" y="2" width="3" height="18"></rect>
                    <rect id="Rectangle-path" x="41" y="2" width="3" height="18"></rect>
                    <rect id="Rectangle-path" x="26" y="50" width="3" height="18"></rect>
                    <rect id="Rectangle-path" x="41" y="50" width="3" height="18"></rect>
                    <rect id="Rectangle-path" x="2" y="41" width="18" height="3"></rect>
                    <rect id="Rectangle-path" x="2" y="26" width="18" height="3"></rect>
                    <rect id="Rectangle-path" x="50" y="41" width="18" height="3"></rect>
                    <rect id="Rectangle-path" x="50" y="26" width="18" height="3"></rect>
                </g>
            </g>
        </g>
    </g>
</svg>