<?xml version="1.0" encoding="UTF-8" standalone="no"?>
<svg width="22px" height="18px" viewBox="0 0 22 18" version="1.1" xmlns="http://www.w3.org/2000/svg" xmlns:xlink="http://www.w3.org/1999/xlink" xmlns:sketch="http://www.bohemiancoding.com/sketch/ns">
    <!-- Generator: Sketch 3.3.3 (12072) - http://www.bohemiancoding.com/sketch -->
    <title>Bulleted-List</title>
    <desc>Created with Sketch.</desc>
    <defs></defs>
    <g id="website" stroke="none" stroke-width="1" fill="none" fill-rule="evenodd" sketch:type="MSPage">
        <g id="申请" sketch:type="MSArtboardGroup" transform="translate(-709.000000, -789.000000)" fill="#000000">
            <g id="Bulleted-List" sketch:type="MSLayerGroup" transform="translate(709.000000, 789.000000)">
                <g id="Group" sketch:type="MSShapeGroup">
                    <path d="M2.5,4.042 C1.466,4.042 0.625,3.201 0.625,2.167 C0.625,1.133 1.466,0.292 2.5,0.292 C3.534,0.292 4.375,1.133 4.375,2.167 C4.375,3.201 3.534,4.042 2.5,4.042 L2.5,4.042 Z M2.5,1.292 C2.018,1.292 1.625,1.685 1.625,2.167 C1.625,2.649 2.018,3.042 2.5,3.042 C2.982,3.042 3.375,2.649 3.375,2.167 C3.375,1.685 2.982,1.292 2.5,1.292 L2.5,1.292 Z" id="Shape"></path>
                    <path d="M20.875,2.708 L5.875,2.708 C5.599,2.708 5.375,2.483 5.375,2.208 C5.375,1.933 5.599,1.708 5.875,1.708 L20.875,1.708 C21.15,1.708 21.375,1.933 21.375,2.208 C21.375,2.483 21.15,2.708 20.875,2.708 L20.875,2.708 Z" id="Shape"></path>
                    <path d="M2.5,9.042 C1.466,9.042 0.625,8.201 0.625,7.167 C0.625,6.133 1.466,5.292 2.5,5.292 C3.534,5.292 4.375,6.133 4.375,7.167 C4.375,8.201 3.534,9.042 2.5,9.042 L2.5,9.042 Z M2.5,6.292 C2.018,6.292 1.625,6.685 1.625,7.167 C1.625,7.649 2.018,8.042 2.5,8.042 C2.982,8.042 3.375,7.649 3.375,7.167 C3.375,6.685 2.982,6.292 2.5,6.292 L2.5,6.292 Z" id="Shape"></path>
                    <path d="M20.875,7.708 L5.875,7.708 C5.599,7.708 5.375,7.483 5.375,7.208 C5.375,6.933 5.599,6.708 5.875,6.708 L20.875,6.708 C21.15,6.708 21.375,6.933 21.375,7.208 C21.375,7.483 21.15,7.708 20.875,7.708 L20.875,7.708 Z" id="Shape"></path>
                    <path d="M2.5,14.042 C1.466,14.042 0.625,13.201 0.625,12.167 C0.625,11.133 1.466,10.292 2.5,10.292 C3.534,10.292 4.375,11.133 4.375,12.167 C4.375,13.201 3.534,14.042 2.5,14.042 L2.5,14.042 Z M2.5,11.292 C2.018,11.292 1.625,11.685 1.625,12.167 C1.625,12.649 2.018,13.042 2.5,13.042 C2.982,13.042 3.375,12.649 3.375,12.167 C3.375,11.685 2.982,11.292 2.5,11.292 L2.5,11.292 Z" id="Shape"></path>
                    <path d="M20.875,12.708 L5.875,12.708 C5.599,12.708 5.375,12.483 5.375,12.208 C5.375,11.933 5.599,11.708 5.875,11.708 L20.875,11.708 C21.15,11.708 21.375,11.933 21.375,12.208 C21.375,12.483 21.15,12.708 20.875,12.708 L20.875,12.708 Z" id="Shape"></path>
                    <path d="M20.875,17.708 L5.875,17.708 C5.599,17.708 5.375,17.483 5.375,17.208 C5.375,16.933 5.599,16.708 5.875,16.708 L20.875,16.708 C21.15,16.708 21.375,16.933 21.375,17.208 C21.375,17.483 21.15,17.708 20.875,17.708 L20.875,17.708 Z" id="Shape"></path>
                </g>
            </g>
        </g>
    </g>
</svg>