<?xml version="1.0" encoding="UTF-8" standalone="no"?>
<svg width="30px" height="19px" viewBox="0 0 30 19" version="1.1" xmlns="http://www.w3.org/2000/svg" xmlns:xlink="http://www.w3.org/1999/xlink" xmlns:sketch="http://www.bohemiancoding.com/sketch/ns">
    <!-- Generator: Sketch 3.3.2 (12043) - http://www.bohemiancoding.com/sketch -->
    <title>fee</title>
    <desc>Created with Sketch.</desc>
    <defs></defs>
    <g id="Page-1" stroke="none" stroke-width="1" fill="none" fill-rule="evenodd" sketch:type="MSPage">
        <g id="Artboard-1-Copy-5" sketch:type="MSArtboardGroup" transform="translate(-278.000000, -170.000000)" fill="#333333">
            <g id="底" sketch:type="MSLayerGroup" transform="translate(274.000000, 85.000000)">
                <path d="M5.39534884,86.4074074 L5.39534884,102.592593 L32.6046512,102.592593 L32.6046512,86.4074074 L5.39534884,86.4074074 Z M19.6818182,99.3790402 C21.0281748,99.0452349 22.0290362,97.7974195 22.0290362,96.308284 C22.0290362,94.9422681 21.3478312,94.2832305 19.7198585,93.4547382 C19.7159914,93.4527702 19.3646044,93.2749504 19.2649588,93.2236998 C19.1810415,93.1805387 18.8963577,93.0364742 18.8964047,93.0364981 C17.9842942,92.5723155 17.7335816,92.3297615 17.7335816,91.8897284 C17.7335816,91.194322 18.2825417,90.6296296 18.9608544,90.6296296 C19.639167,90.6296296 20.1881271,91.194322 20.1881271,91.8897284 L21.5517635,91.8897284 C21.5517635,90.673723 20.7616893,89.6483391 19.6818182,89.3268731 L19.6818182,89.3268731 L19.6818182,88.5185185 L18.3181818,88.5185185 L18.3181818,89.3049388 C17.1984211,89.5992014 16.3699453,90.6445216 16.3699453,91.8897284 C16.3699453,93.0550721 16.9476039,93.6139329 18.2933451,94.2987946 C18.2967878,94.3005466 18.5775002,94.4426015 18.6567499,94.4833619 C18.761063,94.5370132 19.1164214,94.7168427 19.1167989,94.7170348 C20.3111408,95.3248479 20.6653998,95.6675787 20.6653998,96.308284 C20.6653998,97.2748349 19.9027575,98.0593333 18.9608544,98.0593333 C18.0189512,98.0593333 17.2563089,97.2748349 17.2563089,96.308284 L15.8926725,96.308284 C15.8926725,97.8261437 16.9325179,99.0932838 18.3181818,99.3973316 L18.3181818,100.481481 L19.6818182,100.481481 L19.6818182,99.3790402 L19.6818182,99.3790402 Z M5.39534884,85 L5.39534884,85 L32.6046512,85 L34,85 L34,86.4074074 L34,102.592593 L34,104 L32.6046512,104 L5.39534884,104 L4,104 L4,102.592593 L4,86.4074074 L4,85 L5.39534884,85 Z" id="fee" sketch:type="MSShapeGroup"></path>
            </g>
        </g>
    </g>
</svg>