<?xml version="1.0" encoding="UTF-8" standalone="no"?>
<svg width="72px" height="54px" viewBox="0 0 72 54" version="1.1" xmlns="http://www.w3.org/2000/svg" xmlns:xlink="http://www.w3.org/1999/xlink" xmlns:sketch="http://www.bohemiancoding.com/sketch/ns">
    <!-- Generator: Sketch 3.3.3 (12072) - http://www.bohemiancoding.com/sketch -->
    <title>Mail</title>
    <desc>Created with Sketch.</desc>
    <defs></defs>
    <g id="website" stroke="none" stroke-width="1" fill="none" fill-rule="evenodd" sketch:type="MSPage">
        <g id="首页" sketch:type="MSArtboardGroup" transform="translate(-766.000000, -3597.000000)" fill="#0D1F26">
            <g id="Group-Copy-5-+-Mail" sketch:type="MSLayerGroup" transform="translate(736.000000, 3563.000000)">
                <g id="Mail" transform="translate(30.000000, 34.000000)" sketch:type="MSShapeGroup">
                    <path d="M64.5,54 L7.5,54 C3.366,54 0,50.634 0,46.5 L0,7.5 C0,3.366 3.366,0 7.5,0 L64.5,0 C68.634,0 72,3.366 72,7.5 L72,46.5 C72,50.634 68.634,54 64.5,54 L64.5,54 Z M7.5,3 C5.019,3 3,5.019 3,7.5 L3,46.5 C3,48.981 5.019,51 7.5,51 L64.5,51 C66.981,51 69,48.981 69,46.5 L69,7.5 C69,5.019 66.981,3 64.5,3 L7.5,3 L7.5,3 Z" id="Shape"></path>
                    <path d="M36,36.09 C32.958,36.09 30.114,34.815 27.99,32.508 L9.366,12.144 C8.808,11.532 8.85,10.581 9.462,10.023 C10.071,9.465 11.022,9.507 11.583,10.119 L30.204,30.48 C33.294,33.84 38.706,33.843 41.802,30.477 L60.387,10.146 C60.951,9.531 61.893,9.492 62.508,10.05 C63.12,10.614 63.162,11.556 62.604,12.171 L44.016,32.505 C41.886,34.815 39.042,36.09 36,36.09 L36,36.09 Z" id="Shape"></path>
                    <path d="M10.476,45.645 C10.071,45.645 9.663,45.48 9.369,45.156 C8.811,44.544 8.853,43.593 9.465,43.035 L25.839,28.089 C26.454,27.528 27.402,27.573 27.96,28.185 C28.518,28.797 28.476,29.745 27.864,30.303 L11.49,45.252 C11.199,45.513 10.836,45.645 10.476,45.645 L10.476,45.645 Z" id="Shape"></path>
                    <path d="M61.533,45.645 C61.173,45.645 60.81,45.516 60.522,45.252 L44.142,30.3 C43.53,29.742 43.485,28.794 44.046,28.182 C44.61,27.567 45.558,27.528 46.164,28.086 L62.544,43.032 C63.156,43.596 63.201,44.538 62.64,45.15 C62.346,45.48 61.938,45.645 61.533,45.645 L61.533,45.645 Z" id="Shape"></path>
                </g>
            </g>
        </g>
    </g>
</svg>