<?xml version="1.0" encoding="UTF-8" standalone="no"?>
<svg width="56px" height="56px" viewBox="0 0 56 56" version="1.1" xmlns="http://www.w3.org/2000/svg" xmlns:xlink="http://www.w3.org/1999/xlink" xmlns:sketch="http://www.bohemiancoding.com/sketch/ns">
    <g id="Page-1" stroke="none" stroke-width="1" fill="none" fill-rule="evenodd" sketch:type="MSPage">
        <path d="M27.5463132,55.9805934 C12.3543393,55.9805934 0.0384569828,43.6647111 0.0384569828,28.4727372 C0.0384569828,13.2801568 12.3543393,0.964274449 27.5463132,0.964274449 C42.7388936,0.964274449 55.054776,13.2801568 55.054776,28.4727372 C55.054776,43.664711 42.7388935,55.9805934 27.5463132,55.9805934 L27.5463132,55.9805934 L27.5463132,55.9805934 Z M39.2567519,27.6823065 L29.2474439,27.6823065 L29.2474439,17.6723921 C29.2474439,16.9651962 28.6761073,16.3944661 27.9689115,16.3944661 C27.2629286,16.3944661 26.6921985,16.9651962 26.6921985,17.6723921 L26.6921985,27.6823065 L16.6822842,27.6823065 C15.9750882,27.6823065 15.4037517,28.2536431 15.4037517,28.9590195 C15.4037517,29.6662153 15.9750883,30.2375518 16.6822842,30.2375518 L26.6915921,30.2375518 L26.6915921,40.2474663 C26.6915921,40.9546622 27.2629287,41.5253923 27.9689115,41.5253923 C28.6761073,41.5253923 29.2474439,40.9546622 29.2474439,40.2474663 L29.2474439,30.2375518 L39.2567519,30.2375518 C39.9627347,30.2375518 40.5352843,29.6662153 40.5352843,28.9596259 C40.5352843,28.2536431 39.9639476,27.6823065 39.2567519,27.6823065 L39.2567519,27.6823065 L39.2567519,27.6823065 Z" id="Shape" fill="#fafafa" sketch:type="MSShapeGroup" transform="translate(27.538457, 28.464274) scale(1, -1) translate(-27.538457, -28.464274) "></path>
    </g>
</svg>