<?xml version="1.0" encoding="UTF-8" standalone="no"?>
<svg width="72px" height="66px" viewBox="0 0 72 66" version="1.1" xmlns="http://www.w3.org/2000/svg" xmlns:xlink="http://www.w3.org/1999/xlink" xmlns:sketch="http://www.bohemiancoding.com/sketch/ns">
    <!-- Generator: Sketch 3.3.3 (12072) - http://www.bohemiancoding.com/sketch -->
    <title>Search-on Cloud</title>
    <desc>Created with Sketch.</desc>
    <defs></defs>
    <g id="website" stroke="none" stroke-width="1" fill="none" fill-rule="evenodd" sketch:type="MSPage">
        <g id="申请" sketch:type="MSArtboardGroup" transform="translate(-291.000000, -1385.000000)" fill="#000000">
            <g id="Search-on-Cloud" sketch:type="MSLayerGroup" transform="translate(291.000000, 1385.000000)">
                <g id="Group" sketch:type="MSShapeGroup">
                    <g transform="translate(25.000000, 20.000000)" id="Shape">
                        <path d="M26.456,45.106 C25.895,45.106 25.364,44.794 25.103,44.26 L15.29,23.947 C14.933,23.203 15.242,22.306 15.989,21.943 C16.739,21.58 17.63,21.898 17.99,22.642 L27.8,42.955 C28.16,43.699 27.851,44.596 27.104,44.959 C26.897,45.058 26.675,45.106 26.456,45.106 L26.456,45.106 Z"></path>
                        <path d="M12.677,25.552 C7.559,25.552 3.05,22.483 1.178,17.722 C-0.031,14.65 0.029,11.293 1.346,8.269 C2.663,5.242 5.081,2.911 8.153,1.705 C9.605,1.135 11.123,0.844 12.671,0.844 C17.786,0.844 22.301,3.919 24.17,8.677 C25.376,11.746 25.319,15.106 24.002,18.13 C22.688,21.157 20.267,23.491 17.195,24.694 C15.743,25.261 14.222,25.552 12.677,25.552 L12.677,25.552 Z M12.668,3.838 C11.498,3.838 10.349,4.057 9.248,4.489 C6.923,5.404 5.093,7.168 4.094,9.46 C3.095,11.752 3.05,14.293 3.968,16.618 C5.384,20.221 8.801,22.552 12.677,22.552 C13.844,22.552 14.996,22.33 16.1,21.901 C18.425,20.983 20.255,19.216 21.251,16.927 C22.247,14.638 22.292,12.097 21.377,9.769 C19.958,6.169 16.541,3.838 12.668,3.838 L12.668,3.838 Z"></path>
                    </g>
                    <path d="M58.5,51.87 L54.009,51.87 C53.181,51.87 52.509,51.198 52.509,50.37 C52.509,49.542 53.181,48.87 54.009,48.87 L58.5,48.87 C64.29,48.87 69,44.169 69,38.385 C69,34.614 67.008,31.221 63.675,29.316 C63.177,29.031 62.883,28.485 62.925,27.912 C62.97,27.228 63,26.817 63,26.397 C63,13.992 52.908,3.897 40.503,3.897 C30.216,3.897 21.258,10.863 18.72,20.844 C18.546,21.531 17.889,21.99 17.199,21.972 C17.034,21.963 16.875,21.945 16.713,21.918 L16.665,21.918 C9.03,21.918 2.997,27.96 2.997,35.379 C2.997,42.816 9.054,48.864 16.497,48.864 L36.009,48.864 C36.837,48.864 37.509,49.536 37.509,50.364 C37.509,51.192 36.837,51.864 36.009,51.864 L16.5,51.864 C7.401,51.864 0,44.469 0,35.379 C0,26.406 7.212,19.083 16.152,18.897 C19.419,8.235 29.262,0.894 40.503,0.894 C54.564,0.894 66,12.333 66,26.394 C66,26.667 65.991,26.94 65.976,27.21 C69.714,29.709 72,33.906 72,38.382 C72,45.819 65.94,51.87 58.5,51.87 L58.5,51.87 Z" id="Shape"></path>
                </g>
            </g>
        </g>
    </g>
</svg>