<?xml version="1.0" encoding="UTF-8" standalone="no"?>
<svg width="22px" height="24px" viewBox="0 0 22 24" version="1.1" xmlns="http://www.w3.org/2000/svg" xmlns:xlink="http://www.w3.org/1999/xlink" xmlns:sketch="http://www.bohemiancoding.com/sketch/ns">
    <!-- Generator: Sketch 3.3.3 (12072) - http://www.bohemiancoding.com/sketch -->
    <title>Add-User</title>
    <desc>Created with Sketch.</desc>
    <defs></defs>
    <g id="website" stroke="none" stroke-width="1" fill="none" fill-rule="evenodd" sketch:type="MSPage">
        <g id="申请" sketch:type="MSArtboardGroup" transform="translate(-389.000000, -786.000000)" fill="#000000">
            <g id="Add-User" sketch:type="MSLayerGroup" transform="translate(389.000000, 786.000000)">
                <g id="Group" sketch:type="MSShapeGroup">
                    <path d="M11.125,17.375 C8.16,17.375 5.744,14.155 5.518,11.307 C4.851,11.119 4.25,10.569 4.25,9.875 L4.25,7.875 C4.25,7.25 4.855,6.799 5.25,6.571 L5.25,4.875 C5.25,2.979 6.765,1.431 8.647,1.377 C9.049,1.216 10.633,0.625 12.25,0.625 C14.83,0.625 16.25,2.135 16.25,4.875 L16.25,6.419 C17.25,6.614 17.25,7.417 17.25,7.875 L17.25,9.875 C17.25,10.571 16.934,11.09 16.424,11.287 C16.232,14.242 14.029,17.375 11.125,17.375 L11.125,17.375 Z M12.25,1.625 C10.628,1.625 8.963,2.327 8.947,2.335 C8.885,2.361 8.818,2.375 8.75,2.375 C7.372,2.375 6.25,3.496 6.25,4.875 L6.25,6.875 C6.25,7.071 6.134,7.25 5.955,7.331 C5.599,7.492 5.269,7.768 5.249,7.879 L5.249,9.875 C5.249,10.095 5.669,10.375 5.999,10.375 C6.275,10.375 6.499,10.599 6.499,10.875 C6.499,13.351 8.633,16.375 11.124,16.375 C13.553,16.375 15.437,13.418 15.437,10.875 C15.437,10.599 15.661,10.375 15.937,10.375 C16.144,10.375 16.25,10.207 16.25,9.875 L16.25,7.875 C16.25,7.375 16.25,7.375 15.75,7.375 C15.475,7.375 15.25,7.151 15.25,6.875 L15.25,4.875 C15.25,2.688 14.27,1.625 12.25,1.625 L12.25,1.625 Z" id="Shape"></path>
                    <path d="M18.75,23.375 C18.475,23.375 18.25,23.151 18.25,22.875 L18.25,17.875 C18.25,17.599 18.475,17.375 18.75,17.375 C19.025,17.375 19.25,17.599 19.25,17.875 L19.25,22.875 C19.25,23.151 19.025,23.375 18.75,23.375 L18.75,23.375 Z" id="Shape"></path>
                    <path d="M21.25,20.875 L16.25,20.875 C15.975,20.875 15.75,20.651 15.75,20.375 C15.75,20.099 15.975,19.875 16.25,19.875 L21.25,19.875 C21.525,19.875 21.75,20.099 21.75,20.375 C21.75,20.651 21.525,20.875 21.25,20.875 L21.25,20.875 Z" id="Shape"></path>
                    <path d="M0.75,23.375 C0.474,23.375 0.25,23.151 0.25,22.875 C0.25,19.979 2.563,17.875 5.75,17.875 L6.983,17.875 L8.314,15.889 C8.468,15.66 8.778,15.598 9.008,15.752 C9.237,15.905 9.299,16.216 9.145,16.445 L7.666,18.653 C7.573,18.792 7.417,18.875 7.25,18.875 L5.75,18.875 C3.101,18.875 1.25,20.521 1.25,22.875 C1.25,23.151 1.026,23.375 0.75,23.375 L0.75,23.375 Z" id="Shape"></path>
                </g>
            </g>
        </g>
    </g>
</svg>